<svg width="648" height="840" viewBox="0 0 648 840" fill="none" xmlns="http://www.w3.org/2000/svg">
<mask id="mask0_87_1451" style="mask-type:alpha" maskUnits="userSpaceOnUse" x="0" y="0" width="648" height="840">
<path d="M0 324C0 145.06 145.06 0 324 0C502.94 0 648 145.06 648 324V840H0V324Z" fill="#9FCDA0"/>
</mask>
<g mask="url(#mask0_87_1451)">
<path d="M0 324C0 145.06 145.06 0 324 0C502.94 0 648 145.06 648 324V840H0V324Z" fill="#E9B255"/>
<path style="mix-blend-mode:multiply" d="M247.181 834.217C377.069 834.217 482.363 818.793 482.363 799.767C482.363 780.741 377.069 765.317 247.181 765.317C117.294 765.317 12 780.741 12 799.767C12 818.793 117.294 834.217 247.181 834.217Z" fill="url(#paint0_radial_87_1451)"/>
<path style="mix-blend-mode:multiply" d="M387.82 776.201C387.82 761.581 443.504 749.683 512.279 749.683C581.054 749.683 636.738 761.581 636.738 776.201C636.738 790.82 581.008 802.672 512.279 802.672C443.55 802.672 387.82 790.636 387.82 776.201Z" fill="url(#paint1_radial_87_1451)"/>
<path d="M504.858 444.984C531.179 467.766 530.994 511.163 504.397 541.831C477.8 572.499 434.93 579.186 408.471 556.404L398.515 547.78L494.763 436.36L504.858 444.984Z" fill="url(#paint2_linear_87_1451)"/>
<path d="M494.901 436.36C521.222 459.142 521.038 502.539 494.486 533.207C467.935 563.875 424.974 570.47 398.653 547.688C372.332 524.906 372.517 481.509 399.068 450.841C425.619 420.173 468.396 413.578 494.901 436.36Z" fill="url(#paint3_linear_87_1451)"/>
<path d="M490.799 438.574C515.552 460.018 515.368 500.833 490.384 529.794C465.4 558.756 425.02 564.844 400.22 543.63C375.42 522.416 375.605 481.371 400.635 452.409C425.665 423.447 465.999 417.129 490.799 438.574Z" fill="url(#paint4_linear_87_1451)"/>
<path d="M478.906 517.455C498.383 494.672 498.409 462.714 478.964 446.076C459.519 429.437 427.967 434.419 408.49 457.202C389.014 479.986 388.988 511.944 408.433 528.582C427.878 545.22 459.43 540.239 478.906 517.455Z" fill="url(#paint5_linear_87_1451)"/>
<path d="M479.828 453.793C497.944 469.427 497.805 499.265 479.551 520.433C461.297 541.601 431.796 546.028 413.68 530.394C395.565 514.76 395.703 484.876 414.003 463.754C432.303 442.632 461.758 438.159 479.828 453.793Z" fill="url(#paint6_linear_87_1451)"/>
<path d="M478.318 519.334C495.928 498.945 496.384 470.468 479.337 455.731C462.289 440.993 434.193 445.575 416.583 465.965C398.972 486.354 398.516 514.831 415.564 529.568C432.612 544.306 460.707 539.724 478.318 519.334Z" fill="url(#paint7_linear_87_1451)"/>
<path d="M459.177 505.859C457.126 508.019 454.686 509.771 451.986 511.025C449.606 511.992 447.029 512.371 444.472 512.131L443.366 504.845C445.172 505.373 447.091 505.373 448.897 504.845C450.864 504.204 452.671 503.151 454.198 501.755L447.699 496.129C445.892 497.573 443.981 498.883 441.983 500.049C440.33 500.957 438.475 501.432 436.59 501.432C434.539 501.368 432.585 500.547 431.104 499.126C430.001 498.191 429.115 497.024 428.51 495.71C427.905 494.395 427.594 492.964 427.601 491.517C427.68 487.992 428.911 484.591 431.104 481.832L427.278 478.466L430.874 474.361L434.7 477.682C436.531 475.678 438.782 474.103 441.291 473.07C443.589 472.219 446.035 471.843 448.482 471.963L449.45 479.157C447.691 478.756 445.863 478.756 444.103 479.157C442.364 479.591 440.773 480.483 439.494 481.74L446.178 487.551C447.98 486.155 449.891 484.905 451.894 483.815C453.568 482.93 455.44 482.485 457.333 482.524C459.425 482.603 461.413 483.458 462.91 484.922C463.984 485.837 464.833 486.987 465.392 488.282C465.951 489.577 466.206 490.984 466.137 492.393C465.868 495.762 464.6 498.973 462.496 501.617L466.368 504.937L462.772 509.088L459.177 505.859ZM436.129 486.075C435.461 487.059 435.079 488.208 435.022 489.395C435.04 489.882 435.16 490.36 435.374 490.797C435.588 491.234 435.893 491.621 436.267 491.932C436.584 492.24 436.978 492.458 437.407 492.563C437.837 492.669 438.286 492.658 438.71 492.531C439.842 492.228 440.906 491.712 441.845 491.01L436.129 486.075ZM457.609 491.794C457.289 491.488 456.899 491.265 456.474 491.145C456.048 491.024 455.599 491.01 455.166 491.102C454.042 491.404 452.981 491.904 452.032 492.578L457.563 497.189C459.407 494.883 459.453 493.085 457.932 491.794H457.609Z" fill="#FFE4AB"/>
<path d="M458.07 504.799C456.049 506.98 453.602 508.722 450.88 509.918C448.513 510.873 445.957 511.268 443.412 511.071L442.306 503.784C444.136 504.212 446.049 504.133 447.837 503.553C449.789 502.901 451.591 501.867 453.138 500.51L446.639 494.883C444.828 496.332 442.901 497.627 440.877 498.757C439.242 499.674 437.403 500.165 435.53 500.187C433.471 500.12 431.513 499.28 430.044 497.835C428.928 496.91 428.034 495.746 427.428 494.429C426.821 493.112 426.518 491.675 426.541 490.225C426.637 486.704 427.865 483.308 430.044 480.541L426.218 477.22L429.768 473.07L433.64 476.39C435.465 474.379 437.717 472.804 440.231 471.778C442.525 470.975 444.947 470.6 447.376 470.672L448.344 477.866C446.6 477.465 444.788 477.465 443.043 477.866C441.3 478.315 439.708 479.223 438.434 480.495L445.348 486.49C447.142 485.105 449.038 483.857 451.018 482.754C452.695 481.878 454.565 481.435 456.457 481.463C458.547 481.555 460.53 482.408 462.035 483.861C463.131 484.758 463.996 485.904 464.557 487.204C465.118 488.504 465.36 489.92 465.262 491.332C464.995 494.694 463.744 497.902 461.666 500.556L465.492 503.876L461.943 508.027L458.07 504.799ZM435.023 484.968C434.346 485.944 433.976 487.101 433.962 488.289C433.961 488.781 434.068 489.267 434.275 489.713C434.482 490.159 434.785 490.554 435.161 490.871C435.492 491.157 435.886 491.361 436.31 491.465C436.735 491.569 437.178 491.571 437.604 491.471C438.749 491.141 439.826 490.61 440.785 489.903L435.023 484.968ZM456.503 490.687C456.192 490.382 455.81 490.159 455.392 490.038C454.974 489.917 454.532 489.902 454.106 489.995C452.97 490.287 451.904 490.805 450.972 491.517L456.503 496.129C458.163 493.869 458.163 492.024 456.642 490.687H456.503Z" fill="white"/>
<path style="mix-blend-mode:multiply" d="M494.901 436.36C521.222 459.142 521.038 502.539 494.486 533.207C467.935 563.875 424.974 570.47 398.653 547.688C372.332 524.906 372.517 481.509 399.068 450.841C425.619 420.173 468.396 413.578 494.901 436.36Z" fill="url(#paint8_linear_87_1451)"/>
<path d="M350.805 785.424L190.391 756.785C183.468 755.323 177.368 751.262 173.346 745.437C169.325 739.612 167.688 732.467 168.772 725.471L218.095 356.116C218.993 349.172 222.489 342.826 227.878 338.359C233.267 333.892 240.148 331.634 247.135 332.042L408.471 346.662C412.041 346.982 415.509 348.027 418.662 349.733C421.815 351.439 424.587 353.771 426.808 356.585C429.03 359.399 430.655 362.637 431.584 366.101C432.513 369.564 432.726 373.181 432.21 376.73L381.505 762.366C381.105 765.94 379.978 769.396 378.194 772.519C376.411 775.642 374.007 778.368 371.132 780.527C368.256 782.687 364.97 784.236 361.474 785.078C357.979 785.92 354.348 786.038 350.805 785.424Z" fill="#535A74"/>
<path style="mix-blend-mode:multiply" d="M344.352 767.669C332.044 765.409 209.152 744.195 196.43 741.613C183.707 739.03 180.02 729.853 181.771 716.571C183.523 703.289 227.314 374.978 228.928 362.711C230.541 350.443 238.147 343.387 251.976 344.771C265.804 346.154 388.604 359.621 401.419 360.774C414.233 361.927 418.428 368.706 416.63 382.08C414.832 395.454 368.69 743.688 367.169 753.88C365.648 764.072 356.705 769.929 344.352 767.669Z" fill="url(#paint9_linear_87_1451)"/>
<path d="M343.937 764.856C331.952 762.688 211.964 741.428 199.656 738.938C187.349 736.447 184.445 730.083 186.15 716.986C187.856 703.888 231.509 377.099 233.122 365.062C234.735 353.026 240.221 347.123 253.635 348.414C267.049 349.705 387.313 361.88 399.62 362.987C411.928 364.094 416.492 369.72 414.74 382.864C412.988 396.007 367.768 741.197 366.293 751.205C364.818 761.212 355.645 766.977 343.937 764.856Z" fill="url(#paint10_linear_87_1451)"/>
<path d="M336.193 377.837L305.723 374.378C304.918 374.275 304.143 374.006 303.447 373.587C302.752 373.169 302.151 372.61 301.682 371.946C301.214 371.283 300.889 370.529 300.728 369.733C300.566 368.937 300.572 368.116 300.745 367.322L300.975 366.123C301.268 364.45 302.169 362.944 303.505 361.897C304.842 360.849 306.519 360.334 308.212 360.451L338.682 363.91C339.484 364.019 340.255 364.293 340.948 364.713C341.64 365.134 342.238 365.692 342.705 366.354C343.172 367.016 343.498 367.767 343.662 368.561C343.826 369.354 343.826 370.173 343.66 370.966L343.43 372.165C343.157 373.847 342.261 375.365 340.92 376.417C339.579 377.468 337.891 377.975 336.193 377.837Z" fill="#535A74"/>
<path d="M355.968 380.189L352.972 379.82C352.167 379.717 351.391 379.448 350.696 379.029C350 378.611 349.399 378.052 348.931 377.388C348.463 376.725 348.138 375.971 347.976 375.175C347.815 374.379 347.821 373.558 347.993 372.764L348.224 371.565C348.485 369.867 349.374 368.328 350.713 367.252C352.053 366.177 353.747 365.642 355.461 365.754L358.457 366.123C359.262 366.226 360.038 366.496 360.733 366.914C361.429 367.333 362.03 367.892 362.498 368.556C362.966 369.219 363.291 369.973 363.453 370.769C363.614 371.565 363.608 372.386 363.436 373.179V374.378C363.183 376.125 362.264 377.706 360.872 378.789C359.48 379.873 357.722 380.374 355.968 380.189Z" fill="#535A74"/>
<mask id="mask1_87_1451" style="mask-type:luminance" maskUnits="userSpaceOnUse" x="168" y="331" width="265" height="455">
<path d="M350.805 785.424L190.391 756.785C183.468 755.323 177.368 751.262 173.346 745.437C169.325 739.612 167.688 732.467 168.772 725.471L218.095 356.116C218.993 349.172 222.489 342.826 227.878 338.359C233.267 333.892 240.148 331.634 247.135 332.042L408.471 346.662C412.041 346.982 415.509 348.027 418.662 349.733C421.815 351.439 424.587 353.771 426.808 356.585C429.03 359.399 430.655 362.637 431.584 366.101C432.513 369.564 432.726 373.181 432.21 376.73L381.505 762.366C381.105 765.94 379.978 769.396 378.194 772.519C376.411 775.642 374.007 778.368 371.132 780.527C368.256 782.687 364.97 784.236 361.474 785.078C357.979 785.92 354.348 786.038 350.805 785.424Z" fill="white"/>
</mask>
<g mask="url(#mask1_87_1451)">
<path style="mix-blend-mode:multiply" d="M231.601 837.399C283.917 837.399 326.328 794.968 326.328 742.627C326.328 690.286 283.917 647.855 231.601 647.855C179.284 647.855 136.874 690.286 136.874 742.627C136.874 794.968 179.284 837.399 231.601 837.399Z" fill="url(#paint11_radial_87_1451)"/>
<path style="mix-blend-mode:multiply" d="M392.429 692.359C370.856 739.998 335.962 770.759 314.481 761.028C293 751.297 293.139 704.765 314.481 657.125C335.823 609.486 370.949 578.725 392.429 588.41C413.91 598.095 414.002 644.673 392.429 692.359Z" fill="url(#paint12_radial_87_1451)"/>
</g>
<path d="M160.521 647.994C158.606 647.994 156.735 647.426 155.143 646.362C153.551 645.298 152.31 643.785 151.578 642.015C150.845 640.246 150.653 638.298 151.027 636.42C151.4 634.541 152.322 632.816 153.676 631.461C155.03 630.107 156.755 629.184 158.632 628.811C160.51 628.437 162.457 628.629 164.225 629.362C165.994 630.095 167.506 631.336 168.57 632.929C169.633 634.521 170.201 636.394 170.201 638.309C170.201 640.878 169.181 643.341 167.366 645.157C165.551 646.974 163.088 647.994 160.521 647.994ZM160.521 634.159C159.682 634.159 158.862 634.407 158.165 634.874C157.467 635.34 156.924 636.003 156.603 636.778C156.282 637.553 156.198 638.406 156.362 639.229C156.525 640.052 156.929 640.808 157.522 641.402C158.115 641.995 158.871 642.399 159.694 642.563C160.516 642.726 161.369 642.642 162.144 642.321C162.919 642 163.581 641.456 164.047 640.759C164.513 640.061 164.762 639.241 164.762 638.401C164.774 637.837 164.673 637.275 164.466 636.749C164.258 636.224 163.948 635.745 163.553 635.342C163.158 634.938 162.686 634.617 162.165 634.398C161.645 634.179 161.086 634.066 160.521 634.066V634.159Z" fill="url(#paint13_linear_87_1451)"/>
<path d="M463.279 413.348C461.363 413.357 459.487 412.797 457.889 411.738C456.291 410.679 455.043 409.17 454.303 407.401C453.564 405.633 453.365 403.684 453.734 401.802C454.102 399.92 455.02 398.191 456.372 396.831C457.724 395.472 459.449 394.545 461.328 394.168C463.207 393.791 465.156 393.98 466.927 394.711C468.699 395.443 470.213 396.684 471.279 398.278C472.345 399.871 472.913 401.746 472.914 403.663C472.914 406.224 471.9 408.68 470.095 410.495C468.289 412.31 465.839 413.336 463.279 413.348ZM463.279 399.513C462.441 399.513 461.621 399.761 460.923 400.228C460.226 400.694 459.682 401.356 459.361 402.132C459.04 402.907 458.956 403.76 459.12 404.583C459.284 405.406 459.688 406.162 460.281 406.755C460.874 407.349 461.629 407.753 462.452 407.917C463.275 408.08 464.127 407.996 464.902 407.675C465.677 407.354 466.34 406.81 466.806 406.113C467.272 405.415 467.52 404.594 467.52 403.755C467.526 403.192 467.421 402.633 467.212 402.11C467.002 401.588 466.691 401.112 466.297 400.709C465.904 400.306 465.434 399.985 464.917 399.764C464.399 399.543 463.842 399.426 463.279 399.42V399.513Z" fill="url(#paint14_linear_87_1451)"/>
<path d="M208.599 354.732H204.866V350.95C204.854 350.232 204.563 349.547 204.056 349.04C203.548 348.532 202.864 348.241 202.146 348.229C201.789 348.229 201.435 348.3 201.105 348.437C200.775 348.573 200.475 348.774 200.223 349.026C199.97 349.279 199.77 349.579 199.633 349.909C199.497 350.239 199.426 350.593 199.426 350.95V354.732H195.646C194.925 354.732 194.233 355.019 193.723 355.529C193.213 356.039 192.927 356.731 192.927 357.453C192.939 358.171 193.229 358.856 193.736 359.364C194.244 359.872 194.929 360.162 195.646 360.174H199.426V363.909C199.42 364.268 199.486 364.625 199.621 364.958C199.755 365.291 199.955 365.593 200.209 365.847C200.463 366.101 200.765 366.301 201.098 366.436C201.431 366.571 201.787 366.637 202.146 366.63C202.867 366.63 203.559 366.344 204.069 365.833C204.579 365.323 204.866 364.631 204.866 363.909V360.174H208.599C209.317 360.162 210.002 359.872 210.509 359.364C211.017 358.856 211.307 358.171 211.319 357.453C211.319 356.731 211.032 356.039 210.522 355.529C210.012 355.019 209.321 354.732 208.599 354.732Z" fill="url(#paint15_linear_87_1451)"/>
<path d="M441.983 631.668H438.203V627.886C438.203 627.531 438.133 627.18 437.995 626.852C437.858 626.524 437.657 626.227 437.404 625.979C437.151 625.73 436.851 625.533 436.521 625.402C436.191 625.27 435.839 625.205 435.484 625.212C434.77 625.211 434.085 625.492 433.577 625.992C433.068 626.492 432.776 627.173 432.764 627.886V631.668H429.03C428.671 631.662 428.315 631.728 427.982 631.862C427.649 631.997 427.347 632.197 427.093 632.451C426.839 632.705 426.639 633.007 426.505 633.34C426.37 633.673 426.304 634.03 426.31 634.389C426.31 635.111 426.597 635.803 427.107 636.313C427.617 636.823 428.309 637.11 429.03 637.11H432.764V640.845C432.764 641.203 432.834 641.557 432.971 641.887C433.108 642.217 433.308 642.517 433.561 642.769C433.813 643.022 434.113 643.223 434.443 643.359C434.773 643.496 435.126 643.566 435.484 643.566C435.842 643.573 436.199 643.506 436.532 643.372C436.864 643.237 437.167 643.037 437.421 642.783C437.674 642.529 437.874 642.227 438.009 641.894C438.143 641.561 438.209 641.204 438.203 640.845V637.11H441.983C442.701 637.098 443.386 636.808 443.893 636.3C444.401 635.792 444.691 635.107 444.703 634.389C444.703 633.667 444.416 632.975 443.906 632.465C443.396 631.955 442.704 631.668 441.983 631.668Z" fill="url(#paint16_linear_87_1451)"/>
<path d="M442.167 606.949C442.213 607.916 441.969 608.873 441.466 609.699C440.963 610.526 440.224 611.182 439.345 611.584C438.465 611.986 437.486 612.116 436.532 611.956C435.579 611.796 434.695 611.354 433.995 610.686C433.295 610.019 432.81 609.158 432.604 608.213C432.398 607.268 432.479 606.282 432.838 605.384C433.196 604.486 433.816 603.715 434.616 603.172C435.416 602.629 436.36 602.339 437.327 602.338C437.952 602.306 438.576 602.402 439.162 602.62C439.748 602.838 440.284 603.173 440.737 603.604C441.189 604.035 441.55 604.554 441.796 605.13C442.042 605.705 442.168 606.324 442.167 606.949Z" fill="url(#paint17_linear_87_1451)"/>
<path d="M179.835 360.405C179.79 361.306 179.482 362.173 178.949 362.901C178.416 363.628 177.681 364.183 176.836 364.497C175.991 364.811 175.072 364.87 174.194 364.667C173.315 364.464 172.515 364.008 171.894 363.355C171.272 362.701 170.855 361.88 170.695 360.992C170.535 360.105 170.639 359.189 170.994 358.36C171.348 357.531 171.938 356.824 172.691 356.326C173.443 355.829 174.324 355.563 175.226 355.562C175.851 355.561 176.47 355.688 177.045 355.934C177.62 356.18 178.138 356.541 178.57 356.993C179.001 357.446 179.335 357.982 179.553 358.569C179.771 359.155 179.867 359.78 179.835 360.405Z" fill="url(#paint18_linear_87_1451)"/>
<path d="M216.989 332.042C216.943 332.933 216.64 333.791 216.117 334.513C215.593 335.235 214.872 335.79 214.04 336.11C213.207 336.43 212.3 336.502 211.428 336.317C210.556 336.132 209.756 335.697 209.126 335.067C208.496 334.436 208.062 333.636 207.876 332.763C207.691 331.891 207.763 330.983 208.083 330.151C208.403 329.318 208.957 328.596 209.679 328.073C210.4 327.549 211.259 327.246 212.149 327.2C212.793 327.167 213.437 327.269 214.04 327.501C214.642 327.733 215.189 328.088 215.645 328.545C216.101 329.001 216.457 329.548 216.688 330.151C216.92 330.753 217.022 331.398 216.989 332.042Z" fill="url(#paint19_linear_87_1451)"/>
<path d="M143.05 661.414C143.05 662.326 142.78 663.218 142.273 663.976C141.767 664.735 141.047 665.326 140.205 665.675C139.362 666.024 138.436 666.115 137.541 665.937C136.647 665.759 135.826 665.32 135.181 664.675C134.537 664.03 134.097 663.209 133.92 662.314C133.742 661.419 133.833 660.492 134.182 659.649C134.531 658.807 135.122 658.086 135.88 657.58C136.638 657.073 137.529 656.802 138.441 656.802C139.663 656.802 140.836 657.288 141.7 658.153C142.565 659.018 143.05 660.191 143.05 661.414Z" fill="url(#paint20_linear_87_1451)"/>
<path d="M439.263 662.613H428.2C427.43 662.613 426.692 662.307 426.147 661.762C425.602 661.217 425.296 660.478 425.296 659.708C425.308 658.945 425.62 658.218 426.163 657.683C426.706 657.148 427.438 656.849 428.2 656.849H439.263C440.026 656.849 440.758 657.148 441.301 657.683C441.844 658.218 442.155 658.945 442.168 659.708C442.168 660.478 441.862 661.217 441.317 661.762C440.772 662.307 440.034 662.613 439.263 662.613Z" fill="url(#paint21_linear_87_1451)"/>
<path d="M471.07 380.235H459.96C459.198 380.223 458.471 379.912 457.937 379.368C457.402 378.824 457.102 378.092 457.103 377.33C457.103 376.571 457.404 375.844 457.94 375.308C458.476 374.772 459.202 374.47 459.96 374.47H471.07C471.828 374.47 472.554 374.772 473.09 375.308C473.626 375.844 473.928 376.571 473.928 377.33C473.928 378.092 473.628 378.824 473.093 379.368C472.559 379.912 471.832 380.223 471.07 380.235Z" fill="url(#paint22_linear_87_1451)"/>
<path d="M142.774 624.013H131.895C131.125 624.013 130.386 623.707 129.842 623.162C129.297 622.617 128.991 621.878 128.991 621.107C129.003 620.345 129.315 619.618 129.858 619.083C130.401 618.548 131.133 618.248 131.895 618.248H142.958C143.721 618.248 144.452 618.548 144.996 619.083C145.539 619.618 145.85 620.345 145.862 621.107C145.863 621.505 145.782 621.898 145.625 622.264C145.468 622.629 145.237 622.957 144.948 623.23C144.658 623.502 144.316 623.712 143.942 623.847C143.568 623.982 143.171 624.038 142.774 624.013Z" fill="url(#paint23_linear_87_1451)"/>
<path style="mix-blend-mode:multiply" d="M300.468 808.483C300.468 822.826 259.397 834.493 208.691 834.493C157.986 834.493 116.868 822.826 116.868 808.483C116.868 794.141 157.986 782.427 208.691 782.427C259.397 782.427 300.468 793.864 300.468 808.483Z" fill="url(#paint24_radial_87_1451)"/>
<path d="M286.04 712.236C293.969 749.407 265.251 787.038 221.921 796.354C178.591 805.67 136.966 783.026 129.037 745.625C127.885 740.368 125.995 731.79 125.995 731.79L283.044 698.17C283.044 698.17 285.164 708.224 286.04 712.236Z" fill="url(#paint25_linear_87_1451)"/>
<path d="M218.854 782.385C262.219 773.1 290.931 735.449 282.981 698.289C275.032 661.129 233.433 638.532 190.067 647.818C146.701 657.103 117.99 694.754 125.939 731.914C133.889 769.074 175.488 791.671 218.854 782.385Z" fill="url(#paint26_linear_87_1451)"/>
<path d="M277.974 697.432C285.487 732.389 258.475 767.807 217.68 776.524C176.885 785.24 137.75 764.026 130.098 729.069C122.446 694.111 149.643 658.693 190.391 649.977C231.14 641.261 270.506 662.475 277.974 697.432Z" fill="url(#paint27_linear_87_1451)"/>
<path d="M214.947 763.869C246.911 757.025 268.09 729.348 262.25 702.051C256.411 674.754 225.765 658.173 193.801 665.018C161.837 671.862 140.658 699.539 146.497 726.836C152.337 754.133 182.982 770.713 214.947 763.869Z" fill="url(#paint28_linear_87_1451)"/>
<path d="M258.475 703.473C263.914 729.022 244.185 754.894 214.407 761.259C184.629 767.623 156.05 752.035 150.564 726.578C145.079 701.121 164.808 675.157 194.632 668.793C224.456 662.429 252.99 677.924 258.475 703.473Z" fill="url(#paint29_linear_87_1451)"/>
<path d="M256.769 704.949C261.886 728.976 242.941 753.465 214.038 759.598C185.136 765.732 157.847 751.251 152.731 727.316C147.614 703.381 166.56 678.8 195.416 672.667C224.272 666.533 251.745 680.922 256.769 704.949Z" fill="url(#paint30_linear_87_1451)"/>
<path d="M206.387 735.295C203.191 735.866 199.911 735.772 196.753 735.018C194.057 734.32 191.573 732.974 189.516 731.098L193.342 724.042C194.629 725.634 196.338 726.833 198.274 727.501C200.412 728.206 202.666 728.488 204.912 728.331L202.93 719.107C200.403 719.177 197.874 719.038 195.37 718.692C193.339 718.433 191.414 717.637 189.792 716.386C188.054 714.971 186.891 712.971 186.52 710.76C186.177 709.214 186.176 707.612 186.519 706.067C186.861 704.521 187.538 703.069 188.502 701.813C190.911 698.816 194.227 696.68 197.951 695.726L196.799 690.284L202.607 689.039L203.759 694.48C206.669 693.964 209.654 694.074 212.518 694.803C215.052 695.622 217.412 696.904 219.478 698.585L215.606 705.503C214.34 704.05 212.765 702.9 210.996 702.136C209.213 701.49 207.303 701.269 205.419 701.49L207.447 710.991C209.929 710.935 212.412 711.089 214.868 711.452C216.898 711.803 218.812 712.642 220.446 713.896C222.213 715.345 223.38 717.4 223.719 719.661C224.083 721.163 224.08 722.731 223.711 724.232C223.342 725.732 222.617 727.123 221.599 728.285C219.168 731.073 215.956 733.065 212.379 734.003L213.532 739.445L207.678 740.69L206.387 735.295ZM199.472 703.012C198.242 703.42 197.154 704.172 196.338 705.18C196.023 705.613 195.806 706.11 195.703 706.636C195.599 707.161 195.612 707.703 195.739 708.224C195.832 708.688 196.035 709.123 196.332 709.493C196.629 709.862 197.011 710.154 197.444 710.345C198.652 710.808 199.931 711.058 201.224 711.083L199.472 703.012ZM214.407 722.105C214.33 721.635 214.137 721.192 213.848 720.814C213.559 720.436 213.181 720.135 212.748 719.937C211.586 719.425 210.331 719.158 209.06 719.153L210.72 726.947C213.624 725.84 214.868 724.226 214.407 722.105Z" fill="#FFE4AB"/>
<path d="M206.018 733.496C202.838 734.133 199.563 734.133 196.383 733.496C193.671 732.781 191.173 731.42 189.1 729.53L192.972 722.474C194.246 724.081 195.96 725.283 197.905 725.932C200.03 726.69 202.296 726.973 204.542 726.763L202.56 717.539C200.033 717.608 197.505 717.469 195.001 717.124C192.979 716.86 191.059 716.082 189.423 714.864C187.675 713.438 186.511 711.419 186.15 709.192C185.795 707.654 185.789 706.057 186.132 704.516C186.475 702.976 187.158 701.532 188.132 700.291C190.459 697.301 193.695 695.148 197.351 694.157L196.43 688.577L202.284 687.332L203.436 692.774C206.347 692.248 209.338 692.374 212.194 693.143C214.732 693.953 217.094 695.236 219.155 696.924L215.237 703.796C213.966 702.348 212.392 701.199 210.627 700.429C208.861 699.777 206.961 699.571 205.096 699.83L207.124 709.053C209.608 709.012 212.09 709.182 214.545 709.561C216.578 709.874 218.497 710.699 220.123 711.959C221.89 713.408 223.057 715.463 223.396 717.724C223.759 719.233 223.757 720.808 223.388 722.316C223.019 723.824 222.294 725.223 221.275 726.394C218.839 729.165 215.627 731.14 212.056 732.066L213.208 737.508L207.354 738.753L206.018 733.496ZM199.103 701.213C197.875 701.626 196.788 702.377 195.969 703.381C195.657 703.816 195.442 704.312 195.338 704.838C195.235 705.363 195.245 705.904 195.369 706.425C195.455 706.892 195.656 707.331 195.954 707.702C196.251 708.072 196.637 708.362 197.075 708.546C198.266 709.01 199.53 709.259 200.809 709.284L199.103 701.213ZM214.038 720.306C213.953 719.839 213.758 719.399 213.469 719.022C213.181 718.645 212.807 718.343 212.379 718.139C211.207 717.657 209.957 717.391 208.691 717.355L210.351 725.148C213.255 724.088 214.499 722.474 214.038 720.306Z" fill="white"/>
<path d="M291.987 628.625L171.584 615.343C166.861 614.793 162.315 613.22 158.262 610.731C147.338 604.136 143.051 601.185 143.051 601.185L167.389 412.425C168.648 404.051 173.102 396.49 179.815 391.33C186.528 386.17 194.978 383.814 203.39 384.755L322.041 393.01C328.852 396.921 335.424 401.233 341.724 405.923C345.868 409.533 349.037 414.13 350.939 419.288C352.84 424.446 353.412 430 352.603 435.438L327.988 600.954C326.729 609.329 322.275 616.89 315.562 622.05C308.849 627.209 300.399 629.566 291.987 628.625Z" fill="url(#paint31_linear_87_1451)"/>
<path d="M319.967 391.949C326.045 400.552 329.749 410.605 330.708 421.095C330.93 430.077 331.901 439.024 333.612 447.843L349.284 458.22L352.557 435.991C353.322 430.936 352.885 425.771 351.284 420.916C349.682 416.061 346.96 411.651 343.338 408.044C336.389 401.548 328.513 396.124 319.967 391.949Z" fill="url(#paint32_linear_87_1451)"/>
<path d="M276.314 618.894L155.957 605.566C151.592 605.069 147.372 603.698 143.548 601.535C139.724 599.372 136.375 596.46 133.699 592.974C131.024 589.489 129.077 585.5 127.975 581.245C126.873 576.991 126.639 572.558 127.286 568.21L151.716 402.648C152.975 394.273 157.429 386.712 164.142 381.553C170.855 376.393 179.305 374.037 187.717 374.978L308.12 388.26C312.506 388.738 316.75 390.1 320.597 392.261C324.444 394.423 327.814 397.34 330.505 400.838C333.196 404.336 335.153 408.342 336.257 412.616C337.361 416.89 337.59 421.343 336.93 425.707L312.315 591.131C311.077 599.523 306.633 607.106 299.917 612.285C293.202 617.464 284.74 619.833 276.314 618.894Z" fill="white"/>
<path d="M308.12 388.306L187.718 374.978C179.305 374.037 170.855 376.393 164.142 381.553C157.429 386.712 152.976 394.273 151.717 402.648L148.213 426.399L333.611 447.797L336.93 425.615C337.57 421.261 337.326 416.822 336.212 412.565C335.098 408.307 333.139 404.318 330.449 400.836C327.76 397.353 324.397 394.449 320.56 392.296C316.724 390.143 312.493 388.786 308.12 388.306Z" fill="url(#paint33_linear_87_1451)"/>
<path d="M305.539 389.92L185.182 376.638C184.415 376.592 183.645 376.592 182.878 376.638C175.813 376.404 168.91 378.781 163.486 383.315C158.061 387.849 154.495 394.222 153.468 401.219L149.688 426.814L327.296 447.336L330.892 422.986C331.467 419.148 331.262 415.232 330.288 411.475C329.314 407.718 327.592 404.196 325.224 401.121C322.856 398.046 319.892 395.481 316.51 393.58C313.127 391.679 309.395 390.481 305.539 390.058V389.92Z" fill="url(#paint34_linear_87_1451)"/>
<path style="mix-blend-mode:screen" d="M276.913 612.852C276.161 612.9 275.407 612.9 274.655 612.852L154.252 599.571C150.395 599.148 146.664 597.95 143.281 596.049C139.899 594.148 136.935 591.583 134.567 588.508C132.199 585.433 130.477 581.911 129.503 578.154C128.529 574.397 128.324 570.481 128.899 566.643L153.468 401.219C154.495 394.222 158.061 387.849 163.486 383.315C168.91 378.781 175.813 376.404 182.878 376.638C183.645 376.592 184.415 376.592 185.182 376.638L305.539 389.92C309.396 390.343 313.127 391.541 316.51 393.442C319.893 395.343 322.857 397.908 325.224 400.983C327.592 404.058 329.314 407.579 330.288 411.337C331.262 415.094 331.467 419.009 330.892 422.848L306.323 588.272C305.286 595.264 301.718 601.631 296.295 606.163C290.873 610.695 283.975 613.076 276.913 612.852Z" fill="url(#paint35_linear_87_1451)"/>
<path d="M163.333 581.815L143.327 579.601C140.84 579.312 138.569 578.047 137.014 576.085C135.458 574.122 134.744 571.621 135.03 569.133L136.828 554.836C136.965 553.685 137.328 552.571 137.896 551.56C138.464 550.55 139.226 549.661 140.138 548.945C141.05 548.23 142.095 547.701 143.212 547.391C144.328 547.08 145.496 546.993 146.646 547.135L166.652 549.348C167.895 549.461 169.103 549.825 170.202 550.419C171.301 551.013 172.267 551.824 173.043 552.803C173.819 553.782 174.388 554.909 174.716 556.114C175.043 557.32 175.123 558.58 174.949 559.817L173.151 574.113C173.014 575.265 172.651 576.378 172.083 577.389C171.515 578.4 170.753 579.289 169.841 580.004C168.929 580.72 167.884 581.248 166.767 581.559C165.651 581.87 164.483 581.957 163.333 581.815Z" fill="#535A74"/>
<path d="M204.957 587.119L184.952 584.905C183.712 584.787 182.509 584.418 181.416 583.821C180.323 583.225 179.361 582.413 178.59 581.435C177.819 580.456 177.254 579.332 176.929 578.129C176.605 576.926 176.527 575.67 176.701 574.436L178.544 560.14C178.681 558.982 179.046 557.863 179.616 556.847C180.186 555.83 180.952 554.936 181.868 554.216C182.785 553.497 183.834 552.965 184.957 552.652C186.079 552.339 187.252 552.251 188.409 552.392L208.415 554.606C209.659 554.724 210.866 555.094 211.963 555.693C213.059 556.293 214.023 557.109 214.795 558.092C215.566 559.076 216.13 560.206 216.452 561.414C216.774 562.623 216.846 563.884 216.666 565.121L214.822 579.371C214.534 581.704 213.334 583.828 211.486 585.28C209.638 586.731 207.291 587.392 204.957 587.119Z" fill="#535A74"/>
<path d="M246.536 592.33L226.53 590.116C225.29 589.992 224.088 589.618 222.997 589.016C221.905 588.414 220.947 587.597 220.18 586.614C219.413 585.631 218.854 584.503 218.535 583.298C218.216 582.093 218.145 580.835 218.325 579.601L220.261 565.305C220.572 562.977 221.786 560.864 223.64 559.423C225.494 557.982 227.84 557.328 230.172 557.603L250.178 559.817C251.413 559.941 252.611 560.314 253.699 560.913C254.787 561.512 255.743 562.325 256.509 563.303C257.275 564.28 257.836 565.403 258.158 566.603C258.48 567.803 258.557 569.055 258.383 570.286L256.447 584.582C256.147 586.919 254.938 589.043 253.083 590.494C251.227 591.944 248.875 592.604 246.536 592.33Z" fill="#535A74"/>
<path d="M288.16 597.587L268.155 595.328C266.923 595.197 265.731 594.82 264.648 594.219C263.565 593.617 262.615 592.804 261.853 591.827C261.092 590.85 260.535 589.729 260.216 588.532C259.897 587.335 259.822 586.086 259.996 584.859L261.978 570.562C262.353 568.255 263.59 566.177 265.438 564.747C267.287 563.318 269.609 562.643 271.935 562.861L291.94 565.074C293.172 565.205 294.365 565.582 295.447 566.183C296.53 566.785 297.48 567.598 298.242 568.575C299.003 569.552 299.56 570.673 299.879 571.87C300.199 573.067 300.273 574.316 300.099 575.543L298.117 589.84C297.752 592.155 296.52 594.245 294.671 595.684C292.821 597.123 290.493 597.803 288.16 597.587Z" fill="#535A74"/>
<path d="M168.403 545.89L148.398 543.676C145.907 543.375 143.636 542.101 142.081 540.131C140.527 538.161 139.815 535.655 140.1 533.161L141.898 518.911C142.03 517.755 142.388 516.637 142.954 515.621C143.52 514.604 144.281 513.71 145.194 512.99C146.107 512.27 147.153 511.737 148.273 511.424C149.392 511.11 150.563 511.022 151.717 511.163L171.722 513.377C174.209 513.666 176.48 514.931 178.036 516.894C179.592 518.856 180.305 521.357 180.02 523.845L178.222 538.142C177.945 540.471 176.755 542.595 174.914 544.047C173.074 545.5 170.732 546.163 168.403 545.89Z" fill="#535A74"/>
<path d="M210.259 551.147L190.253 548.887C189.013 548.768 187.811 548.4 186.717 547.803C185.624 547.207 184.663 546.395 183.892 545.417C183.12 544.438 182.555 543.314 182.231 542.111C181.906 540.908 181.828 539.652 182.002 538.418L183.846 524.122C184.145 521.797 185.349 519.685 187.196 518.243C189.043 516.801 191.384 516.146 193.71 516.42L213.716 518.634C214.956 518.753 216.158 519.121 217.252 519.718C218.345 520.314 219.306 521.126 220.077 522.104C220.848 523.083 221.413 524.207 221.738 525.41C222.063 526.613 222.141 527.869 221.967 529.103L220.123 543.399C219.823 545.727 218.621 547.844 216.776 549.293C214.931 550.742 212.59 551.408 210.259 551.147Z" fill="#535A74"/>
<path d="M251.745 556.358L231.739 554.145C230.504 554.02 229.306 553.647 228.218 553.048C227.13 552.449 226.174 551.637 225.408 550.659C224.641 549.681 224.081 548.559 223.759 547.359C223.437 546.159 223.36 544.906 223.534 543.676L225.47 529.38C225.781 527.051 226.994 524.939 228.848 523.498C230.703 522.057 233.049 521.403 235.381 521.678L255.386 523.892C256.622 524.016 257.82 524.389 258.908 524.988C259.996 525.587 260.952 526.4 261.718 527.377C262.484 528.355 263.045 529.478 263.367 530.678C263.689 531.877 263.765 533.13 263.592 534.36L261.655 548.657C261.345 550.985 260.131 553.098 258.277 554.539C256.423 555.98 254.077 556.633 251.745 556.358Z" fill="#535A74"/>
<path d="M293.231 561.616L273.226 559.448C271.994 559.318 270.801 558.941 269.719 558.339C268.636 557.738 267.685 556.924 266.924 555.947C266.162 554.97 265.606 553.849 265.286 552.652C264.967 551.455 264.893 550.206 265.067 548.979L267.049 534.683C267.414 532.367 268.646 530.278 270.495 528.839C272.345 527.4 274.672 526.719 277.005 526.935L297.011 529.149C298.247 529.278 299.444 529.657 300.53 530.261C301.616 530.866 302.569 531.684 303.331 532.666C304.093 533.648 304.649 534.774 304.965 535.977C305.281 537.179 305.351 538.433 305.17 539.664L303.188 553.96C302.802 556.259 301.561 558.326 299.714 559.746C297.867 561.166 295.551 561.834 293.231 561.616Z" fill="#535A74"/>
<path d="M174.027 509.549L154.022 507.335C152.778 507.222 151.57 506.858 150.471 506.264C149.373 505.67 148.406 504.859 147.63 503.88C146.854 502.901 146.285 501.775 145.958 500.569C145.63 499.363 145.551 498.104 145.724 496.867L147.522 482.57C147.659 481.419 148.022 480.305 148.59 479.294C149.158 478.283 149.92 477.395 150.832 476.679C151.745 475.963 152.789 475.435 153.906 475.124C155.023 474.814 156.19 474.727 157.341 474.868L177.346 477.082C178.59 477.195 179.798 477.559 180.896 478.153C181.995 478.747 182.962 479.558 183.738 480.537C184.514 481.516 185.083 482.643 185.41 483.848C185.738 485.054 185.817 486.314 185.643 487.551L183.892 501.847C183.592 504.172 182.388 506.284 180.542 507.726C178.695 509.168 176.354 509.823 174.027 509.549Z" fill="#535A74"/>
<path d="M215.652 514.806L195.646 512.592C194.39 512.497 193.167 512.146 192.053 511.56C190.938 510.973 189.955 510.165 189.164 509.184C188.374 508.203 187.793 507.071 187.457 505.856C187.121 504.642 187.037 503.372 187.211 502.124L189.054 487.827C189.354 485.499 190.556 483.383 192.402 481.933C194.247 480.484 196.588 479.818 198.919 480.08L218.925 482.293C220.169 482.411 221.376 482.781 222.473 483.381C223.569 483.98 224.533 484.796 225.305 485.78C226.076 486.763 226.64 487.893 226.962 489.102C227.284 490.31 227.356 491.571 227.176 492.808L225.332 507.104C225.032 509.394 223.854 511.476 222.048 512.913C220.242 514.35 217.949 515.029 215.652 514.806Z" fill="#535A74"/>
<path d="M257.23 520.064L237.271 517.942C236.027 517.824 234.819 517.454 233.723 516.855C232.626 516.255 231.662 515.439 230.891 514.456C230.119 513.472 229.555 512.342 229.233 511.134C228.912 509.926 228.839 508.665 229.02 507.428L230.956 493.177C231.255 490.84 232.464 488.716 234.319 487.266C236.175 485.815 238.527 485.155 240.866 485.429L260.872 487.643C262.107 487.768 263.305 488.14 264.393 488.739C265.481 489.338 266.437 490.151 267.203 491.129C267.97 492.107 268.531 493.229 268.853 494.429C269.174 495.629 269.251 496.882 269.077 498.112L267.141 512.408C266.819 514.728 265.601 516.829 263.748 518.261C261.895 519.692 259.555 520.34 257.23 520.064Z" fill="#535A74"/>
<path d="M298.855 525.321L278.849 523.108C277.613 522.978 276.416 522.599 275.33 521.995C274.244 521.391 273.291 520.573 272.529 519.59C271.767 518.608 271.211 517.482 270.895 516.28C270.579 515.077 270.51 513.823 270.69 512.593L272.672 498.296C273.048 495.989 274.285 493.911 276.133 492.481C277.981 491.052 280.303 490.377 282.629 490.595L302.635 492.808C303.866 492.939 305.059 493.316 306.142 493.917C307.224 494.519 308.175 495.332 308.936 496.309C309.698 497.286 310.255 498.407 310.574 499.604C310.893 500.801 310.968 502.05 310.794 503.277L308.812 517.573C308.447 519.889 307.214 521.978 305.365 523.418C303.516 524.857 301.188 525.537 298.855 525.321Z" fill="#535A74"/>
<path d="M178.821 473.347L158.815 471.087C157.571 470.974 156.364 470.61 155.265 470.016C154.166 469.422 153.2 468.611 152.424 467.632C151.648 466.653 151.079 465.526 150.751 464.321C150.424 463.115 150.344 461.855 150.518 460.618L152.316 446.322C152.453 445.17 152.815 444.057 153.384 443.046C153.952 442.035 154.714 441.146 155.626 440.431C156.538 439.715 157.583 439.187 158.7 438.876C159.816 438.565 160.983 438.478 162.134 438.62L182.14 440.834C184.627 441.123 186.898 442.388 188.453 444.35C190.009 446.313 190.722 448.814 190.437 451.302L188.639 465.599C188.351 467.923 187.158 470.039 185.32 471.49C183.482 472.94 181.147 473.607 178.821 473.347Z" fill="#535A74"/>
<path d="M220.4 478.558L200.441 476.436C199.197 476.324 197.989 475.959 196.89 475.365C195.792 474.771 194.825 473.96 194.049 472.981C193.273 472.002 192.704 470.876 192.377 469.67C192.049 468.465 191.97 467.205 192.143 465.968L194.033 451.671C194.321 449.342 195.522 447.222 197.372 445.777C199.222 444.333 201.569 443.683 203.898 443.97L223.903 446.183C225.143 446.302 226.346 446.671 227.439 447.267C228.533 447.864 229.494 448.675 230.265 449.654C231.036 450.632 231.601 451.757 231.926 452.959C232.25 454.162 232.328 455.418 232.155 456.652L230.311 470.948C229.978 473.26 228.755 475.35 226.904 476.772C225.052 478.193 222.718 478.834 220.4 478.558Z" fill="#535A74"/>
<path d="M262.024 483.815L242.019 481.602C240.783 481.477 239.585 481.104 238.497 480.505C237.409 479.906 236.453 479.094 235.687 478.116C234.921 477.138 234.36 476.016 234.038 474.816C233.716 473.616 233.64 472.363 233.813 471.133L235.75 456.836C236.114 454.53 237.34 452.447 239.179 451.009C241.019 449.571 243.335 448.885 245.66 449.089L265.666 451.348C266.901 451.473 268.099 451.846 269.187 452.445C270.275 453.044 271.231 453.856 271.997 454.834C272.764 455.812 273.325 456.934 273.646 458.134C273.968 459.334 274.045 460.587 273.871 461.817L271.935 476.114C271.624 478.442 270.411 480.555 268.557 481.996C266.702 483.437 264.356 484.09 262.024 483.815Z" fill="#535A74"/>
<path d="M303.603 489.073L283.643 486.859C282.412 486.734 281.219 486.363 280.134 485.767C279.049 485.171 278.096 484.362 277.33 483.39C276.564 482.417 276.002 481.3 275.677 480.106C275.352 478.911 275.271 477.663 275.438 476.437L277.466 462.14C277.831 459.825 279.064 457.735 280.913 456.296C282.762 454.857 285.09 454.176 287.423 454.392L307.429 456.606C308.674 456.735 309.879 457.116 310.973 457.726C312.066 458.336 313.023 459.163 313.786 460.155C314.55 461.148 315.103 462.285 315.413 463.499C315.723 464.712 315.782 465.976 315.588 467.213L313.605 481.509C313.199 483.8 311.942 485.852 310.087 487.254C308.232 488.657 305.916 489.306 303.603 489.073Z" fill="#535A74"/>
<path d="M297.841 433.732L180.481 420.496C177.994 420.207 175.723 418.942 174.167 416.979C172.612 415.016 171.898 412.516 172.184 410.027L173.981 395.731C174.259 393.402 175.448 391.278 177.289 389.825C179.13 388.373 181.471 387.71 183.8 387.983L301.16 401.219C303.647 401.508 305.918 402.773 307.474 404.736C309.029 406.699 309.743 409.199 309.457 411.687L307.66 425.984C307.383 428.313 306.193 430.437 304.352 431.89C302.511 433.342 300.17 434.005 297.841 433.732Z" fill="#44464D"/>
<path d="M399.528 569.871L390.309 578.218L410.361 600.446L419.58 592.099C422.761 589.24 420.825 581.953 415.293 575.82C409.762 569.686 402.709 567.011 399.528 569.871Z" fill="url(#paint36_linear_87_1451)"/>
<path d="M403.493 586.473C410.638 594.405 413.865 603.168 410.684 606.027C407.504 608.886 399.16 604.782 392.246 596.803C385.331 588.825 381.874 580.155 385.055 577.296C388.235 574.436 396.348 578.587 403.493 586.473Z" fill="url(#paint37_linear_87_1451)"/>
<path d="M382.708 576.528L367.972 589.876L393.853 618.474L408.589 605.126L382.708 576.528Z" fill="url(#paint38_linear_87_1451)"/>
<path d="M388.696 599.847C395.887 607.779 399.114 616.495 395.933 619.355C392.753 622.214 384.409 618.11 377.265 610.131C370.12 602.153 366.847 593.437 370.028 590.577C373.208 587.718 381.552 591.73 388.696 599.847Z" fill="#D8D1E1"/>
<path d="M307.982 648.916L291.434 688.024L331.906 675.895C332.465 672.304 332.167 668.631 331.038 665.177C329.908 661.723 327.979 658.585 325.406 656.018C316.279 646.011 307.982 648.916 307.982 648.916Z" fill="#FFF4E6"/>
<path d="M307.936 648.916L371.595 591.131L380.122 593.667L316.464 651.453L307.936 648.916Z" fill="#FDFF8F"/>
<path d="M327.02 661.414L390.632 603.629L380.122 593.667L316.464 651.453L327.02 661.414Z" fill="#FFDF6F"/>
<path d="M332.275 672.943L395.887 615.158L390.632 603.629L327.02 661.414L332.275 672.943Z" fill="#FFBB33"/>
<path d="M331.906 675.895L395.518 618.109L395.887 615.158L332.275 672.943L331.906 675.895Z" fill="#FDFF8F"/>
<path d="M316.464 651.453L291.434 688.024L307.936 648.916L316.464 651.453Z" fill="#FFFBF5"/>
<path d="M332.275 672.943L291.434 688.024L331.906 675.895L332.275 672.943Z" fill="#FFFBF5"/>
<path d="M327.02 661.414L291.434 688.024L332.275 672.943L327.02 661.414Z" fill="#F5E8D5"/>
<path d="M291.434 688.024L294.66 680.368C295.839 680.801 296.876 681.551 297.657 682.536C298.566 683.351 299.195 684.432 299.454 685.626L291.434 688.024Z" fill="#331829"/>
<path d="M369.244 593.252C369.232 592.508 369.485 591.784 369.958 591.21C370.431 590.635 371.093 590.248 371.825 590.116C374.268 589.425 381.413 592.33 388.143 599.755C392.742 604.206 395.809 610.003 396.901 616.311C396.914 617.23 396.571 618.118 395.944 618.788C395.316 619.459 394.453 619.861 393.536 619.908L395.472 618.156L395.841 615.25L390.586 603.675L380.076 593.713L371.594 591.131L369.244 593.252Z" fill="#B59A67"/>
<path d="M229.158 416.853L229.712 412.241C229.713 412.073 229.753 411.908 229.828 411.757C229.903 411.607 230.011 411.476 230.145 411.374C230.278 411.271 230.433 411.201 230.597 411.167C230.762 411.134 230.932 411.138 231.094 411.18C231.257 411.183 231.418 411.223 231.564 411.295C231.71 411.367 231.838 411.471 231.939 411.599C232.041 411.727 232.113 411.875 232.15 412.034C232.187 412.193 232.189 412.358 232.155 412.518L231.417 418.605C231.407 418.77 231.362 418.931 231.285 419.077C231.207 419.223 231.099 419.351 230.968 419.452C230.837 419.552 230.685 419.623 230.524 419.66C230.363 419.697 230.196 419.699 230.034 419.666L220.815 418.513C220.652 418.51 220.492 418.47 220.346 418.398C220.2 418.326 220.071 418.222 219.97 418.094C219.869 417.966 219.797 417.818 219.76 417.659C219.722 417.5 219.721 417.335 219.755 417.176C219.758 417.012 219.797 416.852 219.87 416.706C219.942 416.56 220.046 416.431 220.173 416.33C220.301 416.229 220.45 416.157 220.608 416.12C220.767 416.082 220.932 416.081 221.092 416.115L224.641 416.53L226.3 402.695L222.751 402.28C222.594 402.258 222.442 402.206 222.305 402.126C222.167 402.047 222.047 401.941 221.951 401.814C221.756 401.559 221.671 401.237 221.714 400.919C221.757 400.601 221.924 400.313 222.179 400.118C222.434 399.924 222.756 399.839 223.074 399.881L228.974 400.573L226.807 416.484L229.158 416.853Z" fill="#59FF00"/>
<path d="M173.013 462.601L173.382 457.989C173.384 457.821 173.423 457.656 173.498 457.506C173.574 457.355 173.682 457.224 173.815 457.122C173.948 457.02 174.103 456.949 174.268 456.916C174.432 456.882 174.602 456.887 174.765 456.929C174.931 456.923 175.096 456.956 175.246 457.026C175.397 457.095 175.529 457.2 175.632 457.33C175.736 457.46 175.807 457.612 175.84 457.775C175.874 457.938 175.868 458.106 175.825 458.266L175.087 464.354C175.077 464.514 175.033 464.67 174.958 464.813C174.883 464.955 174.78 465.08 174.654 465.18C174.528 465.28 174.382 465.352 174.227 465.393C174.071 465.433 173.909 465.44 173.751 465.414L164.255 464.261C164.092 464.258 163.932 464.219 163.786 464.147C163.64 464.074 163.511 463.97 163.41 463.843C163.309 463.715 163.237 463.566 163.2 463.407C163.162 463.249 163.161 463.084 163.195 462.924C163.198 462.761 163.237 462.601 163.309 462.454C163.382 462.308 163.486 462.18 163.613 462.079C163.741 461.977 163.89 461.905 164.048 461.868C164.207 461.831 164.372 461.829 164.532 461.863L168.081 462.278L169.74 448.443L166.191 448.028C166.031 448.017 165.874 447.973 165.732 447.898C165.59 447.824 165.465 447.72 165.365 447.594C165.265 447.468 165.193 447.323 165.152 447.167C165.112 447.012 165.105 446.849 165.131 446.691C165.141 446.526 165.186 446.365 165.263 446.218C165.341 446.072 165.449 445.945 165.58 445.844C165.711 445.744 165.862 445.672 166.024 445.635C166.185 445.598 166.352 445.597 166.514 445.63L172.46 446.322L170.662 462.601H173.013Z" fill="white"/>
<path d="M239.391 418.098L247.689 419.112C247.846 419.131 247.998 419.18 248.137 419.257C248.275 419.334 248.397 419.437 248.496 419.561C248.594 419.686 248.667 419.828 248.71 419.98C248.754 420.133 248.767 420.292 248.749 420.45C248.731 420.607 248.682 420.76 248.605 420.898C248.528 421.037 248.424 421.159 248.3 421.257C248.176 421.356 248.033 421.429 247.881 421.472C247.729 421.516 247.569 421.529 247.412 421.511L236.718 420.219L237.64 412.379C237.635 412.005 237.717 411.634 237.878 411.297C238.04 410.959 238.277 410.662 238.571 410.431C238.865 410.199 239.208 410.038 239.574 409.96C239.94 409.882 240.319 409.889 240.682 409.981L247.458 410.811L248.15 405.047L239.852 404.032C239.689 404.029 239.529 403.99 239.383 403.917C239.237 403.845 239.109 403.741 239.007 403.613C238.906 403.485 238.834 403.337 238.797 403.178C238.76 403.019 238.758 402.854 238.792 402.695C238.802 402.529 238.847 402.368 238.925 402.222C239.002 402.076 239.11 401.949 239.241 401.848C239.372 401.747 239.524 401.676 239.685 401.639C239.846 401.602 240.013 401.6 240.175 401.634L248.15 402.602C248.512 402.615 248.867 402.703 249.193 402.862C249.518 403.021 249.807 403.247 250.039 403.525C250.282 403.833 250.45 404.193 250.53 404.577C250.61 404.961 250.6 405.359 250.5 405.738L249.901 410.673C249.914 411.071 249.833 411.466 249.665 411.826C249.496 412.187 249.246 412.502 248.933 412.748C248.633 412.952 248.294 413.094 247.938 413.166C247.582 413.237 247.215 413.236 246.859 413.163L240.083 412.333L239.391 418.098Z" fill="#59FF00"/>
<path d="M207.907 467.582L216.205 468.597C216.362 468.615 216.514 468.664 216.653 468.741C216.791 468.818 216.913 468.921 217.012 469.046C217.11 469.17 217.183 469.312 217.227 469.465C217.27 469.617 217.283 469.776 217.265 469.934C217.247 470.091 217.198 470.244 217.121 470.382C217.044 470.521 216.94 470.643 216.816 470.741C216.692 470.84 216.55 470.913 216.397 470.956C216.245 471 216.085 471.013 215.928 470.995L205.234 469.703L206.156 461.863C206.151 461.489 206.233 461.118 206.395 460.781C206.556 460.443 206.793 460.147 207.087 459.915C207.381 459.683 207.724 459.522 208.09 459.444C208.456 459.366 208.835 459.373 209.198 459.465L215.974 460.295L216.666 454.531L208.368 453.516C208.205 453.513 208.045 453.474 207.899 453.401C207.753 453.329 207.625 453.225 207.523 453.097C207.422 452.969 207.35 452.821 207.313 452.662C207.276 452.503 207.274 452.338 207.308 452.179C207.318 452.014 207.363 451.853 207.441 451.707C207.518 451.56 207.626 451.433 207.757 451.332C207.889 451.232 208.04 451.16 208.201 451.123C208.362 451.086 208.529 451.085 208.691 451.118L216.666 452.086C217.028 452.099 217.383 452.187 217.709 452.346C218.034 452.505 218.323 452.731 218.556 453.009C218.798 453.317 218.966 453.677 219.046 454.061C219.126 454.445 219.116 454.843 219.017 455.222L218.417 460.157C218.43 460.555 218.349 460.95 218.181 461.31C218.013 461.671 217.762 461.987 217.449 462.232C217.156 462.433 216.825 462.573 216.477 462.644C216.129 462.715 215.77 462.717 215.421 462.647L208.599 461.863L207.907 467.582Z" fill="white"/>
<path d="M257.185 406.107C257.023 406.106 256.863 406.067 256.718 405.995C256.573 405.922 256.447 405.817 256.349 405.688C256.251 405.559 256.184 405.409 256.153 405.25C256.122 405.09 256.128 404.926 256.171 404.77C256.174 404.607 256.213 404.446 256.285 404.3C256.358 404.154 256.461 404.026 256.589 403.924C256.717 403.823 256.865 403.751 257.024 403.714C257.183 403.677 257.348 403.675 257.507 403.709L265.758 404.724C266.079 404.745 266.392 404.833 266.676 404.983C266.961 405.132 267.211 405.34 267.41 405.592C267.61 405.843 267.755 406.134 267.836 406.446C267.916 406.757 267.931 407.081 267.879 407.399L267.326 412.01C267.319 412.455 267.206 412.892 266.998 413.284C266.79 413.677 266.491 414.015 266.127 414.27C266.421 414.597 266.633 414.989 266.745 415.414C266.857 415.839 266.867 416.285 266.773 416.714L266.219 421.326C266.191 421.644 266.099 421.953 265.947 422.235C265.796 422.516 265.589 422.763 265.339 422.962C265.088 423.16 264.8 423.306 264.492 423.389C264.184 423.473 263.862 423.493 263.546 423.447L255.249 422.433C255.086 422.43 254.925 422.39 254.779 422.318C254.633 422.246 254.505 422.142 254.404 422.014C254.302 421.886 254.23 421.738 254.193 421.579C254.156 421.42 254.154 421.255 254.188 421.095C254.192 420.932 254.231 420.772 254.303 420.626C254.376 420.48 254.479 420.351 254.607 420.25C254.735 420.149 254.883 420.077 255.042 420.04C255.201 420.002 255.366 420.001 255.525 420.035L263.822 421.049L264.283 417.037C264.283 415.7 263.961 415.239 263.315 415.146L258.706 414.593C258.541 414.583 258.38 414.538 258.234 414.46C258.088 414.383 257.96 414.275 257.86 414.143C257.759 414.012 257.688 413.861 257.651 413.7C257.614 413.539 257.612 413.371 257.646 413.209C257.662 413.047 257.712 412.89 257.792 412.747C257.871 412.605 257.979 412.48 258.109 412.381C258.238 412.282 258.386 412.21 258.545 412.17C258.703 412.13 258.867 412.123 259.028 412.149L263.638 412.748C264.33 412.748 264.883 412.471 265.067 411.134L265.574 407.26L257.185 406.107Z" fill="#59FF00"/>
<path d="M249.717 458.866C249.552 458.856 249.391 458.811 249.245 458.733C249.099 458.656 248.971 458.548 248.871 458.416C248.77 458.285 248.699 458.134 248.662 457.973C248.625 457.811 248.623 457.644 248.657 457.482C248.667 457.322 248.711 457.165 248.786 457.023C248.861 456.881 248.964 456.756 249.09 456.656C249.216 456.556 249.362 456.484 249.517 456.443C249.673 456.403 249.835 456.395 249.993 456.422L258.291 457.436C258.932 457.517 259.515 457.848 259.913 458.358C260.31 458.868 260.489 459.515 260.411 460.157L259.858 464.769C259.831 465.208 259.706 465.635 259.49 466.019C259.275 466.402 258.975 466.732 258.613 466.982C258.904 467.311 259.114 467.704 259.226 468.128C259.338 468.552 259.349 468.997 259.259 469.427L258.705 474.038C258.684 474.359 258.596 474.672 258.446 474.957C258.297 475.241 258.09 475.491 257.838 475.691C257.586 475.891 257.296 476.036 256.984 476.117C256.673 476.197 256.349 476.212 256.032 476.16L247.735 475.191C247.449 475.112 247.201 474.934 247.035 474.688C246.869 474.443 246.796 474.146 246.829 473.851C246.863 473.556 247 473.283 247.217 473.081C247.433 472.879 247.715 472.76 248.011 472.747L256.308 473.762L256.816 469.75C256.816 468.412 256.493 467.951 255.801 467.859L251.192 467.305C251.029 467.302 250.869 467.263 250.722 467.19C250.576 467.118 250.448 467.014 250.347 466.886C250.246 466.759 250.174 466.61 250.136 466.451C250.099 466.292 250.098 466.127 250.132 465.968C250.135 465.805 250.174 465.644 250.246 465.498C250.319 465.352 250.422 465.224 250.55 465.122C250.678 465.021 250.827 464.949 250.985 464.912C251.144 464.875 251.309 464.873 251.468 464.907L256.078 465.461C256.769 465.461 257.323 465.184 257.507 463.846L257.968 459.834L249.717 458.866Z" fill="white"/>
<path d="M280.693 416.852L281.523 409.889C281.544 409.731 281.596 409.579 281.676 409.442C281.756 409.305 281.862 409.184 281.988 409.088C282.114 408.992 282.258 408.921 282.412 408.881C282.565 408.84 282.725 408.83 282.883 408.851C283.04 408.872 283.192 408.924 283.329 409.004C283.466 409.084 283.587 409.19 283.683 409.316C283.779 409.443 283.85 409.587 283.89 409.74C283.931 409.894 283.941 410.054 283.92 410.211L283.09 417.129C283.376 417.208 283.624 417.386 283.79 417.632C283.956 417.878 284.029 418.175 283.996 418.469C283.962 418.764 283.825 419.037 283.608 419.24C283.392 419.442 283.11 419.56 282.814 419.573L282.214 424.462C282.196 424.619 282.147 424.772 282.07 424.91C281.993 425.049 281.89 425.171 281.766 425.269C281.641 425.368 281.499 425.441 281.347 425.484C281.194 425.528 281.035 425.541 280.878 425.522C280.72 425.504 280.568 425.455 280.429 425.378C280.291 425.301 280.169 425.198 280.071 425.073C279.972 424.949 279.899 424.807 279.856 424.654C279.812 424.502 279.799 424.343 279.817 424.185L280.417 419.251L273.318 418.42L274.701 406.983C274.704 406.82 274.743 406.66 274.816 406.514C274.888 406.368 274.992 406.239 275.119 406.138C275.247 406.036 275.396 405.965 275.554 405.927C275.713 405.89 275.878 405.889 276.038 405.923C276.205 405.924 276.371 405.964 276.521 406.039C276.671 406.114 276.802 406.223 276.905 406.356C277.007 406.489 277.077 406.644 277.111 406.809C277.144 406.973 277.14 407.143 277.098 407.306L276.038 416.53L280.693 416.852Z" fill="#59FF00"/>
<path d="M166.975 493.315L167.851 486.352C167.854 486.189 167.893 486.028 167.965 485.882C168.038 485.736 168.141 485.608 168.269 485.506C168.397 485.405 168.545 485.333 168.704 485.296C168.863 485.259 169.028 485.257 169.187 485.291C169.352 485.301 169.513 485.346 169.659 485.424C169.805 485.501 169.933 485.609 170.033 485.74C170.134 485.872 170.205 486.023 170.242 486.184C170.279 486.345 170.281 486.512 170.248 486.674L169.418 493.638C169.581 493.641 169.741 493.681 169.887 493.753C170.033 493.825 170.161 493.929 170.263 494.057C170.364 494.185 170.436 494.333 170.473 494.492C170.51 494.651 170.512 494.816 170.478 494.976C170.468 495.141 170.423 495.302 170.345 495.448C170.268 495.594 170.16 495.721 170.029 495.822C169.898 495.923 169.746 495.994 169.585 496.031C169.424 496.068 169.257 496.07 169.095 496.036L168.772 500.925C168.772 501.709 168.265 502.078 167.39 501.985C167.224 501.991 167.059 501.958 166.908 501.888C166.757 501.819 166.625 501.715 166.522 501.585C166.419 501.454 166.348 501.302 166.314 501.139C166.281 500.977 166.286 500.808 166.329 500.648L166.929 495.713L159.553 494.883L160.89 483.492C160.892 483.324 160.932 483.159 161.007 483.009C161.082 482.858 161.19 482.727 161.323 482.625C161.456 482.523 161.611 482.452 161.776 482.419C161.94 482.385 162.11 482.39 162.273 482.432C162.436 482.435 162.596 482.474 162.742 482.546C162.888 482.619 163.017 482.723 163.118 482.85C163.219 482.978 163.291 483.127 163.328 483.286C163.365 483.444 163.367 483.61 163.333 483.769L162.227 492.993L166.975 493.315Z" fill="white"/>
<path d="M294.799 416.483L299.408 416.991C299.762 417.012 300.107 417.105 300.424 417.263C300.741 417.422 301.023 417.643 301.252 417.913C301.498 418.201 301.672 418.544 301.761 418.913C301.849 419.282 301.848 419.666 301.759 420.035L301.114 425.2C301.099 425.879 300.818 426.525 300.33 426.998C300.038 427.272 299.684 427.469 299.298 427.574C298.913 427.678 298.507 427.687 298.117 427.598L292.77 426.952C292.224 426.845 291.706 426.625 291.249 426.307L290.373 425.799C289.774 425.43 289.083 425.107 289.175 424.277C289.22 423.972 289.377 423.694 289.616 423.498C289.854 423.302 290.157 423.202 290.466 423.217C290.727 423.26 290.978 423.354 291.203 423.493L291.895 423.908C292.268 424.195 292.69 424.414 293.139 424.554L298.671 425.2L299.362 419.435L292.263 418.605L293.554 408.044L301.851 409.012C302.012 409.023 302.168 409.067 302.31 409.142C302.452 409.217 302.577 409.32 302.677 409.446C302.777 409.572 302.849 409.718 302.89 409.873C302.93 410.029 302.938 410.191 302.911 410.35C302.908 410.513 302.869 410.673 302.797 410.819C302.724 410.966 302.621 411.094 302.493 411.195C302.365 411.297 302.217 411.368 302.058 411.406C301.899 411.443 301.734 411.445 301.575 411.411L295.674 410.719L294.799 416.483Z" fill="#59FF00"/>
<path d="M205.649 496.083L210.259 496.636C210.615 496.643 210.966 496.729 211.285 496.889C211.604 497.048 211.883 497.277 212.103 497.558C212.349 497.847 212.523 498.189 212.611 498.558C212.699 498.927 212.699 499.311 212.61 499.68L211.964 504.845C211.94 505.522 211.66 506.165 211.181 506.644C210.885 506.909 210.528 507.098 210.143 507.194C209.757 507.291 209.354 507.292 208.968 507.197L203.621 506.551C203.072 506.481 202.549 506.275 202.1 505.952L201.224 505.398C200.625 505.076 199.933 504.753 200.025 503.923C200.06 503.613 200.215 503.328 200.456 503.13C200.697 502.932 201.005 502.836 201.316 502.862C201.588 502.856 201.852 502.955 202.054 503.139L202.745 503.508C203.119 503.794 203.54 504.013 203.99 504.153L209.521 504.845L210.213 499.08L203.114 498.204L204.405 487.643L212.702 488.658C212.865 488.661 213.025 488.7 213.171 488.772C213.317 488.845 213.446 488.949 213.547 489.077C213.648 489.204 213.72 489.353 213.757 489.512C213.794 489.67 213.796 489.836 213.762 489.995C213.759 490.158 213.72 490.318 213.647 490.465C213.575 490.611 213.471 490.739 213.343 490.84C213.216 490.942 213.067 491.014 212.908 491.051C212.75 491.088 212.585 491.09 212.425 491.056L206.11 490.272L205.649 496.083Z" fill="white"/>
<path d="M244.6 502.401L252.621 503.369C253.819 503.369 254.003 504.015 253.865 505.122L253.22 510.517C253.22 511.67 252.574 511.993 251.468 511.855L242.71 510.794C241.604 510.794 241.235 510.194 241.327 509.088L243.263 493.085C243.263 492.531 243.586 491.886 244.462 492.024H245.89C246.192 492.08 246.461 492.251 246.641 492.5C246.821 492.748 246.899 493.057 246.859 493.362C246.855 493.525 246.816 493.685 246.744 493.831C246.671 493.977 246.568 494.106 246.44 494.207C246.312 494.308 246.164 494.38 246.005 494.417C245.846 494.455 245.681 494.456 245.522 494.422L244.6 502.401ZM244.323 504.799L243.862 508.488L250.961 509.364L251.376 505.629L244.323 504.799Z" fill="white"/>
<path d="M156.741 521.539C156.724 521.697 156.676 521.85 156.599 521.989C156.522 522.128 156.419 522.251 156.294 522.349C156.17 522.448 156.027 522.521 155.875 522.564C155.722 522.607 155.562 522.619 155.404 522.6C155.082 522.554 154.79 522.384 154.592 522.125C154.394 521.866 154.305 521.54 154.344 521.217V520.017C154.4 519.7 154.574 519.415 154.83 519.218C155.086 519.022 155.406 518.929 155.727 518.957L166.375 520.248L165.684 527.166C165.684 527.996 165.684 528.088 164.854 528.595L161.166 531.086C160.429 531.593 160.383 531.593 160.291 532.469L159.737 537.081C159.719 537.238 159.67 537.391 159.593 537.529C159.516 537.668 159.413 537.79 159.289 537.888C159.164 537.987 159.022 538.06 158.87 538.103C158.717 538.147 158.558 538.16 158.401 538.142C158.243 538.124 158.091 538.075 157.952 537.997C157.814 537.92 157.692 537.817 157.594 537.693C157.495 537.568 157.422 537.426 157.379 537.274C157.335 537.121 157.322 536.962 157.34 536.804L158.032 530.993C158.014 530.718 158.079 530.443 158.219 530.205C158.358 529.966 158.566 529.775 158.815 529.656L162.503 527.212C163.379 526.612 163.333 526.612 163.425 525.552L163.84 522.231L156.741 521.539Z" fill="white"/>
<path d="M205.095 523.984C205.258 523.987 205.419 524.026 205.565 524.098C205.711 524.171 205.839 524.275 205.94 524.402C206.042 524.53 206.114 524.679 206.151 524.838C206.188 524.996 206.19 525.162 206.156 525.321L205.326 532.285C205.647 532.314 205.958 532.407 206.243 532.557C206.528 532.708 206.78 532.913 206.985 533.161C207.194 533.415 207.344 533.712 207.424 534.031C207.504 534.35 207.511 534.683 207.446 535.006L206.755 540.724C206.742 541.052 206.657 541.374 206.507 541.666C206.357 541.958 206.146 542.214 205.887 542.416C205.628 542.618 205.328 542.761 205.008 542.835C204.689 542.909 204.356 542.913 204.035 542.846L196.983 541.969C196.657 541.963 196.336 541.885 196.044 541.74C195.752 541.595 195.495 541.387 195.293 541.132C195.09 540.876 194.946 540.579 194.872 540.261C194.797 539.944 194.794 539.614 194.862 539.295L195.554 533.576C195.57 533.233 195.656 532.896 195.807 532.587C195.957 532.278 196.169 532.002 196.429 531.778C196.969 531.407 197.623 531.243 198.273 531.316L199.103 524.353C199.12 524.19 199.169 524.033 199.249 523.891C199.329 523.748 199.436 523.623 199.566 523.524C199.695 523.425 199.844 523.353 200.002 523.313C200.16 523.273 200.325 523.266 200.486 523.292L205.095 523.984ZM204.358 540.448L205.049 534.683L197.951 533.807L197.259 539.571L204.358 540.448ZM202.929 531.778L203.62 526.059L201.362 525.782L200.67 531.778H202.929Z" fill="white"/>
<path d="M246.444 539.064L238.192 538.096C237.87 538.05 237.578 537.879 237.38 537.621C237.182 537.362 237.093 537.036 237.132 536.712L237.87 530.579C237.88 530.418 237.925 530.262 237.999 530.12C238.074 529.977 238.178 529.852 238.303 529.752C238.429 529.652 238.575 529.58 238.73 529.54C238.886 529.499 239.048 529.492 239.207 529.518L248.702 530.625C249.02 530.681 249.305 530.854 249.501 531.111C249.697 531.367 249.791 531.687 249.763 532.008L247.78 548.334C247.735 548.648 247.571 548.932 247.322 549.13C247.074 549.327 246.76 549.421 246.444 549.395H245.245C245.085 549.384 244.929 549.34 244.786 549.265C244.644 549.19 244.519 549.087 244.419 548.961C244.319 548.835 244.247 548.689 244.207 548.534C244.166 548.378 244.159 548.216 244.185 548.057C244.196 547.897 244.24 547.74 244.314 547.598C244.389 547.456 244.493 547.331 244.619 547.231C244.744 547.131 244.89 547.059 245.045 547.018C245.201 546.978 245.363 546.97 245.522 546.997L246.444 539.064ZM246.72 536.666L247.181 532.885L240.128 532.054L239.667 535.79L246.72 536.666Z" fill="white"/>
<path d="M201.316 560.785C201.635 560.814 201.944 560.906 202.225 561.058C202.506 561.209 202.753 561.417 202.951 561.667C203.15 561.917 203.295 562.205 203.379 562.514C203.462 562.822 203.482 563.144 203.437 563.46L201.777 577.296C201.743 577.611 201.647 577.917 201.493 578.195C201.34 578.473 201.133 578.718 200.884 578.915C200.635 579.113 200.35 579.259 200.044 579.345C199.739 579.431 199.419 579.455 199.104 579.417L191.821 578.633C191.503 578.605 191.194 578.512 190.913 578.361C190.631 578.209 190.384 578.002 190.186 577.752C189.987 577.501 189.842 577.213 189.759 576.905C189.675 576.597 189.655 576.274 189.7 575.958L191.36 562.123C191.452 561.486 191.786 560.91 192.293 560.515C192.8 560.119 193.44 559.935 194.079 560.001L201.316 560.785ZM199.38 577.111L201.04 563.276L193.987 562.4L192.282 576.235L199.38 577.111Z" fill="white"/>
<path d="M288.622 507.75L285.533 504.384C285.373 504.245 285.241 504.075 285.146 503.885C285.052 503.695 284.995 503.489 284.98 503.277C285.015 502.942 285.179 502.635 285.437 502.419C285.696 502.204 286.028 502.098 286.363 502.124C286.717 502.215 287.038 502.407 287.285 502.677L289.59 505.214L290.005 501.709C290.041 501.391 290.203 501.1 290.453 500.901C290.704 500.703 291.023 500.611 291.341 500.648C291.659 500.685 291.949 500.846 292.148 501.097C292.347 501.348 292.438 501.668 292.402 501.986L291.987 505.49L294.799 503.6C295.106 503.377 295.479 503.263 295.859 503.277C296.182 503.333 296.47 503.515 296.66 503.783C296.85 504.051 296.926 504.383 296.873 504.706C296.82 504.903 296.727 505.086 296.6 505.245C296.473 505.403 296.315 505.534 296.135 505.629L292.309 508.211L295.121 511.255C295.49 511.67 295.997 512.131 295.905 512.685C295.893 512.847 295.849 513.005 295.775 513.149C295.701 513.293 295.598 513.421 295.473 513.525C295.348 513.628 295.204 513.705 295.048 513.751C294.892 513.797 294.729 513.811 294.568 513.792C294.061 513.792 293.692 513.284 293.37 512.915L291.341 510.702L290.926 514.161C290.926 514.945 290.466 515.36 289.59 515.221C289.424 515.227 289.259 515.194 289.108 515.124C288.958 515.054 288.825 514.95 288.722 514.82C288.619 514.69 288.548 514.538 288.514 514.375C288.481 514.212 288.486 514.044 288.529 513.884L288.944 510.425L286.501 512.085C286.103 512.435 285.601 512.645 285.072 512.685C284.749 512.628 284.461 512.447 284.271 512.179C284.081 511.911 284.005 511.579 284.058 511.255C284.058 510.702 284.704 510.333 285.164 510.056L288.622 507.75Z" fill="white"/>
<path d="M241.327 573.837C242.341 573.837 242.756 574.39 242.618 575.451C242.479 576.511 241.972 576.88 241.004 576.788L235.38 576.096C234.366 576.096 233.952 575.543 234.09 574.436C234.228 573.329 234.735 573.053 235.703 573.145L241.327 573.837Z" fill="white"/>
<path d="M159.83 570.701C160.798 570.701 161.213 571.3 161.074 572.361C160.936 573.422 160.475 573.791 159.461 573.652H158.309C157.341 573.652 156.926 573.053 157.064 571.992C157.202 570.932 157.709 570.563 158.677 570.701H159.83Z" fill="white"/>
<path d="M284.473 539.341C284.468 539.175 284.501 539.01 284.57 538.859C284.64 538.708 284.744 538.576 284.874 538.473C285.004 538.37 285.157 538.298 285.319 538.265C285.482 538.231 285.65 538.237 285.81 538.28C285.976 538.274 286.141 538.308 286.292 538.377C286.442 538.447 286.574 538.551 286.678 538.681C286.781 538.811 286.852 538.964 286.885 539.126C286.919 539.289 286.914 539.457 286.87 539.617L286.455 543.215L290.005 543.63C290.183 543.628 290.36 543.664 290.523 543.737C290.686 543.809 290.831 543.916 290.949 544.049C291.067 544.183 291.156 544.34 291.208 544.511C291.26 544.681 291.275 544.861 291.251 545.038C291.228 545.215 291.167 545.384 291.072 545.536C290.978 545.687 290.852 545.816 290.703 545.914C290.554 546.012 290.386 546.077 290.21 546.105C290.034 546.133 289.854 546.122 289.682 546.074L286.179 545.613L285.718 549.164C285.7 549.321 285.651 549.474 285.574 549.612C285.497 549.751 285.393 549.873 285.269 549.971C285.145 550.07 285.003 550.143 284.85 550.186C284.698 550.23 284.539 550.243 284.381 550.225C284.224 550.206 284.071 550.157 283.933 550.08C283.795 550.003 283.673 549.9 283.574 549.775C283.476 549.651 283.403 549.509 283.359 549.356C283.316 549.204 283.303 549.045 283.321 548.887L283.736 545.336L280.232 544.921C280.069 544.918 279.909 544.879 279.763 544.806C279.617 544.734 279.489 544.63 279.388 544.502C279.286 544.374 279.214 544.226 279.177 544.067C279.14 543.908 279.138 543.743 279.172 543.584C279.175 543.42 279.215 543.26 279.287 543.114C279.359 542.968 279.463 542.84 279.591 542.738C279.719 542.637 279.867 542.565 280.026 542.528C280.185 542.491 280.35 542.489 280.509 542.523L284.058 542.938L284.473 539.341Z" fill="white"/>
<path d="M274.793 578.31C274.628 578.3 274.467 578.255 274.321 578.178C274.175 578.1 274.048 577.992 273.947 577.861C273.846 577.729 273.775 577.578 273.738 577.417C273.701 577.256 273.699 577.089 273.733 576.927C273.736 576.764 273.775 576.603 273.848 576.457C273.92 576.311 274.024 576.183 274.151 576.081C274.279 575.98 274.428 575.908 274.586 575.871C274.745 575.834 274.91 575.832 275.07 575.866L284.565 577.019C284.723 577.037 284.875 577.086 285.013 577.163C285.152 577.24 285.274 577.344 285.372 577.468C285.471 577.592 285.544 577.734 285.587 577.887C285.631 578.039 285.644 578.199 285.626 578.356C285.607 578.514 285.558 578.666 285.481 578.805C285.404 578.943 285.301 579.065 285.177 579.164C285.053 579.262 284.91 579.335 284.758 579.379C284.606 579.422 284.446 579.435 284.289 579.417L274.793 578.31ZM274.194 583.383C274.028 583.389 273.863 583.356 273.712 583.286C273.562 583.216 273.429 583.112 273.326 582.982C273.223 582.852 273.152 582.699 273.118 582.537C273.085 582.374 273.09 582.206 273.134 582.046C273.137 581.883 273.176 581.722 273.248 581.576C273.321 581.43 273.424 581.302 273.552 581.2C273.68 581.099 273.828 581.027 273.987 580.99C274.146 580.953 274.311 580.951 274.47 580.985L283.966 582.138C284.129 582.141 284.289 582.18 284.435 582.253C284.582 582.325 284.71 582.429 284.811 582.557C284.912 582.685 284.984 582.833 285.021 582.992C285.059 583.151 285.06 583.316 285.026 583.475C285.017 583.64 284.971 583.801 284.894 583.947C284.816 584.093 284.708 584.221 284.577 584.322C284.446 584.422 284.295 584.494 284.134 584.531C283.973 584.567 283.805 584.569 283.643 584.536L274.194 583.383Z" fill="white"/>
<path d="M291.618 465.276C291.065 465.276 290.696 465.276 290.419 464.63C290.28 464.274 290.28 463.879 290.419 463.523V462.186C290.428 461.795 290.575 461.419 290.834 461.125C291.203 460.71 291.618 460.756 292.125 460.849H293.877C294.384 460.849 294.798 460.849 295.075 461.448C295.209 461.805 295.209 462.198 295.075 462.555V463.938C295.08 464.31 294.949 464.671 294.706 464.953C294.291 465.414 293.923 465.368 293.369 465.276H291.618ZM290.65 477.405C290.393 477.6 290.069 477.686 289.749 477.643C289.429 477.6 289.14 477.431 288.944 477.174C288.749 476.917 288.663 476.593 288.706 476.273C288.75 475.953 288.918 475.664 289.175 475.468L300.192 464.123C300.455 463.945 300.774 463.87 301.088 463.912C301.403 463.955 301.691 464.112 301.897 464.353C302.096 464.593 302.205 464.895 302.205 465.207C302.205 465.518 302.096 465.82 301.897 466.06L290.65 477.405ZM297.011 480.402C296.504 480.402 296.089 480.402 295.813 479.803C295.674 479.447 295.674 479.052 295.813 478.696V477.359C295.809 476.973 295.939 476.598 296.181 476.298C296.596 475.883 296.965 475.929 297.518 475.975L299.224 476.206C299.777 476.206 300.146 476.206 300.422 476.805C300.561 477.161 300.561 477.556 300.422 477.912V479.249C300.413 479.641 300.266 480.017 300.007 480.31C299.839 480.472 299.631 480.587 299.405 480.644C299.178 480.7 298.941 480.697 298.717 480.633L297.011 480.402Z" fill="white"/>
<path d="M304.433 302.297C299.823 305.675 296.558 310.576 295.213 316.132C295.213 316.132 289.636 311.52 273.134 310.275C256.631 309.03 294.799 301.052 294.799 301.052L304.433 302.297Z" fill="#9A9FB3"/>
<path d="M231.509 315.256C243.416 304.855 257.908 297.86 273.456 295.01C290.469 293.061 307.675 293.605 324.53 296.624C324.53 296.624 302.358 301.236 290.926 308.661C285.249 313.108 280.477 318.603 276.867 324.848C269.939 321.21 262.583 318.452 254.972 316.639C247.247 315.133 239.356 314.668 231.509 315.256Z" fill="url(#paint39_linear_87_1451)"/>
<path d="M291.019 300.636L285.856 304.464C279.571 301.081 272.677 298.98 265.574 298.284C264.145 298.284 262.716 298.054 261.195 298.008C263.793 297.118 266.44 296.379 269.123 295.794C276.639 296.19 284.037 297.826 291.019 300.636Z" fill="url(#paint40_linear_87_1451)"/>
<path d="M284.012 305.801L279.679 309.952C272.051 306.26 263.824 303.964 255.387 303.173C253.036 303.173 250.777 303.173 248.887 303.173C250.869 302.112 252.99 301.097 255.202 300.129C257.119 299.949 259.048 299.949 260.964 300.129C268.881 300.893 276.645 302.803 284.012 305.801Z" fill="url(#paint41_linear_87_1451)"/>
<path d="M278.112 312.304L274.747 316.547C267.101 312.858 258.859 310.562 250.408 309.768C246.235 309.739 242.064 309.955 237.916 310.413C239.022 309.583 240.313 308.753 241.696 307.831C245.861 306.424 250.267 305.875 254.649 306.217C262.651 307.468 270.51 309.507 278.112 312.304Z" fill="url(#paint42_linear_87_1451)"/>
<path d="M526.846 646.795C527.5 664.124 530.508 681.283 535.788 697.801C540.236 708.177 545.237 718.306 550.77 728.146C530.578 741.964 509.269 754.074 487.065 764.348C468.602 773.039 448.24 776.911 427.878 775.601L436.774 695.495C449.441 695.241 461.858 691.917 472.96 685.81C493.288 675.341 526.846 646.795 526.846 646.795Z" fill="url(#paint43_linear_87_1451)"/>
<path d="M512.279 666.118C515.322 663.674 516.889 662.383 520.392 659.708C523.434 692.959 529.611 706.102 541.089 727.731L532.285 733.773C521.32 712.722 514.527 689.749 512.279 666.118Z" fill="url(#paint44_linear_87_1451)"/>
<path d="M500.386 675.618L507.116 670.13C509.975 693.471 516.509 716.212 526.477 737.508C523.25 739.676 521.867 740.69 518.64 742.581C510.183 720.976 504.063 698.527 500.386 675.618Z" fill="url(#paint45_linear_87_1451)"/>
<path d="M489.876 683.643C492.273 681.936 493.472 681.014 495.961 679.031C500.135 701.707 505.927 724.054 513.293 745.902C510.297 747.7 508.684 748.576 505.78 750.19C499.787 725.471 496.053 712.466 489.876 683.643Z" fill="url(#paint46_linear_87_1451)"/>
<path d="M479.367 690.238C481.948 688.854 483.147 688.07 485.59 686.502C491.951 714.726 495.408 727.685 500.386 753.05C497.298 754.572 495.777 755.264 492.504 756.647C489.577 734.248 485.189 712.064 479.367 690.238Z" fill="url(#paint47_linear_87_1451)"/>
<path d="M467.566 695.68C470.609 694.527 472.176 693.927 474.711 692.636C480.966 714.294 485.028 736.527 486.834 758.999C483.423 760.29 481.672 760.89 477.892 762.089C477.778 739.561 474.298 717.177 467.566 695.68Z" fill="url(#paint48_linear_87_1451)"/>
<path d="M446.639 596.342C453.847 600.931 460.405 606.468 466.137 612.806C469.343 617.111 472.284 621.608 474.942 626.273C486.717 622.159 498.165 617.164 509.191 611.33C518.121 606.78 525.75 600.036 531.363 591.73L494.071 574.621C490.114 579.506 485.038 583.366 479.275 585.874C468.675 590.181 457.765 593.68 446.639 596.342Z" fill="url(#paint49_linear_87_1451)"/>
<path d="M487.572 608.241C485.544 609.163 485.083 609.394 482.962 610.178C474.941 599.478 473.743 598.141 467.059 593.068L471.254 591.73C477.524 596.344 483.031 601.916 487.572 608.241Z" fill="url(#paint50_linear_87_1451)"/>
<path d="M502.092 611.93C500.156 613.083 499.142 613.636 497.16 614.697C490.442 605.855 482.706 597.837 474.112 590.808L477.569 589.517C486.447 596.179 494.66 603.685 502.092 611.93Z" fill="url(#paint51_linear_87_1451)"/>
<path d="M510.343 606.673L505.734 609.855C497.745 602.079 489.16 594.939 480.058 588.502C481.114 588.05 482.145 587.542 483.147 586.98C492.544 593.073 501.622 599.645 510.343 606.673Z" fill="url(#paint52_linear_87_1451)"/>
<path d="M517.995 600.954C516.289 602.43 515.414 603.121 513.616 604.505C502.691 596.665 496.699 593.344 485.083 586.058C486.235 585.366 486.834 584.951 488.033 584.121C499.972 590.762 506.379 593.621 517.995 600.954Z" fill="url(#paint53_linear_87_1451)"/>
<path d="M524.771 594.313C523.296 595.881 522.512 596.619 520.899 598.141C508.914 591.454 502.461 588.917 490.107 582.23C491.305 581.262 491.905 580.708 493.195 579.555C505.272 586.058 512.279 588.226 524.771 594.313Z" fill="url(#paint54_linear_87_1451)"/>
<path d="M406.259 288C402.574 295.618 399.938 303.701 398.422 312.027C397.963 317.395 397.824 322.785 398.007 328.168C385.988 330.407 373.813 331.703 361.592 332.042C351.666 332.444 341.8 330.317 332.92 325.863L355.323 292.473C361.098 294.776 367.345 295.646 373.53 295.01C384.604 293.521 395.546 291.177 406.259 288Z" fill="url(#paint55_linear_87_1451)"/>
<path d="M378.094 318.576C380.26 318.576 380.767 318.576 382.703 318.115C383.902 304.787 384.086 303.127 387.313 295.333L383.118 296.209C380.258 303.348 378.562 310.899 378.094 318.576Z" fill="url(#paint56_linear_87_1451)"/>
<path d="M367.814 328.86C370.073 328.86 371.179 328.86 373.392 328.86C374.448 317.861 376.8 307.025 380.399 296.578C378.878 296.855 378.186 296.993 376.803 297.177C372.796 307.425 369.786 318.035 367.814 328.86Z" fill="url(#paint57_linear_87_1451)"/>
<path d="M358.227 328.491C360.439 328.491 361.592 328.814 363.85 328.906C366.533 318.21 370.047 307.74 374.36 297.592C373.24 297.661 372.116 297.661 370.995 297.592C366.192 307.657 361.93 317.971 358.227 328.491Z" fill="url(#paint58_linear_87_1451)"/>
<path d="M348.546 327.108C350.713 327.523 351.819 327.707 354.078 328.03C359.148 315.763 362.467 309.906 368.414 297.777C367.257 297.75 366.103 297.657 364.957 297.5C358.687 309.491 354.815 315.025 348.546 327.108Z" fill="url(#paint59_linear_87_1451)"/>
<path d="M339.789 324.848C341.817 325.493 342.831 325.77 344.951 326.277C351.589 314.517 355.876 309.03 362.56 297.131C361.039 296.901 360.255 296.716 358.596 296.347C351.773 308.061 347.072 313.365 339.789 324.848Z" fill="url(#paint60_linear_87_1451)"/>
</g>
<circle cx="564.5" cy="83.5" r="83.5" fill="#EDCE82"/>
<path d="M530.072 85.624V83.576C530.072 70.84 536.536 61.816 546.264 61.816C555.864 61.816 562.392 70.84 562.392 83.576V85.624C562.392 98.744 555.864 107.384 546.264 107.384C536.536 107.384 530.072 98.744 530.072 85.624ZM559 85.496V83.704C559 72.312 553.944 64.888 546.264 64.888C538.52 64.888 533.464 72.312 533.464 83.704V85.496C533.464 96.888 538.52 104.312 546.264 104.312C553.944 104.312 559 96.888 559 85.496ZM588.613 83.768C593.797 84.536 598.213 87.736 598.213 94.712C598.213 102.136 591.941 107.384 582.597 107.384C573.253 107.384 567.109 102.328 567.109 93.88H570.437C570.437 100.472 575.557 104.376 582.789 104.376C589.701 104.376 594.821 100.344 594.821 94.52C594.821 88.76 590.405 85.56 582.597 85.56H578.885V82.68H582.405C589.829 82.68 593.605 78.712 593.605 73.464C593.605 68.28 589.253 64.824 582.853 64.824C576.261 64.824 571.525 68.536 571.461 74.424H568.133C568.197 66.744 574.341 61.816 582.853 61.816C591.557 61.816 596.997 66.488 596.997 73.336C596.997 79.16 593.669 82.744 588.613 83.768Z" fill="white"/>
<defs>
<radialGradient id="paint0_radial_87_1451" cx="0" cy="0" r="1" gradientUnits="userSpaceOnUse" gradientTransform="translate(246.711 797.033) scale(235.052 33.8047)">
<stop stop-color="#BFC4DB"/>
<stop offset="0.04" stop-color="#C4C9DE"/>
<stop offset="0.26" stop-color="#DEE0EC"/>
<stop offset="0.49" stop-color="#F0F2F7"/>
<stop offset="0.73" stop-color="#FBFCFD"/>
<stop offset="1" stop-color="white"/>
</radialGradient>
<radialGradient id="paint1_radial_87_1451" cx="0" cy="0" r="1" gradientUnits="userSpaceOnUse" gradientTransform="translate(510.788 775.56) rotate(180) scale(124.596 26.5222)">
<stop stop-color="#BFC4DB"/>
<stop offset="0.04" stop-color="#C4C9DE"/>
<stop offset="0.26" stop-color="#DEE0EC"/>
<stop offset="0.49" stop-color="#F0F2F7"/>
<stop offset="0.73" stop-color="#FBFCFD"/>
<stop offset="1" stop-color="white"/>
</radialGradient>
<linearGradient id="paint2_linear_87_1451" x1="427.493" y1="572.762" x2="523.796" y2="461.404" gradientUnits="userSpaceOnUse">
<stop stop-color="#996B25"/>
<stop offset="0.23" stop-color="#C29C5C"/>
<stop offset="0.24" stop-color="#C49C5A"/>
<stop offset="0.46" stop-color="#D5A148"/>
<stop offset="0.68" stop-color="#DFAF5B"/>
<stop offset="0.75" stop-color="#E3B462"/>
<stop offset="1" stop-color="#D6A44D"/>
</linearGradient>
<linearGradient id="paint3_linear_87_1451" x1="382.546" y1="478.664" x2="511.085" y2="505.612" gradientUnits="userSpaceOnUse">
<stop stop-color="#F2DA8F"/>
<stop offset="0.18" stop-color="#ECD086"/>
<stop offset="0.33" stop-color="#FFE59E"/>
<stop offset="0.48" stop-color="#FFE7A9"/>
<stop offset="0.7" stop-color="#FFEAB5"/>
<stop offset="0.74" stop-color="#FDE2A2"/>
<stop offset="0.8" stop-color="#FBDB90"/>
<stop offset="0.91" stop-color="#F9D788"/>
<stop offset="1" stop-color="#F5D284"/>
</linearGradient>
<linearGradient id="paint4_linear_87_1451" x1="400.266" y1="543.486" x2="490.898" y2="438.684" gradientUnits="userSpaceOnUse">
<stop stop-color="#EBD38B"/>
<stop offset="0.35" stop-color="#ECCF85"/>
<stop offset="1" stop-color="#EDCC80"/>
</linearGradient>
<linearGradient id="paint5_linear_87_1451" x1="408.398" y1="528.552" x2="478.997" y2="446.043" gradientUnits="userSpaceOnUse">
<stop stop-color="#F2DA8F"/>
<stop offset="0.18" stop-color="#ECD086"/>
<stop offset="0.33" stop-color="#FFE59E"/>
<stop offset="0.48" stop-color="#FFE7A9"/>
<stop offset="0.7" stop-color="#FFEAB5"/>
<stop offset="0.74" stop-color="#FDE2A2"/>
<stop offset="0.8" stop-color="#FBDB90"/>
<stop offset="0.91" stop-color="#F9D788"/>
<stop offset="1" stop-color="#F5D284"/>
</linearGradient>
<linearGradient id="paint6_linear_87_1451" x1="413.73" y1="530.442" x2="479.932" y2="453.889" gradientUnits="userSpaceOnUse">
<stop stop-color="#E6B35C"/>
<stop offset="0.53" stop-color="#DAA74E"/>
<stop offset="1" stop-color="#D6A349"/>
</linearGradient>
<linearGradient id="paint7_linear_87_1451" x1="415.499" y1="529.573" x2="479.336" y2="455.73" gradientUnits="userSpaceOnUse">
<stop stop-color="#EBD38B"/>
<stop offset="0.35" stop-color="#ECCF85"/>
<stop offset="1" stop-color="#EDCC80"/>
</linearGradient>
<linearGradient id="paint8_linear_87_1451" x1="381.123" y1="482.92" x2="512.505" y2="501.363" gradientUnits="userSpaceOnUse">
<stop offset="0.4" stop-color="#85744B"/>
<stop offset="0.48" stop-color="#A38F5C"/>
<stop offset="0.57" stop-color="#C0B28E"/>
<stop offset="0.62" stop-color="#CEC2A5"/>
<stop offset="0.65" stop-color="#E1D9C5"/>
<stop offset="0.67" stop-color="#EEE7DA"/>
<stop offset="0.69" stop-color="#F2ECE1"/>
<stop offset="0.7" stop-color="#F3EDE1"/>
<stop offset="1" stop-color="#FFF6E2"/>
</linearGradient>
<linearGradient id="paint9_linear_87_1451" x1="177.121" y1="387.199" x2="416.451" y2="719.743" gradientUnits="userSpaceOnUse">
<stop stop-color="#C4C2C3"/>
<stop offset="1" stop-color="#E5E2E3"/>
</linearGradient>
<linearGradient id="paint10_linear_87_1451" x1="182.778" y1="392.26" x2="421.692" y2="717.614" gradientUnits="userSpaceOnUse">
<stop stop-color="#D1D6F0"/>
<stop offset="0.17" stop-color="#D8DDF3"/>
<stop offset="0.63" stop-color="#E8EAF8"/>
<stop offset="1" stop-color="#EDEFFA"/>
</linearGradient>
<radialGradient id="paint11_radial_87_1451" cx="0" cy="0" r="1" gradientUnits="userSpaceOnUse" gradientTransform="translate(231.601 742.627) scale(94.7272 94.7716)">
<stop offset="0.49" stop-color="#CED1DB"/>
<stop offset="1" stop-color="white"/>
</radialGradient>
<radialGradient id="paint12_radial_87_1451" cx="0" cy="0" r="1" gradientUnits="userSpaceOnUse" gradientTransform="translate(354.434 677.59) rotate(24.874) scale(42.7885 94.5322)">
<stop stop-color="#959DC2"/>
<stop offset="0.09" stop-color="#AAB0CE"/>
<stop offset="0.24" stop-color="#C8CDE0"/>
<stop offset="0.41" stop-color="#E0E3ED"/>
<stop offset="0.58" stop-color="#F2F3F7"/>
<stop offset="0.77" stop-color="#FCFCFD"/>
<stop offset="1" stop-color="white"/>
</radialGradient>
<linearGradient id="paint13_linear_87_1451" x1="150.841" y1="638.309" x2="170.201" y2="638.309" gradientUnits="userSpaceOnUse">
<stop stop-color="#5C6582"/>
<stop offset="1" stop-color="#575F7A"/>
</linearGradient>
<linearGradient id="paint14_linear_87_1451" x1="453.599" y1="403.663" x2="472.914" y2="403.663" gradientUnits="userSpaceOnUse">
<stop stop-color="#5C6582"/>
<stop offset="1" stop-color="#575F7A"/>
</linearGradient>
<linearGradient id="paint15_linear_87_1451" x1="192.927" y1="357.453" x2="211.319" y2="357.453" gradientUnits="userSpaceOnUse">
<stop stop-color="#5C6582"/>
<stop offset="1" stop-color="#575F7A"/>
</linearGradient>
<linearGradient id="paint16_linear_87_1451" x1="426.31" y1="634.389" x2="444.703" y2="634.389" gradientUnits="userSpaceOnUse">
<stop stop-color="#5C6582"/>
<stop offset="1" stop-color="#575F7A"/>
</linearGradient>
<linearGradient id="paint17_linear_87_1451" x1="432.487" y1="606.949" x2="442.167" y2="606.949" gradientUnits="userSpaceOnUse">
<stop stop-color="#5C6582"/>
<stop offset="1" stop-color="#575F7A"/>
</linearGradient>
<linearGradient id="paint18_linear_87_1451" x1="170.201" y1="360.405" x2="179.835" y2="360.405" gradientUnits="userSpaceOnUse">
<stop stop-color="#5C6582"/>
<stop offset="1" stop-color="#575F7A"/>
</linearGradient>
<linearGradient id="paint19_linear_87_1451" x1="207.309" y1="332.042" x2="216.989" y2="332.042" gradientUnits="userSpaceOnUse">
<stop stop-color="#5C6582"/>
<stop offset="1" stop-color="#575F7A"/>
</linearGradient>
<linearGradient id="paint20_linear_87_1451" x1="133.37" y1="661.414" x2="143.05" y2="661.414" gradientUnits="userSpaceOnUse">
<stop stop-color="#5C6582"/>
<stop offset="1" stop-color="#575F7A"/>
</linearGradient>
<linearGradient id="paint21_linear_87_1451" x1="425.296" y1="659.708" x2="442.168" y2="659.708" gradientUnits="userSpaceOnUse">
<stop stop-color="#5C6582"/>
<stop offset="1" stop-color="#575F7A"/>
</linearGradient>
<linearGradient id="paint22_linear_87_1451" x1="457.103" y1="377.33" x2="473.928" y2="377.33" gradientUnits="userSpaceOnUse">
<stop stop-color="#5C6582"/>
<stop offset="1" stop-color="#575F7A"/>
</linearGradient>
<linearGradient id="paint23_linear_87_1451" x1="128.807" y1="621.292" x2="145.678" y2="621.292" gradientUnits="userSpaceOnUse">
<stop stop-color="#5C6582"/>
<stop offset="1" stop-color="#575F7A"/>
</linearGradient>
<radialGradient id="paint24_radial_87_1451" cx="0" cy="0" r="1" gradientUnits="userSpaceOnUse" gradientTransform="translate(208.173 807.252) scale(91.7401 25.9065)">
<stop stop-color="#DBD0A6"/>
<stop offset="0.17" stop-color="#E7E0C4"/>
<stop offset="0.37" stop-color="#F2EEDE"/>
<stop offset="0.57" stop-color="#F9F7F0"/>
<stop offset="0.77" stop-color="#FEFDFB"/>
<stop offset="1" stop-color="white"/>
</radialGradient>
<linearGradient id="paint25_linear_87_1451" x1="134.684" y1="772.531" x2="291.733" y2="738.936" gradientUnits="userSpaceOnUse">
<stop stop-color="#EBC892"/>
<stop offset="0.05" stop-color="#E9C48A"/>
<stop offset="0.32" stop-color="#DAAB5A"/>
<stop offset="0.46" stop-color="#D5A148"/>
<stop offset="1" stop-color="#D6A44D"/>
</linearGradient>
<linearGradient id="paint26_linear_87_1451" x1="157.454" y1="661.073" x2="251.653" y2="769.057" gradientUnits="userSpaceOnUse">
<stop stop-color="#FFECB0"/>
<stop offset="0.06" stop-color="#FFF0C1"/>
<stop offset="0.18" stop-color="#FFF7E0"/>
<stop offset="0.27" stop-color="#FFECB8"/>
<stop offset="0.33" stop-color="#FFE59E"/>
<stop offset="0.48" stop-color="#FFE7A9"/>
<stop offset="0.7" stop-color="#FFEAB5"/>
<stop offset="0.74" stop-color="#FDE2A2"/>
<stop offset="0.8" stop-color="#FBDB90"/>
<stop offset="0.91" stop-color="#F9D788"/>
<stop offset="1" stop-color="#F5D284"/>
</linearGradient>
<linearGradient id="paint27_linear_87_1451" x1="130.295" y1="729.092" x2="278.012" y2="697.493" gradientUnits="userSpaceOnUse">
<stop stop-color="#FFEEBD"/>
<stop offset="0.47" stop-color="#FFEAB5"/>
<stop offset="0.52" stop-color="#FDE6AE"/>
<stop offset="0.7" stop-color="#F4D895"/>
<stop offset="0.87" stop-color="#EFCF85"/>
<stop offset="1" stop-color="#EDCC80"/>
</linearGradient>
<linearGradient id="paint28_linear_87_1451" x1="146.497" y1="726.836" x2="262.3" y2="702.063" gradientUnits="userSpaceOnUse">
<stop stop-color="#F2DA8F"/>
<stop offset="0.18" stop-color="#ECD086"/>
<stop offset="0.33" stop-color="#FFE59E"/>
<stop offset="0.48" stop-color="#FFE7A9"/>
<stop offset="0.7" stop-color="#FFEAB5"/>
<stop offset="0.74" stop-color="#FDE2A2"/>
<stop offset="0.8" stop-color="#FBDB90"/>
<stop offset="0.91" stop-color="#F9D788"/>
<stop offset="1" stop-color="#F5D284"/>
</linearGradient>
<linearGradient id="paint29_linear_87_1451" x1="150.559" y1="726.639" x2="258.473" y2="703.555" gradientUnits="userSpaceOnUse">
<stop stop-color="#E6B35C"/>
<stop offset="0.53" stop-color="#DAA74E"/>
<stop offset="1" stop-color="#D6A349"/>
</linearGradient>
<linearGradient id="paint30_linear_87_1451" x1="152.719" y1="727.262" x2="256.757" y2="705.006" gradientUnits="userSpaceOnUse">
<stop stop-color="#EBD38B"/>
<stop offset="0.35" stop-color="#ECCF85"/>
<stop offset="1" stop-color="#EDCC80"/>
</linearGradient>
<linearGradient id="paint31_linear_87_1451" x1="167.003" y1="618.683" x2="327.975" y2="395.895" gradientUnits="userSpaceOnUse">
<stop stop-color="#F0F5FF"/>
<stop offset="0.07" stop-color="#ECE9D2"/>
<stop offset="0.22" stop-color="#E8E7CA"/>
<stop offset="0.31" stop-color="#EDECD1"/>
<stop offset="0.39" stop-color="#E5E6CC"/>
<stop offset="0.88" stop-color="#F2F6FF"/>
<stop offset="1" stop-color="white"/>
</linearGradient>
<linearGradient id="paint32_linear_87_1451" x1="328.637" y1="453.985" x2="340.738" y2="396.331" gradientUnits="userSpaceOnUse">
<stop stop-color="#CF8300"/>
<stop offset="1" stop-color="#FFDB9E"/>
</linearGradient>
<linearGradient id="paint33_linear_87_1451" x1="274.827" y1="479.48" x2="209.256" y2="357.016" gradientUnits="userSpaceOnUse">
<stop stop-color="#FFD280"/>
<stop offset="0.45" stop-color="#FFE0AB"/>
<stop offset="0.63" stop-color="#FFE5DB"/>
<stop offset="1" stop-color="#FFF9EB"/>
</linearGradient>
<linearGradient id="paint34_linear_87_1451" x1="175.148" y1="366.46" x2="311.427" y2="468.504" gradientUnits="userSpaceOnUse">
<stop stop-color="#FFC157"/>
<stop offset="1" stop-color="#D98900"/>
</linearGradient>
<linearGradient id="paint35_linear_87_1451" x1="150.721" y1="393.221" x2="309.312" y2="596.143" gradientUnits="userSpaceOnUse">
<stop stop-color="#B39DAB"/>
<stop offset="0.3" stop-color="#787778"/>
<stop offset="0.35" stop-color="#4F484C"/>
<stop offset="0.39" stop-color="#352A31"/>
<stop offset="0.42" stop-color="#2B1F27"/>
<stop offset="0.59" stop-color="#1A1317"/>
<stop offset="0.83" stop-color="#070506"/>
<stop offset="1"/>
</linearGradient>
<linearGradient id="paint36_linear_87_1451" x1="414.989" y1="592.386" x2="394.904" y2="570.213" gradientUnits="userSpaceOnUse">
<stop stop-color="#FFF7FC"/>
<stop offset="0.08" stop-color="#FFC9EA"/>
<stop offset="0.17" stop-color="#FF47B7"/>
<stop offset="0.52" stop-color="#FF78CA"/>
<stop offset="0.73" stop-color="#FFA3DB"/>
<stop offset="0.92" stop-color="#FF78CA"/>
<stop offset="0.97" stop-color="#FFE8F6"/>
</linearGradient>
<linearGradient id="paint37_linear_87_1451" x1="407.83" y1="604.709" x2="381.936" y2="576.123" gradientUnits="userSpaceOnUse">
<stop stop-color="#FBFAFF"/>
<stop offset="0.11" stop-color="#A79EBC"/>
<stop offset="0.17" stop-color="#938BA6"/>
<stop offset="0.25" stop-color="#7B738C"/>
<stop offset="0.3" stop-color="#726A82"/>
<stop offset="0.42" stop-color="#8A829A"/>
<stop offset="0.68" stop-color="#C7C0D7"/>
<stop offset="0.69" stop-color="#C9C2D9"/>
<stop offset="0.74" stop-color="#D2CCDF"/>
<stop offset="0.83" stop-color="#E9E6EF"/>
<stop offset="0.9" stop-color="white"/>
<stop offset="1" stop-color="white"/>
</linearGradient>
<linearGradient id="paint38_linear_87_1451" x1="401.19" y1="611.766" x2="375.296" y2="583.18" gradientUnits="userSpaceOnUse">
<stop stop-color="#FBFAFF"/>
<stop offset="0.11" stop-color="#A79EBC"/>
<stop offset="0.17" stop-color="#938BA6"/>
<stop offset="0.25" stop-color="#7B738C"/>
<stop offset="0.3" stop-color="#726A82"/>
<stop offset="0.42" stop-color="#8A829A"/>
<stop offset="0.68" stop-color="#C7C0D7"/>
<stop offset="0.69" stop-color="#C9C2D9"/>
<stop offset="0.74" stop-color="#D2CCDF"/>
<stop offset="0.83" stop-color="#E9E6EF"/>
<stop offset="0.9" stop-color="white"/>
<stop offset="1" stop-color="white"/>
</linearGradient>
<linearGradient id="paint39_linear_87_1451" x1="271.033" y1="297.154" x2="291.342" y2="322.721" gradientUnits="userSpaceOnUse">
<stop stop-color="#FBFDFF"/>
<stop offset="1" stop-color="white"/>
</linearGradient>
<linearGradient id="paint40_linear_87_1451" x1="264.322" y1="291.297" x2="287.09" y2="306.663" gradientUnits="userSpaceOnUse">
<stop stop-color="#718AB8"/>
<stop offset="1" stop-color="#7D8DAD"/>
</linearGradient>
<linearGradient id="paint41_linear_87_1451" x1="259.065" y1="299.572" x2="280.148" y2="313.774" gradientUnits="userSpaceOnUse">
<stop stop-color="#718AB8"/>
<stop offset="1" stop-color="#7D8DAD"/>
</linearGradient>
<linearGradient id="paint42_linear_87_1451" x1="253.147" y1="308.085" x2="273.562" y2="321.878" gradientUnits="userSpaceOnUse">
<stop stop-color="#718AB8"/>
<stop offset="1" stop-color="#7D8DAD"/>
</linearGradient>
<linearGradient id="paint43_linear_87_1451" x1="417.044" y1="753.965" x2="566.45" y2="674.712" gradientUnits="userSpaceOnUse">
<stop stop-color="#FBFDFF"/>
<stop offset="1" stop-color="white"/>
</linearGradient>
<linearGradient id="paint44_linear_87_1451" x1="472.309" y1="715.38" x2="529.129" y2="696.03" gradientUnits="userSpaceOnUse">
<stop stop-color="#718AB8"/>
<stop offset="1" stop-color="#7D8DAD"/>
</linearGradient>
<linearGradient id="paint45_linear_87_1451" x1="473.902" y1="719.988" x2="530.722" y2="700.638" gradientUnits="userSpaceOnUse">
<stop stop-color="#718AB8"/>
<stop offset="1" stop-color="#7D8DAD"/>
</linearGradient>
<linearGradient id="paint46_linear_87_1451" x1="475.166" y1="723.667" x2="531.941" y2="704.323" gradientUnits="userSpaceOnUse">
<stop stop-color="#718AB8"/>
<stop offset="1" stop-color="#7D8DAD"/>
</linearGradient>
<linearGradient id="paint47_linear_87_1451" x1="476.027" y1="726.24" x2="532.796" y2="706.852" gradientUnits="userSpaceOnUse">
<stop stop-color="#718AB8"/>
<stop offset="1" stop-color="#7D8DAD"/>
</linearGradient>
<linearGradient id="paint48_linear_87_1451" x1="476.451" y1="727.482" x2="533.272" y2="708.132" gradientUnits="userSpaceOnUse">
<stop stop-color="#718AB8"/>
<stop offset="1" stop-color="#7D8DAD"/>
</linearGradient>
<linearGradient id="paint49_linear_87_1451" x1="467.751" y1="612.299" x2="523.223" y2="569.481" gradientUnits="userSpaceOnUse">
<stop stop-color="#FBFDFF"/>
<stop offset="1" stop-color="white"/>
</linearGradient>
<linearGradient id="paint50_linear_87_1451" x1="477.753" y1="600.401" x2="507.402" y2="579.845" gradientUnits="userSpaceOnUse">
<stop stop-color="#718AB8"/>
<stop offset="1" stop-color="#7D8DAD"/>
</linearGradient>
<linearGradient id="paint51_linear_87_1451" x1="481.579" y1="605.888" x2="511.228" y2="585.333" gradientUnits="userSpaceOnUse">
<stop stop-color="#718AB8"/>
<stop offset="1" stop-color="#7D8DAD"/>
</linearGradient>
<linearGradient id="paint52_linear_87_1451" x1="482.086" y1="606.627" x2="511.735" y2="586.071" gradientUnits="userSpaceOnUse">
<stop stop-color="#718AB8"/>
<stop offset="1" stop-color="#7D8DAD"/>
</linearGradient>
<linearGradient id="paint53_linear_87_1451" x1="482.271" y1="606.903" x2="511.919" y2="586.301" gradientUnits="userSpaceOnUse">
<stop stop-color="#718AB8"/>
<stop offset="1" stop-color="#7D8DAD"/>
</linearGradient>
<linearGradient id="paint54_linear_87_1451" x1="481.902" y1="606.35" x2="511.505" y2="585.748" gradientUnits="userSpaceOnUse">
<stop stop-color="#718AB8"/>
<stop offset="1" stop-color="#7D8DAD"/>
</linearGradient>
<linearGradient id="paint55_linear_87_1451" x1="388.275" y1="306.054" x2="319.498" y2="298.975" gradientUnits="userSpaceOnUse">
<stop stop-color="#FBFDFF"/>
<stop offset="1" stop-color="white"/>
</linearGradient>
<linearGradient id="paint56_linear_87_1451" x1="373.739" y1="300.622" x2="338.283" y2="298.724" gradientUnits="userSpaceOnUse">
<stop stop-color="#718AB8"/>
<stop offset="1" stop-color="#7D8DAD"/>
</linearGradient>
<linearGradient id="paint57_linear_87_1451" x1="373.362" y1="307.342" x2="337.945" y2="305.42" gradientUnits="userSpaceOnUse">
<stop stop-color="#718AB8"/>
<stop offset="1" stop-color="#7D8DAD"/>
</linearGradient>
<linearGradient id="paint58_linear_87_1451" x1="373.332" y1="308.2" x2="337.876" y2="306.301" gradientUnits="userSpaceOnUse">
<stop stop-color="#718AB8"/>
<stop offset="1" stop-color="#7D8DAD"/>
</linearGradient>
<linearGradient id="paint59_linear_87_1451" x1="373.32" y1="308.543" x2="337.864" y2="306.645" gradientUnits="userSpaceOnUse">
<stop stop-color="#718AB8"/>
<stop offset="1" stop-color="#7D8DAD"/>
</linearGradient>
<linearGradient id="paint60_linear_87_1451" x1="373.344" y1="307.857" x2="337.889" y2="305.958" gradientUnits="userSpaceOnUse">
<stop stop-color="#718AB8"/>
<stop offset="1" stop-color="#7D8DAD"/>
</linearGradient>
</defs>
</svg>
