<svg width="24" height="24" viewBox="0 0 24 24" fill="none" xmlns="http://www.w3.org/2000/svg">
<mask id="mask0_22_49" style="mask-type:alpha" maskUnits="userSpaceOnUse" x="0" y="0" width="24" height="24">
<rect width="24" height="24" fill="#408A5E"/>
</mask>
<g mask="url(#mask0_22_49)">
<path d="M11.9616 18.7308C11.1487 18.1744 10.2821 17.7468 9.36155 17.4481C8.44103 17.1494 7.48718 17 6.5 17C5.97948 17 5.46827 17.0436 4.96635 17.1308C4.46442 17.218 3.97563 17.3577 3.5 17.55C3.13718 17.6949 2.79647 17.6545 2.47787 17.4289C2.15929 17.2032 2 16.8923 2 16.4962V6.86922C2 6.62179 2.06827 6.39872 2.2048 6.2C2.34133 6.00128 2.5205 5.86026 2.7423 5.77693C3.32948 5.51794 3.94038 5.32371 4.575 5.19422C5.20962 5.06474 5.85128 5 6.5 5C7.47948 5 8.42853 5.15064 9.34713 5.45193C10.2657 5.75321 11.15 6.15385 12 6.65385V17.5231C12.8372 16.9897 13.7256 16.6026 14.6654 16.3616C15.6051 16.1205 16.55 16 17.5 16C18.0487 16 18.5465 16.0308 18.9933 16.0923C19.4401 16.1539 19.9167 16.259 20.4231 16.4077C20.5641 16.4461 20.6955 16.4494 20.8173 16.4173C20.9391 16.3853 21 16.2795 21 16.1V5.63845C21.0961 5.65768 21.1881 5.68429 21.276 5.71828C21.3638 5.75224 21.4474 5.79743 21.5269 5.85385C21.6846 5.93718 21.8029 6.05577 21.8817 6.2096C21.9606 6.36345 22 6.53204 22 6.71537V16.4577C22 16.8538 21.8311 17.1615 21.4933 17.3808C21.1555 17.6 20.7859 17.6436 20.3846 17.5116C19.9218 17.3321 19.4491 17.2019 18.9664 17.1212C18.4837 17.0404 17.9949 17 17.5 17C16.5 17 15.5269 17.1398 14.5808 17.4193C13.6346 17.6987 12.7616 18.1359 11.9616 18.7308ZM14 15V6.5L19 1.5V10.5L14 15ZM11 17.0481V7.24422C10.2962 6.85704 9.56827 6.55287 8.81635 6.33172C8.06442 6.11057 7.2923 6 6.5 6C5.88333 6 5.31218 6.05512 4.78655 6.16537C4.2609 6.27564 3.78718 6.41539 3.36538 6.58463C3.26281 6.62308 3.17628 6.67756 3.10578 6.74807C3.03526 6.81859 3 6.90513 3 7.0077V16.1442C3 16.3237 3.0609 16.4295 3.1827 16.4616C3.30448 16.4936 3.43589 16.484 3.57692 16.4327C3.98077 16.2929 4.41892 16.1859 4.89135 16.1116C5.36378 16.0372 5.9 16 6.5 16C7.39487 16 8.23557 16.1045 9.0221 16.3134C9.80865 16.5224 10.4679 16.7673 11 17.0481Z" fill="#408A5E"/>
</g>
</svg>
