<svg width="16" height="16" viewBox="0 0 16 16" fill="none" xmlns="http://www.w3.org/2000/svg">
<path d="M13.545 2.9072C12.5075 2.43106 11.4127 2.09124 10.288 1.8962C10.2778 1.89449 10.2673 1.89597 10.258 1.90045C10.2487 1.90492 10.241 1.91217 10.236 1.9212C10.095 2.1712 9.93899 2.4982 9.82999 2.7542C8.61759 2.57021 7.38438 2.57021 6.17199 2.7542C6.0504 2.46902 5.91285 2.19091 5.75999 1.9212C5.75486 1.91227 5.74714 1.9051 5.73786 1.90064C5.72858 1.89618 5.71816 1.89463 5.70799 1.8962C4.58305 2.09044 3.48818 2.4303 2.45099 2.9072C2.44211 2.91059 2.43469 2.91695 2.42999 2.9252C0.355986 6.0242 -0.213014 9.0472 0.0659858 12.0322C0.0669858 12.0462 0.0759858 12.0602 0.0869858 12.0692C1.29472 12.9638 2.64558 13.6468 4.08199 14.0892C4.09213 14.0924 4.10302 14.0923 4.1131 14.0889C4.12317 14.0855 4.13189 14.0789 4.13799 14.0702C4.44599 13.6502 4.71999 13.2072 4.95599 12.7412C4.95924 12.7348 4.9611 12.7279 4.96143 12.7207C4.96176 12.7136 4.96056 12.7065 4.95791 12.6998C4.95526 12.6932 4.95121 12.6872 4.94605 12.6823C4.94089 12.6773 4.93473 12.6736 4.92799 12.6712C4.49715 12.5056 4.07988 12.3067 3.67999 12.0762C3.67268 12.072 3.66654 12.066 3.66211 12.0588C3.65768 12.0516 3.6551 12.0435 3.65461 12.035C3.65411 12.0266 3.65571 12.0182 3.65927 12.0106C3.66283 12.0029 3.66823 11.9963 3.67499 11.9912C3.75899 11.9282 3.84299 11.8622 3.92299 11.7962C3.93005 11.7905 3.93853 11.7869 3.94752 11.7856C3.9565 11.7844 3.96565 11.7856 3.97399 11.7892C6.59299 12.9852 9.42799 12.9852 12.015 11.7892C12.0236 11.7853 12.0331 11.784 12.0425 11.7852C12.0518 11.7864 12.0607 11.7902 12.068 11.7962C12.148 11.8622 12.232 11.9282 12.316 11.9912C12.3228 11.9962 12.3283 12.0028 12.3319 12.0104C12.3355 12.018 12.3372 12.0264 12.3368 12.0348C12.3364 12.0432 12.334 12.0514 12.3296 12.0586C12.3253 12.0658 12.3192 12.0719 12.312 12.0762C11.913 12.3088 11.4952 12.5075 11.063 12.6702C11.0563 12.6728 11.0502 12.6767 11.0452 12.6818C11.0401 12.6869 11.0362 12.693 11.0336 12.6997C11.0311 12.7064 11.03 12.7135 11.0304 12.7207C11.0308 12.7278 11.0327 12.7348 11.036 12.7412C11.276 13.2062 11.551 13.6502 11.853 14.0702C11.8591 14.0789 11.8678 14.0855 11.8779 14.0889C11.8879 14.0923 11.8988 14.0924 11.909 14.0892C13.3478 13.6482 14.7009 12.9651 15.91 12.0692C15.916 12.065 15.921 12.0594 15.9246 12.053C15.9282 12.0467 15.9304 12.0395 15.931 12.0322C16.265 8.5812 15.372 5.5832 13.565 2.9262C13.5632 2.92181 13.5604 2.91786 13.557 2.91458C13.5536 2.91131 13.5495 2.9088 13.545 2.9072ZM5.34699 10.2142C4.55799 10.2142 3.90899 9.4902 3.90899 8.6022C3.90899 7.7132 4.54599 6.9892 5.34699 6.9892C6.15399 6.9892 6.79699 7.7192 6.78499 8.6022C6.78499 9.4902 6.14799 10.2142 5.34699 10.2142ZM10.663 10.2142C9.87499 10.2142 9.22499 9.4902 9.22499 8.6022C9.22499 7.7132 9.86199 6.9892 10.663 6.9892C11.47 6.9892 12.114 7.7192 12.101 8.6022C12.101 9.4902 11.47 10.2142 10.663 10.2142Z" fill="white"/>
</svg>
