<svg width="234" height="32" viewBox="0 0 234 32" fill="none" xmlns="http://www.w3.org/2000/svg">
<path d="M17.91 21C18.19 21.68 18.42 22.18 18.6 22.5C18.8 22.82 19.01 23.03 19.23 23.13C19.45 23.21 19.72 23.27 20.04 23.31V24H11.67V23.31C12.47 23.27 12.91 23.03 12.99 22.59C13.09 22.15 13.02 21.62 12.78 21L11.28 17.1C11.16 17.2 11 17.27 10.8 17.31C10.62 17.33 10.42 17.34 10.2 17.34H6.81001C6.39001 17.34 6.07001 17.39 5.85001 17.49C5.63001 17.59 5.44001 17.84 5.28001 18.24L4.20001 21C3.94001 21.66 3.96001 22.2 4.26001 22.62C4.56001 23.04 5.15001 23.27 6.03001 23.31V24H0.570007V23.31C1.01001 23.27 1.38001 23.05 1.68001 22.65C2.00001 22.23 2.29001 21.68 2.55001 21L8.31001 6.41999C8.53001 5.89999 8.72001 5.38999 8.88001 4.88999C9.06001 4.38999 9.22001 3.87999 9.36001 3.35999H11.1C11.24 3.87999 11.4 4.38999 11.58 4.88999C11.76 5.38999 11.95 5.89999 12.15 6.41999L17.91 21ZM10.05 16.05C10.33 16.05 10.51 16.01 10.59 15.93C10.69 15.83 10.68 15.63 10.56 15.33L8.49001 10.2H8.43001L6.09001 16.17C6.19001 16.11 6.31001 16.08 6.45001 16.08C6.59001 16.06 6.75001 16.05 6.93001 16.05H10.05Z" fill="#3E8A5D"/>
<path d="M27.4385 20.7C27.4385 21.44 27.4885 22 27.5885 22.38C27.6885 22.74 27.8685 22.98 28.1285 23.1C28.3885 23.22 28.7585 23.29 29.2385 23.31V24H21.5885V23.31C21.9285 23.29 22.1985 23.22 22.3985 23.1C22.5985 22.98 22.7385 22.74 22.8185 22.38C22.8985 22 22.9385 21.44 22.9385 20.7V4.52999C22.9385 4.22999 22.8785 4.02999 22.7585 3.92999C22.6585 3.82999 22.4985 3.77999 22.2785 3.77999C22.1185 3.77999 21.9385 3.79999 21.7385 3.83999C21.5585 3.87999 21.3585 3.93999 21.1385 4.01999L20.8385 3.32999L27.3785 0.299988L27.5585 0.479987C27.5385 0.779987 27.5085 1.24999 27.4685 1.88999C27.4485 2.50999 27.4385 3.29999 27.4385 4.25999V20.7Z" fill="#3E8A5D"/>
<path d="M36.9014 20.7C36.9014 21.44 36.9514 22 37.0514 22.38C37.1514 22.74 37.3314 22.98 37.5914 23.1C37.8514 23.22 38.2214 23.29 38.7014 23.31V24H31.0514V23.31C31.3914 23.29 31.6614 23.22 31.8614 23.1C32.0614 22.98 32.2014 22.74 32.2814 22.38C32.3614 22 32.4014 21.44 32.4014 20.7V4.52999C32.4014 4.22999 32.3414 4.02999 32.2214 3.92999C32.1214 3.82999 31.9614 3.77999 31.7414 3.77999C31.5814 3.77999 31.4014 3.79999 31.2014 3.83999C31.0214 3.87999 30.8214 3.93999 30.6014 4.01999L30.3014 3.32999L36.8414 0.299988L37.0214 0.479987C37.0014 0.779987 36.9714 1.24999 36.9314 1.88999C36.9114 2.50999 36.9014 3.29999 36.9014 4.25999V20.7Z" fill="#3E8A5D"/>
<path d="M48.4802 4.04999H65.5802V8.99999H64.8902C64.7702 7.91999 64.4502 7.03999 63.9302 6.35999C63.4102 5.67999 62.5202 5.33999 61.2602 5.33999H59.4302V21C59.4302 21.98 59.5802 22.6 59.8802 22.86C60.1802 23.12 60.7302 23.27 61.5302 23.31V24H52.9802V23.31C53.5602 23.27 53.9802 23.12 54.2402 22.86C54.5002 22.6 54.6302 21.98 54.6302 21V5.33999H52.7702C51.5502 5.33999 50.6702 5.67999 50.1302 6.35999C49.6102 7.03999 49.2902 7.91999 49.1702 8.99999H48.4802V4.04999Z" fill="#3E8A5D"/>
<path d="M82.5225 20.7C82.5225 21.44 82.5725 22 82.6725 22.38C82.7725 22.74 82.9525 22.98 83.2125 23.1C83.4725 23.22 83.8425 23.29 84.3225 23.31V24H76.6725V23.31C77.0125 23.29 77.2825 23.22 77.4825 23.1C77.6825 22.98 77.8225 22.74 77.9025 22.38C77.9825 22 78.0225 21.44 78.0225 20.7V14.73C78.0225 14.15 77.9325 13.68 77.7525 13.32C77.5725 12.94 77.1325 12.75 76.4325 12.75C76.0525 12.75 75.6225 12.81 75.1425 12.93C74.6825 13.05 74.1425 13.31 73.5225 13.71V20.7C73.5225 21.44 73.5725 22 73.6725 22.38C73.7725 22.74 73.9525 22.98 74.2125 23.1C74.4725 23.22 74.8425 23.29 75.3225 23.31V24H67.6725V23.31C68.0125 23.29 68.2825 23.22 68.4825 23.1C68.6825 22.98 68.8225 22.74 68.9025 22.38C68.9825 22 69.0225 21.44 69.0225 20.7V4.52999C69.0225 4.22999 68.9625 4.02999 68.8425 3.92999C68.7425 3.82999 68.5825 3.77999 68.3625 3.77999C68.2025 3.77999 68.0225 3.79999 67.8225 3.83999C67.6425 3.87999 67.4425 3.93999 67.2225 4.01999L66.9225 3.32999L73.4625 0.299988L73.6425 0.479987C73.6225 0.779987 73.5925 1.24999 73.5525 1.88999C73.5325 2.50999 73.5225 3.29999 73.5225 4.25999V12.66C73.9225 12.2 74.3925 11.75 74.9325 11.31C75.4725 10.87 76.0725 10.5 76.7325 10.2C77.4125 9.89999 78.1425 9.74999 78.9225 9.74999C80.1625 9.74999 81.0725 10.05 81.6525 10.65C82.2325 11.23 82.5225 12.17 82.5225 13.47V20.7Z" fill="#3E8A5D"/>
<path d="M91.9509 20.7C91.9509 21.44 92.0009 22 92.1009 22.38C92.2009 22.74 92.3809 22.98 92.6409 23.1C92.9009 23.22 93.2709 23.29 93.7509 23.31V24H86.1009V23.31C86.4409 23.29 86.7109 23.22 86.9109 23.1C87.1109 22.98 87.2509 22.74 87.3309 22.38C87.4109 22 87.4509 21.44 87.4509 20.7V13.8C87.4509 13.5 87.3909 13.3 87.2709 13.2C87.1709 13.1 87.0109 13.05 86.7909 13.05C86.6309 13.05 86.4509 13.07 86.2509 13.11C86.0709 13.15 85.8709 13.21 85.6509 13.29L85.3509 12.6L91.8909 9.56999L92.0709 9.74999C92.0509 10.05 92.0209 10.52 91.9809 11.16C91.9609 11.78 91.9509 12.57 91.9509 13.53V20.7Z" fill="#3E8A5D"/>
<path d="M110.443 20.7C110.443 21.44 110.493 22 110.593 22.38C110.693 22.74 110.873 22.98 111.133 23.1C111.393 23.22 111.763 23.29 112.243 23.31V24H104.593V23.31C104.933 23.29 105.203 23.22 105.403 23.1C105.603 22.98 105.743 22.74 105.823 22.38C105.903 22 105.943 21.44 105.943 20.7V14.73C105.943 14.15 105.853 13.68 105.673 13.32C105.493 12.94 105.053 12.75 104.353 12.75C103.973 12.75 103.543 12.81 103.063 12.93C102.603 13.05 102.063 13.31 101.443 13.71V20.7C101.443 21.44 101.493 22 101.593 22.38C101.693 22.74 101.873 22.98 102.133 23.1C102.393 23.22 102.763 23.29 103.243 23.31V24H95.5931V23.31C95.9331 23.29 96.2031 23.22 96.4031 23.1C96.6031 22.98 96.7431 22.74 96.8231 22.38C96.9031 22 96.9431 21.44 96.9431 20.7V13.8C96.9431 13.5 96.8831 13.3 96.7631 13.2C96.6631 13.1 96.5031 13.05 96.2831 13.05C96.0431 13.05 95.7631 13.09 95.4431 13.17L95.1431 12.48L101.383 9.56999L101.563 9.74999C101.523 9.92999 101.473 10.31 101.413 10.89C101.373 11.47 101.353 12.06 101.353 12.66H101.443C101.843 12.2 102.313 11.75 102.853 11.31C103.393 10.87 103.993 10.5 104.653 10.2C105.333 9.89999 106.063 9.74999 106.843 9.74999C108.083 9.74999 108.993 10.05 109.573 10.65C110.153 11.23 110.443 12.17 110.443 13.47V20.7Z" fill="#3E8A5D"/>
<path d="M118.791 31.05C117.931 31.05 117.101 30.97 116.301 30.81C115.521 30.67 114.881 30.39 114.381 29.97C113.881 29.57 113.631 28.99 113.631 28.23C113.631 27.51 113.861 26.86 114.321 26.28C114.801 25.72 115.391 25.3 116.091 25.02L116.781 25.14C116.601 25.54 116.471 25.92 116.391 26.28C116.311 26.64 116.271 26.96 116.271 27.24C116.271 28.02 116.581 28.62 117.201 29.04C117.841 29.48 118.711 29.7 119.811 29.7C120.831 29.7 121.671 29.54 122.331 29.22C122.991 28.9 123.481 28.5 123.801 28.02C124.121 27.56 124.281 27.12 124.281 26.7C124.281 26.38 124.161 26.08 123.921 25.8C123.701 25.52 123.241 25.33 122.541 25.23L116.451 24.3C115.811 24.2 115.351 23.95 115.071 23.55C114.811 23.15 114.681 22.69 114.681 22.17C114.681 21.47 114.891 20.79 115.311 20.13C115.731 19.45 116.321 18.87 117.081 18.39C116.181 18.03 115.451 17.52 114.891 16.86C114.351 16.18 114.081 15.35 114.081 14.37C114.081 13.39 114.361 12.55 114.921 11.85C115.481 11.13 116.231 10.58 117.171 10.2C118.131 9.81999 119.221 9.62999 120.441 9.62999C121.941 9.62999 123.221 9.90999 124.281 10.47C124.921 10.39 125.441 10.1 125.841 9.59999C126.261 9.07999 126.471 8.32999 126.471 7.34999H127.161C127.661 7.60999 128.001 7.91999 128.181 8.27999C128.361 8.61999 128.451 8.95999 128.451 9.29999C128.451 9.99999 128.181 10.54 127.641 10.92C127.101 11.28 126.391 11.44 125.511 11.4C125.851 11.76 126.111 12.18 126.291 12.66C126.491 13.12 126.591 13.63 126.591 14.19C126.591 15.17 126.311 16.02 125.751 16.74C125.191 17.44 124.431 17.98 123.471 18.36C122.511 18.74 121.431 18.93 120.231 18.93C119.491 18.93 118.791 18.86 118.131 18.72C117.831 18.98 117.681 19.27 117.681 19.59C117.681 19.73 117.721 19.87 117.801 20.01C117.881 20.13 118.061 20.21 118.341 20.25L125.391 21.33C126.631 21.53 127.481 21.93 127.941 22.53C128.401 23.11 128.631 23.75 128.631 24.45C128.631 25.13 128.441 25.85 128.061 26.61C127.681 27.39 127.091 28.11 126.291 28.77C125.491 29.45 124.471 30 123.231 30.42C121.991 30.84 120.511 31.05 118.791 31.05ZM120.471 17.79C121.111 17.79 121.591 17.49 121.911 16.89C122.231 16.29 122.391 15.49 122.391 14.49C122.391 13.31 122.181 12.4 121.761 11.76C121.361 11.1 120.841 10.77 120.201 10.77C119.581 10.77 119.101 11.07 118.761 11.67C118.441 12.27 118.281 13.07 118.281 14.07C118.281 15.23 118.491 16.14 118.911 16.8C119.331 17.46 119.851 17.79 120.471 17.79Z" fill="#3E8A5D"/>
<path d="M134.937 24.45C133.417 24.45 132.187 24.18 131.247 23.64C130.327 23.1 129.867 22.34 129.867 21.36C129.867 20.98 129.947 20.58 130.107 20.16C130.267 19.72 130.557 19.3 130.977 18.9H131.667C131.767 19.68 131.927 20.4 132.147 21.06C132.387 21.7 132.737 22.21 133.197 22.59C133.677 22.97 134.317 23.16 135.117 23.16C135.757 23.16 136.287 23.02 136.707 22.74C137.147 22.44 137.367 22 137.367 21.42C137.367 20.88 137.187 20.43 136.827 20.07C136.487 19.71 136.047 19.39 135.507 19.11C134.967 18.81 134.387 18.52 133.767 18.24C133.147 17.96 132.567 17.64 132.027 17.28C131.487 16.9 131.037 16.45 130.677 15.93C130.337 15.41 130.167 14.76 130.167 13.98C130.167 12.68 130.687 11.65 131.727 10.89C132.787 10.13 134.217 9.74999 136.017 9.74999C136.697 9.74999 137.437 9.80999 138.237 9.92999C139.057 10.05 139.717 10.26 140.217 10.56V14.55H139.557C139.417 13.53 139.037 12.69 138.417 12.03C137.797 11.37 136.997 11.04 136.017 11.04C135.357 11.04 134.867 11.19 134.547 11.49C134.227 11.77 134.067 12.1 134.067 12.48C134.067 12.92 134.237 13.3 134.577 13.62C134.937 13.92 135.387 14.21 135.927 14.49C136.467 14.75 137.037 15.03 137.637 15.33C138.257 15.63 138.837 15.98 139.377 16.38C139.917 16.78 140.357 17.27 140.697 17.85C141.057 18.41 141.237 19.1 141.237 19.92C141.237 20.9 140.967 21.73 140.427 22.41C139.887 23.07 139.137 23.58 138.177 23.94C137.237 24.28 136.157 24.45 134.937 24.45Z" fill="#3E8A5D"/>
<path d="M161.936 24.45C160.056 24.45 158.356 24.04 156.836 23.22C155.316 22.38 154.116 21.2 153.236 19.68C152.356 18.16 151.916 16.39 151.916 14.37C151.916 12.63 152.216 11.09 152.816 9.74999C153.416 8.40999 154.236 7.28999 155.276 6.38999C156.336 5.46999 157.546 4.77999 158.906 4.31999C160.286 3.83999 161.756 3.59999 163.316 3.59999C164.376 3.59999 165.446 3.70999 166.526 3.92999C167.606 4.14999 168.526 4.40999 169.286 4.70999V9.29999H168.596C168.196 8.13999 167.716 7.24999 167.156 6.62999C166.596 5.98999 165.976 5.53999 165.296 5.27999C164.616 5.01999 163.896 4.88999 163.136 4.88999C161.076 4.88999 159.586 5.60999 158.666 7.04999C157.766 8.48999 157.316 10.55 157.316 13.23C157.316 15.17 157.526 16.89 157.946 18.39C158.386 19.89 159.006 21.06 159.806 21.9C160.626 22.74 161.616 23.16 162.776 23.16C163.236 23.16 163.736 23.11 164.276 23.01C164.836 22.89 165.266 22.58 165.566 22.08C165.786 21.72 165.906 21.27 165.926 20.73C165.966 20.19 165.986 19.57 165.986 18.87C165.986 17.75 165.926 16.94 165.806 16.44C165.706 15.92 165.496 15.59 165.176 15.45C164.856 15.29 164.376 15.19 163.736 15.15V14.46H171.236V15.15C170.956 15.17 170.756 15.28 170.636 15.48C170.536 15.68 170.486 16.04 170.486 16.56V18.3C170.486 18.84 170.496 19.35 170.516 19.83C170.536 20.31 170.606 20.81 170.726 21.33C170.406 21.65 169.846 22.06 169.046 22.56C168.246 23.04 167.236 23.48 166.016 23.88C164.816 24.26 163.456 24.45 161.936 24.45Z" fill="#3E8A5D"/>
<path d="M173.523 24V23.31C173.863 23.29 174.133 23.22 174.333 23.1C174.533 22.98 174.673 22.74 174.753 22.38C174.833 22 174.873 21.44 174.873 20.7V13.8C174.873 13.5 174.813 13.3 174.693 13.2C174.593 13.1 174.433 13.05 174.213 13.05C173.973 13.05 173.693 13.09 173.373 13.17L173.073 12.48L179.313 9.56999L179.493 9.74999C179.453 9.92999 179.403 10.32 179.343 10.92C179.303 11.52 179.283 12.2 179.283 12.96H179.343C180.083 11.84 180.913 11.03 181.833 10.53C182.773 10.03 183.783 9.81999 184.863 9.89999C185.023 11.64 185.023 13.39 184.863 15.15H184.173C184.033 14.25 183.763 13.68 183.363 13.44C182.963 13.2 182.543 13.08 182.103 13.08C181.603 13.08 181.133 13.15 180.693 13.29C180.253 13.41 179.813 13.65 179.373 14.01V20.7C179.373 21.44 179.423 22 179.523 22.38C179.623 22.74 179.823 22.98 180.123 23.1C180.443 23.22 180.893 23.29 181.473 23.31V24H173.523Z" fill="#3E8A5D"/>
<path d="M193.347 24.45C191.987 24.45 190.747 24.16 189.627 23.58C188.527 23 187.647 22.17 186.987 21.09C186.347 20.01 186.027 18.73 186.027 17.25C186.027 15.65 186.387 14.29 187.107 13.17C187.827 12.05 188.777 11.2 189.957 10.62C191.157 10.04 192.437 9.74999 193.797 9.74999C195.637 9.74999 197.027 10.25 197.967 11.25C198.927 12.23 199.407 13.52 199.407 15.12L190.557 16.23C190.677 17.93 191.177 19.15 192.057 19.89C192.937 20.63 193.957 21 195.117 21C195.697 21 196.357 20.9 197.097 20.7C197.837 20.48 198.507 20.09 199.107 19.53L199.587 20.01C199.027 21.35 198.257 22.43 197.277 23.25C196.317 24.05 195.007 24.45 193.347 24.45ZM192.897 11.04C192.217 11.04 191.667 11.4 191.247 12.12C190.827 12.82 190.587 13.79 190.527 15.03L194.877 14.49C194.837 13.55 194.667 12.74 194.367 12.06C194.087 11.38 193.597 11.04 192.897 11.04Z" fill="#3E8A5D"/>
<path d="M208.464 24.45C207.104 24.45 205.864 24.16 204.744 23.58C203.644 23 202.764 22.17 202.104 21.09C201.464 20.01 201.144 18.73 201.144 17.25C201.144 15.65 201.504 14.29 202.224 13.17C202.944 12.05 203.894 11.2 205.074 10.62C206.274 10.04 207.554 9.74999 208.914 9.74999C210.754 9.74999 212.144 10.25 213.084 11.25C214.044 12.23 214.524 13.52 214.524 15.12L205.674 16.23C205.794 17.93 206.294 19.15 207.174 19.89C208.054 20.63 209.074 21 210.234 21C210.814 21 211.474 20.9 212.214 20.7C212.954 20.48 213.624 20.09 214.224 19.53L214.704 20.01C214.144 21.35 213.374 22.43 212.394 23.25C211.434 24.05 210.124 24.45 208.464 24.45ZM208.014 11.04C207.334 11.04 206.784 11.4 206.364 12.12C205.944 12.82 205.704 13.79 205.644 15.03L209.994 14.49C209.954 13.55 209.784 12.74 209.484 12.06C209.204 11.38 208.714 11.04 208.014 11.04Z" fill="#3E8A5D"/>
<path d="M231.351 20.7C231.351 21.44 231.401 22 231.501 22.38C231.601 22.74 231.781 22.98 232.041 23.1C232.301 23.22 232.671 23.29 233.151 23.31V24H225.501V23.31C225.841 23.29 226.111 23.22 226.311 23.1C226.511 22.98 226.651 22.74 226.731 22.38C226.811 22 226.851 21.44 226.851 20.7V14.73C226.851 14.15 226.761 13.68 226.581 13.32C226.401 12.94 225.961 12.75 225.261 12.75C224.881 12.75 224.451 12.81 223.971 12.93C223.511 13.05 222.971 13.31 222.351 13.71V20.7C222.351 21.44 222.401 22 222.501 22.38C222.601 22.74 222.781 22.98 223.041 23.1C223.301 23.22 223.671 23.29 224.151 23.31V24H216.501V23.31C216.841 23.29 217.111 23.22 217.311 23.1C217.511 22.98 217.651 22.74 217.731 22.38C217.811 22 217.851 21.44 217.851 20.7V13.8C217.851 13.5 217.791 13.3 217.671 13.2C217.571 13.1 217.411 13.05 217.191 13.05C216.951 13.05 216.671 13.09 216.351 13.17L216.051 12.48L222.291 9.56999L222.471 9.74999C222.431 9.92999 222.381 10.31 222.321 10.89C222.281 11.47 222.261 12.06 222.261 12.66H222.351C222.751 12.2 223.221 11.75 223.761 11.31C224.301 10.87 224.901 10.5 225.561 10.2C226.241 9.89999 226.971 9.74999 227.751 9.74999C228.991 9.74999 229.901 10.05 230.481 10.65C231.061 11.23 231.351 12.17 231.351 13.47V20.7Z" fill="#3E8A5D"/>
<path d="M87 9C87 6.66667 88.6 2 95 2C95 5.04348 91.864 9 87 9Z" fill="#3E8A5D"/>
</svg>
