<svg width="1315" height="728" viewBox="0 0 1315 728" fill="none" xmlns="http://www.w3.org/2000/svg">
<path d="M1298.15 238.337H1081.27L1027.83 269.234H810.955L757.53 300.111H540.675L487.251 331.007H270.376L216.874 361.884H0V425.013H216.874L270.376 394.117H487.251L540.675 363.24H757.53L810.955 332.343H1027.83L1081.27 301.467H1298.15V238.337Z" fill="#3F3B3A"/>
<path d="M1255.07 265.127H1244.51V271.461H1255.07V265.127Z" fill="#F5C159"/>
<path d="M1292.86 265.127H1282.3V271.461H1292.86V265.127Z" fill="#F5C159"/>
<path d="M1216.15 265.127H1205.59V271.461H1216.15V265.127Z" fill="#F5C159"/>
<path d="M1139.39 265.127H1128.83V271.461H1139.39V265.127Z" fill="#F5C159"/>
<path d="M1177.18 265.127H1166.62V271.461H1177.18V265.127Z" fill="#F5C159"/>
<path d="M1100.49 265.127H1089.93V271.461H1100.49V265.127Z" fill="#F5C159"/>
<path fill-rule="evenodd" clip-rule="evenodd" d="M1032.28 300.13L1029.86 294.202L1026.73 296.023H1021.17L1021.59 302.357H1028.43L1032.28 300.13Z" fill="#F5C159"/>
<path d="M1062.11 275.573L1052.97 280.854L1056.14 286.339L1065.28 281.057L1062.11 275.573Z" fill="#F5C159"/>
<path d="M993.078 296.023H982.521V302.358H993.078V296.023Z" fill="#F5C159"/>
<path d="M916.312 296.023H905.755V302.358H916.312V296.023Z" fill="#F5C159"/>
<path d="M954.104 296.023H943.547V302.358H954.104V296.023Z" fill="#F5C159"/>
<path d="M877.396 296.023H866.839V302.358H877.396V296.023Z" fill="#F5C159"/>
<path d="M800.038 301.778L790.899 307.062L794.07 312.546L803.209 307.261L800.038 301.778Z" fill="#F5C159"/>
<path d="M838.442 296.023H827.885V302.358H838.442V296.023Z" fill="#F5C159"/>
<path fill-rule="evenodd" clip-rule="evenodd" d="M769.463 326.687L766.286 321.205L757.879 326.067L759.913 332.208L769.463 326.687Z" fill="#F5C159"/>
<path d="M693.239 326.9H682.682V333.234H693.239V326.9Z" fill="#F5C159"/>
<path d="M731.051 326.9H720.493V333.234H731.051V326.9Z" fill="#F5C159"/>
<path d="M654.343 326.9H643.786V333.234H654.343V326.9Z" fill="#F5C159"/>
<path d="M577.557 326.9H567V333.234H577.557V326.9Z" fill="#F5C159"/>
<path d="M615.369 326.9H604.812V333.234H615.369V326.9Z" fill="#F5C159"/>
<path fill-rule="evenodd" clip-rule="evenodd" d="M539.649 334.164L537.595 328.043L527.736 333.738L530.912 339.22L539.649 334.164Z" fill="#F5C159"/>
<path d="M470.166 357.796H459.609V364.13H470.166V357.796Z" fill="#F5C159"/>
<path d="M503.208 348.047L494.069 353.332L497.24 358.815L506.379 353.531L503.208 348.047Z" fill="#F5C159"/>
<path d="M431.269 357.796H420.712V364.13H431.269V357.796Z" fill="#F5C159"/>
<path d="M354.503 357.796H343.946V364.13H354.503V357.796Z" fill="#F5C159"/>
<path d="M392.296 357.796H381.739V364.13H392.296V357.796Z" fill="#F5C159"/>
<path d="M315.588 357.796H305.031V364.13H315.588V357.796Z" fill="#F5C159"/>
<path d="M241.081 374.208L231.938 379.487L235.105 384.972L244.248 379.694L241.081 374.208Z" fill="#F5C159"/>
<path fill-rule="evenodd" clip-rule="evenodd" d="M276.769 364.13L276.323 357.796H269.272L265.049 360.237L267.49 366.126L270.977 364.13H276.769Z" fill="#F5C159"/>
<path d="M208.177 388.673H197.62V395.008H208.177V388.673Z" fill="#F5C159"/>
<path d="M131.411 388.673H120.854V395.008H131.411V388.673Z" fill="#F5C159"/>
<path d="M169.203 388.673H158.646V395.008H169.203V388.673Z" fill="#F5C159"/>
<path d="M92.4951 388.673H81.9381V395.008H92.4951V388.673Z" fill="#F5C159"/>
<path d="M15.729 388.673H5.172V395.008H15.729V388.673Z" fill="#F5C159"/>
<path d="M53.5407 388.673H42.9836V395.008H53.5407V388.673Z" fill="#F5C159"/>
<path d="M216.971 425.013H0V727.273H216.971V425.013Z" fill="white"/>
<path d="M173.891 714.043H128.951V719.564H173.891V714.043Z" fill="#C6463C"/>
<path d="M216.874 714.043H171.934V719.564H216.874V714.043Z" fill="#E54E6D"/>
<path d="M130.907 714.043H85.9672V719.564H130.907V714.043Z" fill="#E46A2C"/>
<path d="M87.9237 714.043H42.9836V719.564H87.9237V714.043Z" fill="#EC9136"/>
<path d="M44.94 714.043H0V719.564H44.94V714.043Z" fill="#F4B840"/>
<path d="M244.981 697.849V703.447L270.589 688.764V683.089L244.981 697.849Z" fill="#853689"/>
<path d="M245.369 697.617L216.874 714.043V719.564L245.369 703.234V697.617Z" fill="#C1405F"/>
<mask id="mask0_15_2948" style="mask-type:luminance" maskUnits="userSpaceOnUse" x="4" y="459" width="201" height="78">
<path d="M204.438 497.944L175.479 459.319V472.742H29.9278C23.2491 472.742 16.8439 475.396 12.1214 480.118C7.39883 484.841 4.74585 491.246 4.74585 497.924C4.74585 504.603 7.39883 511.008 12.1214 515.731C16.8439 520.453 23.2491 523.106 29.9278 523.106H175.479V536.937L204.438 497.944Z" fill="white"/>
</mask>
<g mask="url(#mask0_15_2948)">
<rect x="-33" y="446" width="249" height="113" fill="#408A5E"/>
</g>
<path d="M47.655 502.093C49.9527 492.358 43.9234 482.603 34.1881 480.305C24.4528 478.007 14.6981 484.037 12.4004 493.772C10.1026 503.507 16.132 513.262 25.8672 515.56C35.6025 517.858 45.3573 511.828 47.655 502.093Z" fill="white"/>
<path d="M47.655 502.093C49.9527 492.358 43.9234 482.603 34.1881 480.305C24.4528 478.007 14.6981 484.037 12.4004 493.772C10.1026 503.507 16.132 513.262 25.8672 515.56C35.6025 517.858 45.3573 511.828 47.655 502.093Z" fill="white"/>
<path d="M29.8309 519.484C41.6203 519.484 51.1774 509.926 51.1774 498.137C51.1774 486.348 41.6203 476.791 29.8309 476.791C18.0415 476.791 8.48438 486.348 8.48438 498.137C8.48438 509.926 18.0415 519.484 29.8309 519.484Z" fill="white"/>
<path d="M216.874 425.012L270.376 394.116V696.261L216.874 727.37V425.012Z" fill="#E2DEDE"/>
<path d="M270.589 688.764V683.089L244.981 697.849V703.447" fill="#853689"/>
<path d="M216.874 714.043V719.564L245.369 703.234V697.617" fill="#C1405F"/>
<g style="mix-blend-mode:multiply" opacity="0.5">
<path d="M25.1625 690.023C32.7171 681.675 38.0828 660.251 38.0828 635.146C38.0828 610.042 32.7171 588.657 25.1625 580.269V690.023Z" fill="white"/>
<path d="M25.1625 690.023C32.4847 680.474 37.7341 659.612 37.7341 635.146C37.7341 610.681 32.4847 589.935 25.1625 580.269V690.023Z" fill="#FCFCFC"/>
<path d="M25.1625 690.023C32.2328 679.273 37.3661 659.03 37.3661 635.146C37.3661 611.262 32.2328 591.233 25.1625 580.269V690.023Z" fill="#FAFAFA"/>
<path d="M25.1625 690.023C31.981 678.072 37.0174 658.314 37.0174 635.146C37.0174 611.979 31.981 592.531 25.1625 580.269V690.023Z" fill="#F7F7F7"/>
<path d="M25.1625 690.023C31.7486 676.871 36.6494 657.674 36.6494 635.146C36.6494 612.618 31.7486 593.848 25.1625 580.269V690.023Z" fill="#F5F5F5"/>
<path d="M25.1625 690.023C32.6367 672.7 36.4296 654.013 36.3007 635.146C36.3626 616.286 32.5724 597.612 25.1625 580.269V690.023Z" fill="#F2F2F2"/>
<path d="M25.1625 690.023C32.2062 672.581 35.8614 653.957 35.9326 635.146C35.7887 616.343 32.1361 597.732 25.1625 580.269V690.023Z" fill="#F0F0F0"/>
<path d="M25.1625 690.023C30.9737 673.268 35.584 655.737 35.584 635.146C35.584 614.555 31.0125 597.741 25.1625 580.269V690.023Z" fill="#EDEDED"/>
<path d="M25.1625 690.023C30.78 672.067 35.2159 655.156 35.2159 635.146C35.2159 615.136 30.78 599.059 25.1625 580.269V690.023Z" fill="#EBEBEB"/>
<path d="M25.1625 690.023C30.5282 670.866 34.8479 654.44 34.8479 635.146C34.8479 615.853 30.5089 600.279 25.1625 580.269V690.023Z" fill="#E8E8E8"/>
<path d="M25.1625 690.023C30.2764 669.665 34.4992 653.8 34.4992 635.146C34.4992 616.492 30.2764 601.654 25.1625 580.269V690.023Z" fill="#E6E6E6"/>
<path d="M25.1625 690.023C30.044 668.464 34.1506 653.219 34.1506 635.146C34.1506 617.073 30.044 602.972 25.1625 580.269V690.023Z" fill="#E3E3E3"/>
<path d="M25.1625 690.023C29.7921 667.263 33.7825 652.502 33.7825 635.146C33.7825 617.79 29.7921 604.269 25.1625 580.269V690.023Z" fill="#E0E0E0"/>
<path d="M25.1625 690.023C29.5597 666.062 33.4339 651.863 33.4339 635.146C33.4339 618.429 29.5597 605.567 25.1625 580.269V690.023Z" fill="#DEDEDE"/>
<path d="M25.1625 690.023C29.3079 664.842 33.0658 651.282 33.0658 635.146C33.0658 619.01 29.3079 606.865 25.1625 580.269V690.023Z" fill="#DBDBDB"/>
<path d="M25.1625 690.023C29.0367 663.66 32.7172 650.565 32.7172 635.146C32.7172 619.727 29.056 608.182 25.1625 580.269V690.023Z" fill="#D9D9D9"/>
<path d="M25.1625 690.023C28.8236 662.459 32.3491 649.926 32.3491 635.146C32.3491 620.657 28.8236 609.48 25.1625 580.269V690.023Z" fill="#D6D6D6"/>
<path d="M25.1625 690.023C28.5718 661.258 32.0003 649.345 32.0003 635.146C32.0003 621.335 28.5718 610.778 25.1625 580.269V690.023Z" fill="#D4D4D4"/>
<path d="M25.1625 690.023C28.3393 660.057 31.6323 648.648 31.6323 635.146C31.6323 621.994 28.3393 612.076 25.1625 580.269V690.023Z" fill="#D1D1D1"/>
<path d="M25.1625 690.023C28.0875 658.856 31.2644 647.989 31.2644 635.146C31.2644 622.652 28.0875 613.393 25.1625 580.269V690.023Z" fill="#CFCFCF"/>
<path d="M25.1625 690.023C27.8551 657.655 30.9737 647.408 30.9737 635.146C30.9737 623.311 27.9132 614.691 25.1625 580.269V690.023Z" fill="#CCCCCC"/>
<path d="M25.1625 690.023C27.6032 656.454 30.5475 646.711 30.5475 635.146C30.5475 623.989 27.6032 615.989 25.1625 580.269V690.023Z" fill="#C9C9C9"/>
<path d="M25.1625 690.023C27.3514 655.253 30.1989 646.052 30.1989 635.146C30.1989 624.647 27.3514 617.306 25.1625 580.269V690.023Z" fill="#C7C7C7"/>
<path d="M25.1625 690.023C27.0996 654.052 29.8308 645.471 29.8308 635.146C29.8308 625.306 27.119 618.604 25.1625 580.269V690.023Z" fill="#C4C4C4"/>
<path d="M25.1625 690.023C26.8672 652.851 29.4822 644.774 29.4822 635.146C29.4822 625.965 26.8672 619.902 25.1625 580.269V690.023Z" fill="#C2C2C2"/>
<path d="M25.1625 690.023C26.6347 651.65 29.0367 644.115 29.0367 635.146C29.0367 626.643 26.5572 621.199 25.1625 580.269V690.023Z" fill="#BFBFBF"/>
<path d="M25.1625 690.023C26.3829 650.449 28.7655 643.534 28.7655 635.146C28.7655 627.301 26.3829 622.517 25.1625 580.269V690.023Z" fill="#BDBDBD"/>
<path d="M25.1625 690.023C26.1504 649.345 28.3974 642.836 28.3974 635.146C28.3974 627.96 26.1504 623.814 25.1625 580.269V690.023Z" fill="#BABABA"/>
<path d="M25.1625 690.023C25.8986 648.047 28.0488 642.178 28.0488 635.146C28.0488 628.638 25.8986 625.112 25.1625 580.269V690.023Z" fill="#B8B8B8"/>
<path d="M25.1625 690.023C25.6468 646.846 27.6807 641.597 27.6807 635.146C27.6807 629.335 25.7437 626.429 25.1625 580.269V690.023Z" fill="#B5B5B5"/>
<path d="M25.1625 690.023C25.4144 645.645 27.332 640.899 27.332 635.146C27.332 629.955 25.395 627.727 25.1625 580.269V690.023Z" fill="#B3B3B3"/>
<path d="M25.1625 690.023C25.1625 644.444 26.964 640.241 26.964 635.146C26.964 630.614 25.1625 629.025 25.1625 580.269V690.023Z" fill="#B0B0B0"/>
</g>
<path d="M217.843 178.114H215.867V570.642H217.843V178.114Z" fill="#408A5E"/>
<path d="M216.855 123.546C212.38 123.546 208.089 125.324 204.925 128.488C201.761 131.652 199.983 135.944 199.983 140.418C199.983 149.755 216.855 174.046 216.855 174.046C216.855 174.046 233.746 149.755 233.746 140.418C233.746 138.201 233.309 136.005 232.46 133.957C231.611 131.909 230.367 130.048 228.798 128.481C227.229 126.914 225.367 125.672 223.318 124.825C221.268 123.978 219.072 123.544 216.855 123.546ZM216.855 148.244C214.8 148.244 212.829 147.428 211.376 145.975C209.923 144.522 209.107 142.551 209.107 140.496C209.107 138.441 209.923 136.47 211.376 135.017C212.829 133.564 214.8 132.747 216.855 132.747C218.91 132.747 220.881 133.564 222.334 135.017C223.787 136.47 224.603 138.441 224.603 140.496C224.603 142.551 223.787 144.522 222.334 145.975C220.881 147.428 218.91 148.244 216.855 148.244Z" fill="#408A5E"/>
<path d="M487.348 394.02H270.376V696.28H487.348V394.02Z" fill="white"/>
<path d="M444.267 683.05H399.327V688.571H444.267V683.05Z" fill="#585AF0"/>
<path d="M487.251 683.05H442.311V688.571H487.251V683.05Z" fill="#4194F3"/>
<path d="M401.284 683.05H356.344V688.571H401.284V683.05Z" fill="#6E1FED"/>
<path d="M358.3 683.05H313.36V688.571H358.3V683.05Z" fill="#8639AA"/>
<path d="M315.316 683.05H270.376V688.571H315.316V683.05Z" fill="#AA37AD"/>
<mask id="mask1_15_2948" style="mask-type:luminance" maskUnits="userSpaceOnUse" x="275" y="428" width="200" height="78">
<path d="M474.815 466.951L445.759 428.325V441.749H300.207C293.529 441.749 287.123 444.402 282.401 449.125C277.678 453.847 275.025 460.253 275.025 466.931C275.025 473.61 277.678 480.015 282.401 484.738C287.123 489.46 293.529 492.113 300.207 492.113H445.759V505.944L474.815 466.951Z" fill="white"/>
</mask>
<g mask="url(#mask1_15_2948)">
<rect x="237" y="415" width="249" height="113" fill="#408A5E"/>
</g>
<path d="M300.323 485.062C310.326 485.062 318.435 476.953 318.435 466.95C318.435 456.947 310.326 448.839 300.323 448.839C290.321 448.839 282.212 456.947 282.212 466.95C282.212 476.953 290.321 485.062 300.323 485.062Z" fill="white"/>
<path d="M300.323 485.062C310.326 485.062 318.435 476.953 318.435 466.95C318.435 456.947 310.326 448.839 300.323 448.839C290.321 448.839 282.212 456.947 282.212 466.95C282.212 476.953 290.321 485.062 300.323 485.062Z" fill="white"/>
<path d="M321.229 470.512C323.092 458.871 315.165 447.924 303.523 446.061C291.882 444.199 280.935 452.126 279.072 463.767C277.21 475.409 285.137 486.356 296.778 488.218C308.42 490.081 319.367 482.153 321.229 470.512Z" fill="white"/>
<path d="M487.251 394.019L540.753 363.123L540.675 665.325L487.251 696.377V394.019Z" fill="#E2DEDE"/>
<path d="M515.358 666.856V672.455L540.966 657.772V652.096L515.358 666.856Z" fill="#C1405F"/>
<path d="M515.745 666.624L487.251 683.05V688.571L515.745 672.241V666.624Z" fill="#6E1FED"/>
<g style="mix-blend-mode:multiply" opacity="0.5">
<path d="M295.539 659.03C303.094 650.682 308.479 629.258 308.479 604.153C308.479 579.049 303.094 557.663 295.539 549.276V659.03Z" fill="white"/>
<path d="M295.539 659.03C302.861 649.481 308.111 628.618 308.111 604.153C308.111 579.688 302.861 558.942 295.539 549.276V659.03Z" fill="#FCFCFC"/>
<path d="M295.539 659.03C302.609 648.28 307.762 628.037 307.762 604.153C307.762 580.269 302.609 560.24 295.539 549.276V659.03Z" fill="#FAFAFA"/>
<path d="M295.539 659.03C302.377 647.079 307.394 627.321 307.394 604.153C307.394 580.986 302.377 561.538 295.539 549.276V659.03Z" fill="#F7F7F7"/>
<path d="M295.539 659.03C302.125 645.878 307.026 626.681 307.026 604.153C307.026 581.625 302.125 562.855 295.539 549.276V659.03Z" fill="#F5F5F5"/>
<path d="M295.539 659.03C303.013 641.707 306.806 623.02 306.677 604.153C306.739 585.293 302.949 566.619 295.539 549.276V659.03Z" fill="#F2F2F2"/>
<path d="M295.539 659.03C302.583 641.588 306.238 622.964 306.309 604.153C306.165 585.35 302.513 566.739 295.539 549.276V659.03Z" fill="#F0F0F0"/>
<path d="M295.539 659.03C301.35 642.275 305.96 624.744 305.96 604.153C305.96 583.562 301.389 566.748 295.539 549.276V659.03Z" fill="#EDEDED"/>
<path d="M295.539 659.03C301.156 641.074 305.592 624.163 305.592 604.153C305.592 584.143 301.156 568.065 295.539 549.276V659.03Z" fill="#EBEBEB"/>
<path d="M295.539 659.03C300.905 639.873 305.224 623.446 305.224 604.153C305.224 584.86 300.885 569.286 295.539 549.276V659.03Z" fill="#E8E8E8"/>
<path d="M295.539 659.03C300.653 638.672 304.876 622.807 304.876 604.153C304.876 585.499 300.653 570.661 295.539 549.276V659.03Z" fill="#E6E6E6"/>
<path d="M295.539 659.03C300.42 637.471 304.527 622.226 304.527 604.153C304.527 586.08 300.42 571.978 295.539 549.276V659.03Z" fill="#E3E3E3"/>
<path d="M295.539 659.03C300.169 636.27 304.159 621.509 304.159 604.153C304.159 586.797 300.169 573.276 295.539 549.276V659.03Z" fill="#E0E0E0"/>
<path d="M295.539 659.03C299.936 635.069 303.81 620.87 303.81 604.153C303.81 587.436 299.936 574.574 295.539 549.276V659.03Z" fill="#DEDEDE"/>
<path d="M295.539 659.03C299.684 633.848 303.442 620.289 303.442 604.153C303.442 588.017 299.684 575.872 295.539 549.276V659.03Z" fill="#DBDBDB"/>
<path d="M295.539 659.03C299.413 632.667 303.093 619.592 303.093 604.153C303.093 589.005 299.452 577.189 295.539 549.276V659.03Z" fill="#D9D9D9"/>
<path d="M295.539 659.03C299.2 631.466 302.725 618.933 302.725 604.153C302.725 589.664 299.2 578.487 295.539 549.276V659.03Z" fill="#D6D6D6"/>
<path d="M295.539 659.03C298.948 630.265 302.377 618.352 302.377 604.153C302.377 590.342 298.948 579.785 295.539 549.276V659.03Z" fill="#D4D4D4"/>
<path d="M295.539 659.03C298.716 629.064 302.009 617.655 302.009 604.153C302.009 591 298.716 581.102 295.539 549.276V659.03Z" fill="#D1D1D1"/>
<path d="M295.539 659.03C298.464 627.863 301.66 616.996 301.66 604.153C301.66 591.659 298.464 582.4 295.539 549.276V659.03Z" fill="#CFCFCF"/>
<path d="M295.539 659.03C298.231 626.662 301.35 616.415 301.35 604.153C301.35 592.318 298.29 583.698 295.539 549.276V659.03Z" fill="#CCCCCC"/>
<path d="M295.539 659.03C297.98 625.461 300.943 615.717 300.943 604.153C300.943 592.996 297.98 584.995 295.539 549.276V659.03Z" fill="#C9C9C9"/>
<path d="M295.539 659.03C297.747 624.26 300.575 615.059 300.575 604.153C300.575 593.654 297.747 586.313 295.539 549.276V659.03Z" fill="#C7C7C7"/>
<path d="M295.539 659.03C297.476 623.059 300.207 614.478 300.207 604.153C300.207 594.313 297.495 587.611 295.539 549.276V659.03Z" fill="#C4C4C4"/>
<path d="M295.539 659.03C297.244 621.858 299.859 613.78 299.859 604.153C299.859 594.991 297.244 588.908 295.539 549.276V659.03Z" fill="#C2C2C2"/>
<path d="M295.539 659.03C297.011 620.657 299.413 613.122 299.413 604.153C299.413 595.649 296.934 590.226 295.539 549.276V659.03Z" fill="#BFBFBF"/>
<path d="M295.539 659.03C296.759 619.456 299.142 612.541 299.142 604.153C299.142 596.308 296.759 591.523 295.539 549.276V659.03Z" fill="#BDBDBD"/>
<path d="M295.539 659.03C296.527 618.352 298.774 611.843 298.774 604.153C298.774 596.967 296.527 592.821 295.539 549.276V659.03Z" fill="#BABABA"/>
<path d="M295.539 659.03C296.275 617.054 298.425 611.185 298.425 604.153C298.425 597.645 296.275 594.119 295.539 549.276V659.03Z" fill="#B8B8B8"/>
<path d="M295.539 659.03C296.043 615.853 298.057 610.604 298.057 604.153C298.057 598.342 296.12 595.436 295.539 549.276V659.03Z" fill="#B5B5B5"/>
<path d="M295.539 659.03C295.791 614.652 297.708 609.906 297.708 604.153C297.708 598.962 295.771 596.734 295.539 549.276V659.03Z" fill="#B3B3B3"/>
<path d="M295.539 659.03C295.539 613.451 297.34 609.248 297.34 604.153C297.34 599.62 295.539 598.032 295.539 549.276V659.03Z" fill="#B0B0B0"/>
</g>
<path d="M488.239 147.217H486.263V539.745H488.239V147.217Z" fill="#408A5E"/>
<path d="M487.251 92.6504C482.771 92.6504 478.475 94.43 475.307 97.5977C472.139 100.765 470.36 105.062 470.36 109.542C470.36 118.859 487.251 143.15 487.251 143.15C487.251 143.15 504.123 118.859 504.123 109.542C504.123 105.065 502.346 100.772 499.182 97.6046C496.019 94.4374 491.727 92.6555 487.251 92.6504ZM487.251 117.348C485.196 117.348 483.225 116.532 481.772 115.079C480.319 113.626 479.503 111.655 479.503 109.6C479.503 107.545 480.319 105.574 481.772 104.121C483.225 102.668 485.196 101.851 487.251 101.851C489.306 101.851 491.277 102.668 492.73 104.121C494.183 105.574 494.999 107.545 494.999 109.6C494.999 111.655 494.183 113.626 492.73 115.079C491.277 116.532 489.306 117.348 487.251 117.348Z" fill="#408A5E"/>
<path d="M757.608 363.24H540.636V665.5H757.608V363.24Z" fill="white"/>
<path d="M714.527 652.289H669.587V657.81H714.527V652.289Z" fill="#585AF0"/>
<path d="M757.511 652.289H712.571V657.81H757.511V652.289Z" fill="#4194F3"/>
<path d="M671.544 652.289H626.604V657.81H671.544V652.289Z" fill="#6E1FED"/>
<path d="M628.56 652.289H583.62V657.81H628.56V652.289Z" fill="#AA37AD"/>
<path d="M585.576 652.289H540.636V657.81H585.576V652.289Z" fill="#E54E6D"/>
<mask id="mask2_15_2948" style="mask-type:luminance" maskUnits="userSpaceOnUse" x="544" y="398" width="200" height="78">
<path d="M743.673 436.625L714.714 398V411.443H569.182C562.503 411.443 556.098 414.096 551.376 418.819C546.653 423.541 544 429.947 544 436.625C544 443.304 546.653 449.709 551.376 454.432C556.098 459.154 562.503 461.807 569.182 461.807H714.714V475.638L743.673 436.625Z" fill="white"/>
</mask>
<g mask="url(#mask2_15_2948)">
<rect x="506" y="385" width="249" height="113" fill="#408A5E"/>
</g>
<path d="M588.18 440.325C590.469 430.588 584.431 420.838 574.694 418.549C564.957 416.26 555.207 422.297 552.918 432.035C550.629 441.772 556.667 451.522 566.404 453.811C576.141 456.1 585.891 450.062 588.18 440.325Z" fill="white"/>
<path d="M757.511 363.24L810.955 332.344L810.935 634.604L757.511 665.617V363.24Z" fill="#E2DEDE"/>
<path d="M785.618 636.076V641.674L811.245 626.991V621.315L785.618 636.076Z" fill="#3D98C1"/>
<path d="M786.005 635.863L757.511 652.289V657.79L786.005 641.461V635.863Z" fill="#585AF0"/>
<g style="mix-blend-mode:multiply" opacity="0.5">
<path d="M565.818 628.27C573.373 619.901 578.739 598.497 578.739 573.392C578.739 548.288 573.373 526.903 565.818 518.515V628.27Z" fill="white"/>
<path d="M565.818 628.27C573.121 618.7 578.39 597.838 578.39 573.392C578.39 548.947 573.121 528.162 565.818 518.515V628.27Z" fill="#FCFCFC"/>
<path d="M565.818 628.27C572.889 617.499 578.022 597.276 578.022 573.392C578.022 549.508 572.889 529.46 565.818 518.515V628.27Z" fill="#FAFAFA"/>
<path d="M565.818 628.27C572.637 616.298 577.654 596.56 577.654 573.392C577.654 550.225 572.637 530.777 565.818 518.515V628.27Z" fill="#F7F7F7"/>
<path d="M565.818 628.27C572.385 615.098 577.305 595.901 577.305 573.392C577.305 550.884 572.385 532.075 565.818 518.515V628.27Z" fill="#F5F5F5"/>
<path d="M565.818 628.27C573.295 610.946 577.094 592.26 576.976 573.392C577.046 554.534 573.262 535.859 565.857 518.515L565.818 628.27Z" fill="#F2F2F2"/>
<path d="M565.818 628.27C572.851 610.824 576.506 592.202 576.589 573.392C576.435 554.59 572.782 535.981 565.818 518.515V628.27Z" fill="#F0F0F0"/>
<path d="M565.818 628.27C571.63 611.495 576.22 593.983 576.22 573.392C576.22 552.801 571.668 535.988 565.818 518.515V628.27Z" fill="#EDEDED"/>
<path d="M565.818 628.27C571.417 610.294 575.872 593.402 575.872 573.392C575.872 553.382 571.417 537.285 565.818 518.515V628.27Z" fill="#EBEBEB"/>
<path d="M565.818 628.27C571.184 609.093 575.504 592.686 575.504 573.392C575.504 554.099 571.184 538.525 565.818 518.515V628.27Z" fill="#E8E8E8"/>
<path d="M565.818 628.27C570.932 607.892 575.155 592.046 575.155 573.392C575.155 554.738 570.932 539.9 565.818 518.515V628.27Z" fill="#E6E6E6"/>
<path d="M565.818 628.27C570.68 606.691 574.787 591.465 574.787 573.392C574.787 555.32 570.68 541.198 565.818 518.515V628.27Z" fill="#E3E3E3"/>
<path d="M565.818 628.27C570.448 605.49 574.438 590.749 574.438 573.392C574.438 556.036 570.448 542.496 565.818 518.515V628.27Z" fill="#E0E0E0"/>
<path d="M565.818 628.27C570.196 604.289 574.07 590.109 574.07 573.392C574.07 556.675 570.196 543.813 565.818 518.515V628.27Z" fill="#DEDEDE"/>
<path d="M565.818 628.27C569.964 603.088 573.722 589.528 573.722 573.392C573.722 557.257 569.964 545.111 565.818 518.515V628.27Z" fill="#DBDBDB"/>
<path d="M565.818 628.27C569.693 601.887 573.354 588.811 573.354 573.392C573.354 557.973 569.712 546.409 565.818 518.515V628.27Z" fill="#D9D9D9"/>
<path d="M565.818 628.27C569.46 600.686 573.005 588.172 573.005 573.392C573.005 558.613 569.46 547.707 565.818 518.515V628.27Z" fill="#D6D6D6"/>
<path d="M565.818 628.27C569.228 599.485 572.637 587.591 572.637 573.392C572.637 559.562 569.228 549.024 565.818 518.515V628.27Z" fill="#D4D4D4"/>
<path d="M565.818 628.27C568.976 598.284 572.288 586.874 572.288 573.392C572.288 560.22 568.976 550.322 565.818 518.515V628.27Z" fill="#D1D1D1"/>
<path d="M565.818 628.27C568.743 597.102 571.92 586.235 571.92 573.392C571.92 560.898 568.743 551.62 565.818 518.515V628.27Z" fill="#CFCFCF"/>
<path d="M565.818 628.27C568.492 595.901 571.63 585.654 571.63 573.392C571.63 561.557 568.55 552.937 565.818 518.515V628.27Z" fill="#CCCCCC"/>
<path d="M565.818 628.27C568.259 594.7 571.204 584.937 571.204 573.392C571.204 562.215 568.259 554.235 565.818 518.515V628.27Z" fill="#C9C9C9"/>
<path d="M565.818 628.27C568.007 593.499 570.835 584.298 570.835 573.392C570.835 562.874 568.007 555.533 565.818 518.515V628.27Z" fill="#C7C7C7"/>
<path d="M565.818 628.27C567.755 592.298 570.487 583.717 570.487 573.392C570.487 563.552 567.755 556.83 565.818 518.515V628.27Z" fill="#C4C4C4"/>
<path d="M565.818 628.27C567.523 591.097 570.119 583 570.119 573.392C570.119 564.211 567.523 558.148 565.818 518.515V628.27Z" fill="#C2C2C2"/>
<path d="M565.818 628.27C567.271 589.896 569.693 582.361 569.693 573.392C569.693 564.869 567.194 559.445 565.818 518.515V628.27Z" fill="#BFBFBF"/>
<path d="M565.818 628.27C567.039 588.695 569.402 581.78 569.402 573.392C569.402 565.547 567.039 560.743 565.818 518.515V628.27Z" fill="#BDBDBD"/>
<path d="M565.818 628.27C566.787 587.591 569.053 581.063 569.053 573.392C569.053 566.206 566.787 562.06 565.818 518.515V628.27Z" fill="#BABABA"/>
<path d="M565.818 628.27C566.555 586.293 568.685 580.424 568.685 573.392C568.685 566.864 566.555 563.358 565.818 518.515V628.27Z" fill="#B8B8B8"/>
<path d="M565.818 628.27C566.303 585.092 568.337 579.843 568.337 573.392C568.337 567.581 566.4 564.656 565.818 518.515V628.27Z" fill="#B5B5B5"/>
<path d="M565.818 628.27C566.051 583.891 567.969 579.126 567.969 573.392C567.969 568.201 566.031 565.954 565.818 518.515V628.27Z" fill="#B3B3B3"/>
<path d="M565.818 628.27C565.818 582.69 567.62 578.487 567.62 573.392C567.62 568.86 565.818 567.271 565.818 518.515V628.27Z" fill="#B0B0B0"/>
</g>
<path d="M758.499 116.341H756.523V508.869H758.499V116.341Z" fill="#408A5E"/>
<path d="M757.511 61.7922C753.036 61.7922 748.745 63.5698 745.581 66.7339C742.417 69.898 740.639 74.1894 740.639 78.6641C740.639 87.9814 757.511 112.272 757.511 112.272C757.511 112.272 774.383 87.9814 774.383 78.6641C774.383 74.1894 772.605 69.898 769.441 66.7339C766.277 63.5698 761.986 61.7922 757.511 61.7922ZM757.511 86.4899C755.456 86.4899 753.485 85.6736 752.032 84.2205C750.579 82.7674 749.763 80.7966 749.763 78.7416C749.763 76.6866 750.579 74.7158 752.032 73.2628C753.485 71.8097 755.456 70.9933 757.511 70.9933C759.566 70.9933 761.537 71.8097 762.99 73.2628C764.443 74.7158 765.259 76.6866 765.259 78.7416C765.259 80.7966 764.443 82.7674 762.99 84.2205C761.537 85.6736 759.566 86.4899 757.511 86.4899Z" fill="#408A5E"/>
<path d="M1027.93 332.324H810.955V634.585H1027.93V332.324Z" fill="white"/>
<path d="M984.846 621.374H939.906V626.894H984.846V621.374Z" fill="#51B3E6"/>
<path d="M1027.83 621.374H982.889V626.894H1027.83V621.374Z" fill="#86CCEA"/>
<path d="M941.862 621.374H896.922V626.894H941.862V621.374Z" fill="#6EB4F9"/>
<path d="M898.878 621.374H853.938V626.894H898.878V621.374Z" fill="#4194F3"/>
<path d="M855.895 621.374H810.955V626.894H855.895V621.374Z" fill="#585AF0"/>
<mask id="mask3_15_2948" style="mask-type:luminance" maskUnits="userSpaceOnUse" x="815" y="366" width="201" height="79">
<path d="M1015.39 405.255L986.337 366.649V380.073H840.805C834.126 380.073 827.721 382.726 822.999 387.448C818.276 392.171 815.623 398.576 815.623 405.255C815.623 411.933 818.276 418.338 822.999 423.061C827.721 427.783 834.126 430.436 840.805 430.436H986.337V444.267L1015.39 405.255Z" fill="white"/>
</mask>
<g mask="url(#mask3_15_2948)">
<rect x="778" y="353" width="249" height="113" fill="#408A5E"/>
</g>
<path d="M853.699 418.07C860.772 410.997 860.772 399.529 853.699 392.456C846.626 385.383 835.158 385.383 828.085 392.456C821.012 399.529 821.012 410.997 828.085 418.07C835.158 425.143 846.626 425.143 853.699 418.07Z" fill="white"/>
<path d="M853.699 418.07C860.772 410.997 860.772 399.529 853.699 392.456C846.626 385.383 835.158 385.383 828.085 392.456C821.012 399.529 821.012 410.997 828.085 418.07C835.158 425.143 846.626 425.143 853.699 418.07Z" fill="white"/>
<path d="M848.537 425.375C859.524 421.1 864.966 408.728 860.691 397.741C856.416 386.754 844.044 381.313 833.057 385.587C822.07 389.862 816.629 402.234 820.903 413.221C825.178 424.208 837.55 429.65 848.537 425.375Z" fill="white"/>
<path d="M1027.83 332.324L1081.27 301.466V603.63L1027.83 634.701V332.324Z" fill="#E2DEDE"/>
<path d="M1055.94 605.18V610.778L1081.54 596.075V590.419L1055.94 605.18Z" fill="#5CC97B"/>
<path d="M1056.32 604.948L1027.83 621.374V626.895L1056.32 610.546V604.948Z" fill="#51B3E6"/>
<g style="mix-blend-mode:multiply" opacity="0.5">
<path d="M836.117 597.354C843.672 589.005 849.038 567.581 849.038 542.477C849.038 517.372 843.672 495.987 836.117 487.6V597.354Z" fill="white"/>
<path d="M836.117 597.354C843.42 587.804 848.689 566.942 848.689 542.477C848.689 518.012 843.42 497.246 836.117 487.6V597.354Z" fill="#FCFCFC"/>
<path d="M836.117 597.354C843.188 586.603 848.321 566.361 848.321 542.477C848.321 518.593 843.188 498.563 836.117 487.6V597.354Z" fill="#FAFAFA"/>
<path d="M836.117 597.354C842.936 585.402 847.972 565.644 847.972 542.477C847.972 519.309 842.936 499.861 836.117 487.6V597.354Z" fill="#F7F7F7"/>
<path d="M836.117 597.354C842.703 584.201 847.604 565.005 847.604 542.477C847.604 519.949 842.703 501.159 836.117 487.6V597.354Z" fill="#F5F5F5"/>
<path d="M836.117 597.354C843.589 580.03 847.382 561.343 847.256 542.477C847.317 523.617 843.527 504.943 836.117 487.6V597.354Z" fill="#F2F2F2"/>
<path d="M836.117 597.354C843.151 579.909 846.806 561.286 846.887 542.477C846.734 523.675 843.081 505.065 836.117 487.6V597.354Z" fill="#F0F0F0"/>
<path d="M836.117 597.354C841.929 580.598 846.539 563.068 846.539 542.477C846.539 521.886 841.967 505.072 836.117 487.6V597.354Z" fill="#EDEDED"/>
<path d="M836.117 597.354C841.716 579.397 846.171 562.487 846.171 542.477C846.171 522.467 841.716 506.37 836.117 487.6V597.354Z" fill="#EBEBEB"/>
<path d="M836.117 597.354C841.483 578.196 845.803 561.77 845.803 542.477C845.803 523.184 841.464 507.61 836.117 487.6V597.354Z" fill="#E8E8E8"/>
<path d="M836.117 597.354C841.231 576.995 845.454 561.131 845.454 542.477C845.454 523.823 841.231 508.985 836.117 487.6V597.354Z" fill="#E6E6E6"/>
<path d="M836.117 597.354C840.999 575.794 845.105 560.55 845.105 542.477C845.105 524.404 840.999 510.283 836.117 487.6V597.354Z" fill="#E3E3E3"/>
<path d="M836.117 597.354C840.747 574.593 844.737 559.833 844.737 542.477C844.737 525.121 840.747 511.6 836.117 487.6V597.354Z" fill="#E0E0E0"/>
<path d="M836.117 597.354C840.495 573.392 844.369 559.194 844.369 542.477C844.369 525.76 840.495 512.898 836.117 487.6V597.354Z" fill="#DEDEDE"/>
<path d="M836.117 597.354C840.263 572.172 844.021 558.613 844.021 542.477C844.021 526.341 840.263 514.196 836.117 487.6V597.354Z" fill="#DBDBDB"/>
<path d="M836.117 597.354C839.992 570.991 843.653 557.896 843.653 542.477C843.653 527.058 840.011 515.493 836.117 487.6V597.354Z" fill="#D9D9D9"/>
<path d="M836.117 597.354C839.778 569.79 843.304 557.257 843.304 542.477C843.304 527.697 839.778 516.811 836.117 487.6V597.354Z" fill="#D6D6D6"/>
<path d="M836.117 597.354C839.527 568.589 842.936 556.676 842.936 542.477C842.936 528.646 839.527 518.108 836.117 487.6V597.354Z" fill="#D4D4D4"/>
<path d="M836.117 597.354C839.294 567.388 842.587 555.959 842.587 542.477C842.587 529.324 839.294 519.406 836.117 487.6V597.354Z" fill="#D1D1D1"/>
<path d="M836.117 597.354C839.042 566.187 842.219 555.32 842.219 542.477C842.219 529.983 839.042 520.724 836.117 487.6V597.354Z" fill="#CFCFCF"/>
<path d="M836.117 597.354C838.791 564.986 841.929 554.738 841.929 542.477C841.929 530.641 838.849 522.021 836.117 487.6V597.354Z" fill="#CCCCCC"/>
<path d="M836.117 597.354C838.558 563.785 841.502 554.022 841.502 542.477C841.502 531.3 838.558 523.319 836.117 487.6V597.354Z" fill="#C9C9C9"/>
<path d="M836.117 597.354C838.306 562.584 841.154 553.383 841.154 542.477C841.154 531.978 838.306 524.617 836.117 487.6V597.354Z" fill="#C7C7C7"/>
<path d="M836.117 597.354C838.054 561.383 840.786 552.801 840.786 542.477C840.786 532.636 838.074 525.934 836.117 487.6V597.354Z" fill="#C4C4C4"/>
<path d="M836.117 597.354C837.822 560.182 840.437 552.085 840.437 542.477C840.437 533.295 837.822 527.232 836.117 487.6V597.354Z" fill="#C2C2C2"/>
<path d="M836.117 597.354C837.59 558.981 839.992 551.445 839.992 542.477C839.992 533.954 837.512 528.53 836.117 487.6V597.354Z" fill="#BFBFBF"/>
<path d="M836.117 597.354C837.338 557.78 839.72 550.864 839.72 542.477C839.72 534.632 837.338 529.828 836.117 487.6V597.354Z" fill="#BDBDBD"/>
<path d="M836.117 597.354C837.086 556.579 839.352 550.148 839.352 542.477C839.352 535.29 837.086 531.145 836.117 487.6V597.354Z" fill="#BABABA"/>
<path d="M836.117 597.354C836.853 555.378 839.004 549.508 839.004 542.477C839.004 535.949 836.853 532.443 836.117 487.6V597.354Z" fill="#B8B8B8"/>
<path d="M836.117 597.354C836.602 554.177 838.636 548.927 838.636 542.477C838.636 536.666 836.602 533.741 836.117 487.6V597.354Z" fill="#B5B5B5"/>
<path d="M836.117 597.354C836.369 552.976 838.287 548.211 838.287 542.477C838.287 537.285 836.35 535.058 836.117 487.6V597.354Z" fill="#B3B3B3"/>
<path d="M836.117 597.354C836.117 551.775 837.919 547.571 837.919 542.477C837.919 537.944 836.117 536.356 836.117 487.6V597.354Z" fill="#B0B0B0"/>
</g>
<path d="M1028.8 85.425H1026.82V477.953H1028.8V85.425Z" fill="#408A5E"/>
<path d="M1027.81 30.8768C1025.59 30.8692 1023.39 31.2999 1021.34 32.1444C1019.28 32.9889 1017.41 34.2304 1015.84 35.7979C1014.27 37.3653 1013.02 39.2279 1012.17 41.2786C1011.32 43.3294 1010.88 45.5281 1010.88 47.7487C1010.88 57.066 1027.75 81.3569 1027.75 81.3569C1027.75 81.3569 1044.62 57.066 1044.62 47.7487C1044.62 43.284 1042.85 39.0014 1039.7 35.839C1036.55 32.6765 1032.27 30.8922 1027.81 30.8768ZM1027.81 55.5745C1025.75 55.5745 1023.78 54.7581 1022.33 53.3051C1020.88 51.852 1020.06 49.8812 1020.06 47.8262C1020.06 45.7712 1020.88 43.8004 1022.33 42.3473C1023.78 40.8942 1025.75 40.0779 1027.81 40.0779C1029.86 40.0779 1031.84 40.8942 1033.29 42.3473C1034.74 43.8004 1035.56 45.7712 1035.56 47.8262C1035.56 49.8812 1034.74 51.852 1033.29 53.3051C1031.84 54.7581 1029.86 55.5745 1027.81 55.5745Z" fill="#408A5E"/>
<path d="M1298.24 301.466H1081.27V603.727H1298.24V301.466Z" fill="white"/>
<path d="M1255.16 590.497H1210.22V596.018H1255.16V590.497Z" fill="#5CC97B"/>
<path d="M1298.15 590.497H1253.21V596.018H1298.15V590.497Z" fill="#28A047"/>
<path d="M1212.18 590.497H1167.24V596.018H1212.18V590.497Z" fill="#5ECEAA"/>
<path d="M1169.2 590.497H1124.26V596.018H1169.2V590.497Z" fill="#5FD1C9"/>
<path d="M1126.21 590.497H1081.27V596.018H1126.21V590.497Z" fill="#60D3D9"/>
<mask id="mask4_15_2948" style="mask-type:luminance" maskUnits="userSpaceOnUse" x="1086" y="335" width="200" height="79">
<path d="M1285.71 374.378L1256.75 335.772V349.196H1111.22C1104.54 349.196 1098.14 351.849 1093.41 356.572C1088.69 361.294 1086.04 367.699 1086.04 374.378C1086.04 381.056 1088.69 387.462 1093.41 392.184C1098.14 396.907 1104.54 399.56 1111.22 399.56H1256.75V413.449L1285.71 374.378Z" fill="white"/>
</mask>
<g mask="url(#mask4_15_2948)">
<rect x="1048" y="322" width="249" height="113" fill="#408A5E"/>
</g>
<path d="M1128.8 378.579C1131.11 368.846 1125.09 359.085 1115.36 356.777C1105.62 354.469 1095.86 360.488 1093.55 370.221C1091.25 379.954 1097.27 389.715 1107 392.023C1116.73 394.331 1126.49 388.312 1128.8 378.579Z" fill="white"/>
<path d="M1128.8 378.579C1131.11 368.846 1125.09 359.085 1115.36 356.777C1105.62 354.469 1095.86 360.488 1093.55 370.221C1091.25 379.954 1097.27 389.715 1107 392.023C1116.73 394.331 1126.49 388.312 1128.8 378.579Z" fill="white"/>
<path d="M1111.1 395.938C1122.89 395.938 1132.45 386.381 1132.45 374.591C1132.45 362.802 1122.89 353.245 1111.1 353.245C1099.31 353.245 1089.76 362.802 1089.76 374.591C1089.76 386.381 1099.31 395.938 1111.1 395.938Z" fill="white"/>
<g style="mix-blend-mode:multiply" opacity="0.5">
<path d="M1106.45 566.477C1113.99 558.128 1119.38 536.704 1119.38 511.6C1119.38 486.495 1113.99 465.11 1106.45 456.723V566.477Z" fill="white"/>
<path d="M1106.45 566.477C1113.76 556.927 1119.01 536.065 1119.01 511.6C1119.01 487.135 1113.76 466.389 1106.45 456.723V566.477Z" fill="#FCFCFC"/>
<path d="M1106.45 566.477C1113.51 555.726 1118.66 535.484 1118.66 511.6C1118.66 487.716 1113.51 467.686 1106.45 456.723V566.477Z" fill="#FAFAFA"/>
<path d="M1106.45 566.477C1113.27 554.525 1118.29 534.767 1118.29 511.6C1118.29 488.433 1113.27 468.984 1106.45 456.723V566.477Z" fill="#F7F7F7"/>
<path d="M1106.45 566.477C1113.02 553.324 1117.94 534.128 1117.94 511.6C1117.94 489.072 1113.02 470.282 1106.45 456.723V566.477Z" fill="#F5F5F5"/>
<path d="M1106.45 566.477C1113.92 549.152 1117.71 530.465 1117.57 511.6C1117.64 492.741 1113.86 474.067 1106.45 456.723V566.477Z" fill="#F2F2F2"/>
<path d="M1106.45 566.477C1113.49 549.032 1117.14 530.409 1117.23 511.6C1117.07 492.798 1113.42 474.189 1106.45 456.723V566.477Z" fill="#F0F0F0"/>
<path d="M1106.45 566.477C1112.27 549.721 1116.86 532.191 1116.86 511.6C1116.86 491.009 1112.29 474.195 1106.45 456.723V566.477Z" fill="#EDEDED"/>
<path d="M1106.45 566.477C1112.05 548.52 1116.51 531.61 1116.51 511.6C1116.51 491.59 1112.05 475.512 1106.45 456.723V566.477Z" fill="#EBEBEB"/>
<path d="M1106.45 566.477C1111.8 547.319 1116.14 530.893 1116.14 511.6C1116.14 492.307 1111.8 476.733 1106.45 456.723V566.477Z" fill="#E8E8E8"/>
<path d="M1106.45 566.477C1111.57 546.118 1115.77 530.254 1115.77 511.6C1115.77 492.946 1111.57 478.108 1106.45 456.723V566.477Z" fill="#E6E6E6"/>
<path d="M1106.45 566.477C1111.32 544.918 1115.42 529.673 1115.42 511.6C1115.42 493.527 1111.32 479.406 1106.45 456.723V566.477Z" fill="#E3E3E3"/>
<path d="M1106.45 566.477C1111.08 543.717 1115.06 528.956 1115.06 511.6C1115.06 494.244 1111.18 480.723 1106.45 456.723V566.477Z" fill="#E0E0E0"/>
<path d="M1106.45 566.477C1110.83 542.516 1114.71 528.317 1114.71 511.6C1114.71 494.883 1110.83 482.021 1106.45 456.723V566.477Z" fill="#DEDEDE"/>
<path d="M1106.45 566.477C1110.58 541.295 1114.34 527.736 1114.34 511.6C1114.34 495.464 1110.58 483.319 1106.45 456.723V566.477Z" fill="#DBDBDB"/>
<path d="M1106.45 566.477C1110.33 540.114 1113.99 527.019 1113.99 511.6C1113.99 496.181 1110.35 484.636 1106.45 456.723V566.477Z" fill="#D9D9D9"/>
<path d="M1106.45 566.477C1110.1 538.913 1113.62 526.38 1113.62 511.6C1113.62 496.82 1110.1 485.934 1106.45 456.723V566.477Z" fill="#D6D6D6"/>
<path d="M1106.45 566.477C1109.86 537.712 1113.27 525.799 1113.27 511.6C1113.27 497.769 1109.86 487.232 1106.45 456.723V566.477Z" fill="#D4D4D4"/>
<path d="M1106.45 566.477C1109.61 536.511 1112.91 525.082 1112.91 511.6C1112.91 498.447 1109.61 488.529 1106.45 456.723V566.477Z" fill="#D1D1D1"/>
<path d="M1106.45 566.477C1109.36 535.31 1112.56 524.443 1112.56 511.6C1112.56 499.106 1109.36 489.847 1106.45 456.723V566.477Z" fill="#CFCFCF"/>
<path d="M1106.45 566.477C1109.13 534.109 1112.27 523.862 1112.27 511.6C1112.27 499.764 1109.21 491.144 1106.45 456.723V566.477Z" fill="#CCCCCC"/>
<path d="M1106.45 566.477C1108.88 532.908 1111.84 523.145 1111.84 511.6C1111.84 500.442 1108.88 492.442 1106.45 456.723V566.477Z" fill="#C9C9C9"/>
<path d="M1106.45 566.477C1108.64 531.707 1111.47 522.506 1111.47 511.6C1111.47 501.101 1108.64 493.759 1106.45 456.723V566.477Z" fill="#C7C7C7"/>
<path d="M1106.45 566.477C1108.39 530.506 1111.12 521.924 1111.12 511.6C1111.12 501.76 1108.39 495.057 1106.45 456.723V566.477Z" fill="#C4C4C4"/>
<path d="M1106.45 566.477C1108.16 529.305 1110.76 521.208 1110.76 511.6C1110.76 502.418 1108.16 496.355 1106.45 456.723V566.477Z" fill="#C2C2C2"/>
<path d="M1106.45 566.477C1107.91 528.104 1110.33 520.569 1110.33 511.6C1110.33 503.096 1107.83 497.653 1106.45 456.723V566.477Z" fill="#BFBFBF"/>
<path d="M1106.45 566.477C1107.66 526.903 1110.04 519.987 1110.04 511.6C1110.04 503.755 1107.66 498.97 1106.45 456.723V566.477Z" fill="#BDBDBD"/>
<path d="M1106.45 566.477C1107.42 525.702 1109.69 519.29 1109.69 511.6C1109.69 504.413 1107.42 500.268 1106.45 456.723V566.477Z" fill="#BABABA"/>
<path d="M1106.45 566.477C1107.17 524.501 1109.32 518.631 1109.32 511.6C1109.32 505.072 1107.17 501.566 1106.45 456.723V566.477Z" fill="#B8B8B8"/>
<path d="M1106.45 566.477C1106.94 523.3 1108.95 518.05 1108.95 511.6C1108.95 505.789 1107.02 502.864 1106.45 456.723V566.477Z" fill="#B5B5B5"/>
<path d="M1106.45 566.477C1106.69 522.099 1108.61 517.353 1108.61 511.6C1108.61 506.409 1106.67 504.181 1106.45 456.723V566.477Z" fill="#B3B3B3"/>
<path d="M1106.45 566.477C1106.45 520.898 1108.24 516.694 1108.24 511.6C1108.24 507.067 1106.45 505.479 1106.45 456.723V566.477Z" fill="#B0B0B0"/>
</g>
<path d="M1299.14 54.5479H1297.16V447.076H1299.14V54.5479Z" fill="#408A5E"/>
<path d="M1298.15 1.11208e-05C1295.93 -0.00253455 1293.73 0.431992 1291.69 1.27874C1289.64 2.1255 1287.77 3.36787 1286.2 4.93482C1284.64 6.50177 1283.39 8.36257 1282.54 10.4108C1281.69 12.4591 1281.26 14.6546 1281.26 16.8719C1281.26 26.1892 1298.15 50.4994 1298.15 50.4994C1298.15 50.4994 1315 26.1892 1315 16.8719C1315 12.4005 1313.23 8.11205 1310.07 4.94851C1306.91 1.78497 1302.62 0.0051447 1298.15 1.11208e-05ZM1298.15 24.6977C1296.09 24.6977 1294.12 23.8813 1292.67 22.4282C1291.22 20.9752 1290.4 19.0044 1290.4 16.9494C1290.4 14.8944 1291.22 12.9236 1292.67 11.4705C1294.12 10.0174 1296.09 9.2011 1298.15 9.2011C1300.2 9.2011 1302.17 10.0174 1303.63 11.4705C1305.08 12.9236 1305.9 14.8944 1305.9 16.9494C1305.9 19.0044 1305.08 20.9752 1303.63 22.4282C1302.17 23.8813 1300.2 24.6977 1298.15 24.6977Z" fill="#408A5E"/>
</svg>
