<svg width="955" height="128" viewBox="0 0 955 128" fill="none" xmlns="http://www.w3.org/2000/svg">
<path d="M0.913438 50.336H2.35344C2.46544 51.84 3.63344 52.832 5.34544 52.832C6.84944 52.832 7.92144 52.144 7.92144 50.928C7.92144 49.536 6.54544 49.248 4.84944 48.96C3.04144 48.656 1.18544 48.064 1.18544 45.888C1.18544 43.984 2.73744 42.704 5.00944 42.704C7.50544 42.704 9.04144 44.096 9.16944 46.112H7.72944C7.56944 44.816 6.52944 43.968 5.00944 43.968C3.55344 43.968 2.57744 44.608 2.57744 45.808C2.57744 47.152 3.93744 47.424 5.61744 47.712C7.44144 48.016 9.31344 48.624 9.31344 50.8C9.31344 52.736 7.68144 54.096 5.32944 54.096C2.59344 54.096 0.993438 52.544 0.913438 50.336ZM11.4962 51.872V47.04H10.0242V45.84H11.4962V43.552H12.8082V45.84H14.9202V47.04H12.8082V51.856C12.8082 52.544 13.0482 52.8 13.7522 52.8H15.0482V54H13.6242C12.0562 54 11.4962 53.312 11.4962 51.872ZM19.7419 54.096C17.2939 54.096 15.6939 52.416 15.6939 49.92C15.6939 47.44 17.2619 45.744 19.5659 45.744C21.8699 45.744 23.3739 47.2 23.4379 49.616C23.4379 49.792 23.4219 49.984 23.4059 50.176H17.0699V50.288C17.1179 51.84 18.0939 52.928 19.6459 52.928C20.7979 52.928 21.6939 52.32 21.9659 51.264H23.2939C22.9739 52.896 21.6299 54.096 19.7419 54.096ZM17.1499 49.088H22.0299C21.9019 47.68 20.9419 46.896 19.5819 46.896C18.3819 46.896 17.2779 47.76 17.1499 49.088ZM29.0471 45.744C31.3031 45.744 32.9671 47.264 32.9671 49.92C32.9671 52.416 31.3031 54.096 29.0471 54.096C27.6711 54.096 26.7431 53.536 26.2471 52.752V57.2H24.9351V45.84H26.0711L26.2471 47.152C26.7911 46.4 27.6711 45.744 29.0471 45.744ZM28.9191 52.928C30.5351 52.928 31.6231 51.696 31.6231 49.92C31.6231 48.144 30.5351 46.912 28.9191 46.912C27.3191 46.912 26.2311 48.144 26.2311 49.888C26.2311 51.68 27.3191 52.928 28.9191 52.928ZM38.4458 48.656V48.144C38.4458 44.96 40.1738 42.704 42.7018 42.704C45.2138 42.704 46.9418 44.96 46.9418 48.144V48.656C46.9418 52 45.2138 54.096 42.7018 54.096C40.1738 54.096 38.4458 52 38.4458 48.656ZM45.5818 48.608V48.192C45.5818 45.536 44.4298 43.936 42.7018 43.936C40.9578 43.936 39.8058 45.536 39.8058 48.192V48.608C39.8058 51.264 40.9578 52.864 42.7018 52.864C44.4298 52.864 45.5818 51.264 45.5818 48.608ZM50.3048 44.016V42.8H51.6168V54H50.2728V45.968C50.1128 46.112 49.8568 46.176 49.5048 46.176H47.6968V44.976H49.5208C50.0488 44.976 50.3048 44.576 50.3048 44.016Z" fill="#408A5E"/>
<path d="M440.679 118.336H442.119C442.231 119.84 443.399 120.832 445.111 120.832C446.615 120.832 447.687 120.144 447.687 118.928C447.687 117.536 446.311 117.248 444.615 116.96C442.807 116.656 440.951 116.064 440.951 113.888C440.951 111.984 442.503 110.704 444.775 110.704C447.271 110.704 448.807 112.096 448.935 114.112H447.495C447.335 112.816 446.295 111.968 444.775 111.968C443.319 111.968 442.343 112.608 442.343 113.808C442.343 115.152 443.703 115.424 445.383 115.712C447.207 116.016 449.079 116.624 449.079 118.8C449.079 120.736 447.447 122.096 445.095 122.096C442.359 122.096 440.759 120.544 440.679 118.336ZM451.262 119.872V115.04H449.79V113.84H451.262V111.552H452.574V113.84H454.686V115.04H452.574V119.856C452.574 120.544 452.814 120.8 453.518 120.8H454.814V122H453.39C451.822 122 451.262 121.312 451.262 119.872ZM459.508 122.096C457.06 122.096 455.46 120.416 455.46 117.92C455.46 115.44 457.028 113.744 459.332 113.744C461.636 113.744 463.14 115.2 463.204 117.616C463.204 117.792 463.188 117.984 463.172 118.176H456.836V118.288C456.884 119.84 457.86 120.928 459.412 120.928C460.564 120.928 461.46 120.32 461.732 119.264H463.06C462.74 120.896 461.396 122.096 459.508 122.096ZM456.916 117.088H461.796C461.668 115.68 460.708 114.896 459.348 114.896C458.148 114.896 457.044 115.76 456.916 117.088ZM468.813 113.744C471.069 113.744 472.733 115.264 472.733 117.92C472.733 120.416 471.069 122.096 468.813 122.096C467.437 122.096 466.509 121.536 466.013 120.752V125.2H464.701V113.84H465.837L466.013 115.152C466.557 114.4 467.437 113.744 468.813 113.744ZM468.685 120.928C470.301 120.928 471.389 119.696 471.389 117.92C471.389 116.144 470.301 114.912 468.685 114.912C467.085 114.912 465.997 116.144 465.997 117.888C465.997 119.68 467.085 120.928 468.685 120.928ZM478.211 116.656V116.144C478.211 112.96 479.939 110.704 482.467 110.704C484.979 110.704 486.707 112.96 486.707 116.144V116.656C486.707 120 484.979 122.096 482.467 122.096C479.939 122.096 478.211 120 478.211 116.656ZM485.347 116.608V116.192C485.347 113.536 484.195 111.936 482.467 111.936C480.723 111.936 479.571 113.536 479.571 116.192V116.608C479.571 119.264 480.723 120.864 482.467 120.864C484.195 120.864 485.347 119.264 485.347 116.608ZM487.75 122V120.864L492.102 117.088C493.142 116.192 494.006 115.328 494.006 114.112C494.006 112.704 493.046 111.904 491.558 111.904C490.118 111.904 489.158 112.864 489.158 114.4V114.608H487.814V114.32C487.814 112.208 489.302 110.704 491.558 110.704C493.974 110.704 495.382 112.032 495.382 114.048C495.382 115.728 494.294 116.784 492.966 117.92L489.606 120.768H495.462V122H487.75Z" fill="#408A5E"/>
<path d="M898.937 50.336H900.377C900.489 51.84 901.657 52.832 903.369 52.832C904.873 52.832 905.945 52.144 905.945 50.928C905.945 49.536 904.569 49.248 902.873 48.96C901.065 48.656 899.209 48.064 899.209 45.888C899.209 43.984 900.761 42.704 903.033 42.704C905.529 42.704 907.065 44.096 907.193 46.112H905.753C905.593 44.816 904.553 43.968 903.033 43.968C901.577 43.968 900.601 44.608 900.601 45.808C900.601 47.152 901.961 47.424 903.641 47.712C905.465 48.016 907.337 48.624 907.337 50.8C907.337 52.736 905.705 54.096 903.353 54.096C900.617 54.096 899.017 52.544 898.937 50.336ZM909.52 51.872V47.04H908.048V45.84H909.52V43.552H910.832V45.84H912.944V47.04H910.832V51.856C910.832 52.544 911.072 52.8 911.776 52.8H913.072V54H911.648C910.08 54 909.52 53.312 909.52 51.872ZM917.765 54.096C915.317 54.096 913.717 52.416 913.717 49.92C913.717 47.44 915.285 45.744 917.589 45.744C919.893 45.744 921.397 47.2 921.461 49.616C921.461 49.792 921.445 49.984 921.429 50.176H915.093V50.288C915.141 51.84 916.117 52.928 917.669 52.928C918.821 52.928 919.717 52.32 919.989 51.264H921.317C920.997 52.896 919.653 54.096 917.765 54.096ZM915.173 49.088H920.053C919.925 47.68 918.965 46.896 917.605 46.896C916.405 46.896 915.301 47.76 915.173 49.088ZM927.071 45.744C929.327 45.744 930.991 47.264 930.991 49.92C930.991 52.416 929.327 54.096 927.071 54.096C925.695 54.096 924.767 53.536 924.271 52.752V57.2H922.959V45.84H924.095L924.271 47.152C924.815 46.4 925.695 45.744 927.071 45.744ZM926.943 52.928C928.559 52.928 929.647 51.696 929.647 49.92C929.647 48.144 928.559 46.912 926.943 46.912C925.343 46.912 924.255 48.144 924.255 49.888C924.255 51.68 925.343 52.928 926.943 52.928ZM936.469 48.656V48.144C936.469 44.96 938.197 42.704 940.725 42.704C943.237 42.704 944.965 44.96 944.965 48.144V48.656C944.965 52 943.237 54.096 940.725 54.096C938.197 54.096 936.469 52 936.469 48.656ZM943.605 48.608V48.192C943.605 45.536 942.453 43.936 940.725 43.936C938.981 43.936 937.829 45.536 937.829 48.192V48.608C937.829 51.264 938.981 52.864 940.725 52.864C942.453 52.864 943.605 51.264 943.605 48.608ZM951.962 48.176C952.986 48.368 954.058 49.184 954.058 50.896C954.058 52.8 952.458 54.096 950.026 54.096C947.594 54.096 946.026 52.768 946.026 50.544H947.354C947.37 52.016 948.522 52.896 950.106 52.896C951.562 52.896 952.682 52.08 952.682 50.8C952.682 49.632 951.722 48.88 949.978 48.88H949.018V47.712H949.898C951.562 47.712 952.394 46.88 952.394 45.744C952.394 44.608 951.37 43.904 950.026 43.904C948.618 43.904 947.594 44.752 947.578 46.032H946.25C946.266 44.064 947.802 42.704 950.01 42.704C952.314 42.704 953.77 43.904 953.77 45.664C953.77 47.072 953.034 47.888 951.962 48.176Z" fill="#408A5E"/>
<path d="M27 10C206.099 94.1856 715.385 106.424 924.5 9.5" stroke="#408A5E" stroke-dasharray="2 2"/>
<circle cx="27" cy="10" r="9.5" fill="white" stroke="#408A5E"/>
<circle cx="469" cy="78" r="9.5" fill="white" stroke="#408A5E"/>
<circle cx="927" cy="10" r="9.5" fill="white" stroke="#408A5E"/>
</svg>
