<svg width="343" height="637" viewBox="0 0 343 637" fill="none" xmlns="http://www.w3.org/2000/svg">
<path d="M3.64 379.336H5.08C5.192 380.84 6.36 381.832 8.072 381.832C9.576 381.832 10.648 381.144 10.648 379.928C10.648 378.536 9.272 378.248 7.576 377.96C5.768 377.656 3.912 377.064 3.912 374.888C3.912 372.984 5.464 371.704 7.736 371.704C10.232 371.704 11.768 373.096 11.896 375.112H10.456C10.296 373.816 9.256 372.968 7.736 372.968C6.28 372.968 5.304 373.608 5.304 374.808C5.304 376.152 6.664 376.424 8.344 376.712C10.168 377.016 12.04 377.624 12.04 379.8C12.04 381.736 10.408 383.096 8.056 383.096C5.32 383.096 3.72 381.544 3.64 379.336ZM17.3748 383.096C14.9268 383.096 13.3268 381.416 13.3268 378.92C13.3268 376.44 14.8948 374.744 17.1988 374.744C19.5028 374.744 21.0068 376.2 21.0708 378.616C21.0708 378.792 21.0548 378.984 21.0388 379.176H14.7028V379.288C14.7508 380.84 15.7268 381.928 17.2788 381.928C18.4308 381.928 19.3268 381.32 19.5988 380.264H20.9268C20.6068 381.896 19.2628 383.096 17.3748 383.096ZM14.7828 378.088H19.6628C19.5348 376.68 18.5748 375.896 17.2148 375.896C16.0148 375.896 14.9108 376.76 14.7828 378.088ZM26.3279 383.096C23.8799 383.096 22.2799 381.416 22.2799 378.92C22.2799 376.44 23.8479 374.744 26.1519 374.744C28.4559 374.744 29.9599 376.2 30.0239 378.616C30.0239 378.792 30.0079 378.984 29.9919 379.176H23.6559V379.288C23.7039 380.84 24.6799 381.928 26.2319 381.928C27.3839 381.928 28.2799 381.32 28.5519 380.264H29.8799C29.5599 381.896 28.2159 383.096 26.3279 383.096ZM23.7359 378.088H28.6159C28.4879 376.68 27.5279 375.896 26.1679 375.896C24.9679 375.896 23.8639 376.76 23.7359 378.088ZM37.953 376.088V371.8H39.265V383H38.129L37.953 381.688C37.409 382.44 36.529 383.096 35.153 383.096C32.897 383.096 31.233 381.576 31.233 378.92C31.233 376.424 32.897 374.744 35.153 374.744C36.529 374.744 37.457 375.304 37.953 376.088ZM35.281 381.928C36.881 381.928 37.969 380.696 37.969 378.952C37.969 377.16 36.881 375.912 35.281 375.912C33.665 375.912 32.577 377.144 32.577 378.92C32.577 380.696 33.665 381.928 35.281 381.928ZM44.9038 380.312H46.2478C46.2958 381.272 47.1438 381.976 48.5038 381.976C49.6558 381.976 50.4718 381.48 50.4718 380.728C50.4718 379.704 49.5758 379.624 48.3598 379.48C46.5358 379.256 45.0798 378.888 45.0798 377.192C45.0798 375.704 46.4398 374.728 48.2798 374.744C50.1358 374.76 51.4798 375.624 51.6078 377.32H50.2638C50.1678 376.488 49.3998 375.864 48.2798 375.864C47.1438 375.864 46.3758 376.344 46.3758 377.096C46.3758 377.992 47.2398 378.104 48.4238 378.248C50.2798 378.472 51.7678 378.824 51.7678 380.632C51.7678 382.152 50.3118 383.096 48.5038 383.096C46.3918 383.096 44.9358 382.104 44.9038 380.312ZM60.4401 381.8H60.8561V383H60.1361C59.0481 383 58.6801 382.536 58.6641 381.736C58.1521 382.472 57.3361 383.096 55.9281 383.096C54.1361 383.096 52.9201 382.2 52.9201 380.712C52.9201 379.08 54.0561 378.168 56.2001 378.168H58.6001V377.608C58.6001 376.552 57.8481 375.912 56.5681 375.912C55.4161 375.912 54.6481 376.456 54.4881 377.288H53.1761C53.3681 375.688 54.6641 374.744 56.6321 374.744C58.7121 374.744 59.9121 375.784 59.9121 377.688V381.256C59.9121 381.688 60.0721 381.8 60.4401 381.8ZM58.6001 379.672V379.272H56.0721C54.9041 379.272 54.2481 379.704 54.2481 380.632C54.2481 381.432 54.9361 381.976 56.0241 381.976C57.6561 381.976 58.6001 381.032 58.6001 379.672ZM61.8648 383V371.8H63.1768V383H61.8648ZM68.7341 383.096C66.2861 383.096 64.6861 381.416 64.6861 378.92C64.6861 376.44 66.2541 374.744 68.5581 374.744C70.8621 374.744 72.3661 376.2 72.4301 378.616C72.4301 378.792 72.4141 378.984 72.3981 379.176H66.0621V379.288C66.1101 380.84 67.0861 381.928 68.6381 381.928C69.7901 381.928 70.6861 381.32 70.9581 380.264H72.2861C71.9661 381.896 70.6221 383.096 68.7341 383.096ZM66.1421 378.088H71.0221C70.8941 376.68 69.9341 375.896 68.5741 375.896C67.3741 375.896 66.2701 376.76 66.1421 378.088ZM73.56 380.312H74.904C74.952 381.272 75.8 381.976 77.16 381.976C78.312 381.976 79.128 381.48 79.128 380.728C79.128 379.704 78.232 379.624 77.016 379.48C75.192 379.256 73.736 378.888 73.736 377.192C73.736 375.704 75.096 374.728 76.936 374.744C78.792 374.76 80.136 375.624 80.264 377.32H78.92C78.824 376.488 78.056 375.864 76.936 375.864C75.8 375.864 75.032 376.344 75.032 377.096C75.032 377.992 75.896 378.104 77.08 378.248C78.936 378.472 80.424 378.824 80.424 380.632C80.424 382.152 78.968 383.096 77.16 383.096C75.048 383.096 73.592 382.104 73.56 380.312Z" fill="#424242"/>
<path d="M3.208 404.264V403.064L8.92 395.8H10.424V403.032H12.232V404.264H10.424V407H9.08V404.264H3.208ZM9.08 397.448L4.712 403.032H9.08V397.448ZM13.2546 398.424C13.2546 396.84 14.4546 395.704 16.0706 395.704C17.6866 395.704 18.8866 396.84 18.8866 398.424C18.8866 399.976 17.6866 401.112 16.0706 401.112C14.4546 401.112 13.2546 399.976 13.2546 398.424ZM16.4386 407H15.1426L22.7746 395.8H24.0706L16.4386 407ZM17.7026 398.424C17.7026 397.464 17.0146 396.76 16.0706 396.76C15.1266 396.76 14.4386 397.464 14.4386 398.424C14.4386 399.368 15.1266 400.056 16.0706 400.056C17.0146 400.056 17.7026 399.368 17.7026 398.424ZM20.2946 404.408C20.2946 402.824 21.4946 401.688 23.1106 401.688C24.7266 401.688 25.9266 402.824 25.9266 404.408C25.9266 405.96 24.7266 407.096 23.1106 407.096C21.4946 407.096 20.2946 405.96 20.2946 404.408ZM24.7426 404.408C24.7426 403.448 24.0546 402.744 23.1106 402.744C22.1666 402.744 21.4786 403.448 21.4786 404.408C21.4786 405.352 22.1666 406.04 23.1106 406.04C24.0546 406.04 24.7426 405.352 24.7426 404.408Z" fill="#408A5E"/>
<path d="M4.088 440.331V429.131H8.392C10.632 429.131 12.104 430.475 12.104 432.571C12.104 434.667 10.632 436.027 8.392 436.027H5.48V440.331H4.088ZM8.28 430.411H5.48V434.747H8.264C9.736 434.747 10.68 433.899 10.68 432.571C10.68 431.243 9.752 430.411 8.28 430.411ZM17.172 432.171H17.54V433.451H16.884C15.172 433.451 14.708 434.875 14.708 436.171V440.331H13.396V432.171H14.532L14.708 433.403C15.092 432.779 15.716 432.171 17.172 432.171ZM19.3493 430.795C18.8693 430.795 18.5013 430.443 18.5013 429.947C18.5013 429.451 18.8693 429.099 19.3493 429.099C19.8293 429.099 20.1973 429.451 20.1973 429.947C20.1973 430.443 19.8293 430.795 19.3493 430.795ZM18.6773 440.331V432.171H19.9893V440.331H18.6773ZM24.0266 440.331L20.9706 432.171H22.3786L24.8426 438.843L27.2906 432.171H28.6666L25.6106 440.331H24.0266ZM36.4714 439.131H36.8874V440.331H36.1674C35.0794 440.331 34.7114 439.867 34.6954 439.067C34.1834 439.803 33.3674 440.427 31.9594 440.427C30.1674 440.427 28.9514 439.531 28.9514 438.043C28.9514 436.411 30.0874 435.499 32.2314 435.499H34.6314V434.939C34.6314 433.883 33.8794 433.243 32.5994 433.243C31.4474 433.243 30.6794 433.787 30.5194 434.619H29.2074C29.3994 433.019 30.6954 432.075 32.6634 432.075C34.7434 432.075 35.9434 433.115 35.9434 435.019V438.587C35.9434 439.019 36.1034 439.131 36.4714 439.131ZM34.6314 437.003V436.603H32.1034C30.9354 436.603 30.2794 437.035 30.2794 437.963C30.2794 438.763 30.9674 439.307 32.0554 439.307C33.6874 439.307 34.6314 438.363 34.6314 437.003ZM38.504 438.203V433.371H37.032V432.171H38.504V429.883H39.816V432.171H41.928V433.371H39.816V438.187C39.816 438.875 40.056 439.131 40.76 439.131H42.056V440.331H40.632C39.064 440.331 38.504 439.643 38.504 438.203ZM46.7498 440.427C44.3018 440.427 42.7018 438.747 42.7018 436.251C42.7018 433.771 44.2698 432.075 46.5738 432.075C48.8778 432.075 50.3818 433.531 50.4458 435.947C50.4458 436.123 50.4298 436.315 50.4138 436.507H44.0778V436.619C44.1258 438.171 45.1018 439.259 46.6538 439.259C47.8058 439.259 48.7018 438.651 48.9738 437.595H50.3018C49.9818 439.227 48.6378 440.427 46.7498 440.427ZM44.1578 435.419H49.0378C48.9098 434.011 47.9498 433.227 46.5898 433.227C45.3898 433.227 44.2858 434.091 44.1578 435.419ZM55.7944 437.643H57.1384C57.1864 438.603 58.0344 439.307 59.3944 439.307C60.5464 439.307 61.3624 438.811 61.3624 438.059C61.3624 437.035 60.4664 436.955 59.2504 436.811C57.4264 436.587 55.9704 436.219 55.9704 434.523C55.9704 433.035 57.3304 432.059 59.1704 432.075C61.0264 432.091 62.3704 432.955 62.4984 434.651H61.1544C61.0584 433.819 60.2904 433.195 59.1704 433.195C58.0344 433.195 57.2664 433.675 57.2664 434.427C57.2664 435.323 58.1304 435.435 59.3144 435.579C61.1704 435.803 62.6584 436.155 62.6584 437.963C62.6584 439.483 61.2024 440.427 59.3944 440.427C57.2824 440.427 55.8264 439.435 55.7944 437.643ZM71.3308 439.131H71.7468V440.331H71.0268C69.9388 440.331 69.5708 439.867 69.5548 439.067C69.0428 439.803 68.2268 440.427 66.8188 440.427C65.0268 440.427 63.8108 439.531 63.8108 438.043C63.8108 436.411 64.9468 435.499 67.0908 435.499H69.4908V434.939C69.4908 433.883 68.7388 433.243 67.4588 433.243C66.3068 433.243 65.5388 433.787 65.3788 434.619H64.0668C64.2588 433.019 65.5548 432.075 67.5228 432.075C69.6028 432.075 70.8028 433.115 70.8028 435.019V438.587C70.8028 439.019 70.9628 439.131 71.3308 439.131ZM69.4908 437.003V436.603H66.9628C65.7948 436.603 65.1388 437.035 65.1388 437.963C65.1388 438.763 65.8268 439.307 66.9148 439.307C68.5468 439.307 69.4908 438.363 69.4908 437.003ZM72.7554 440.331V429.131H74.0674V440.331H72.7554ZM79.6248 440.427C77.1768 440.427 75.5768 438.747 75.5768 436.251C75.5768 433.771 77.1448 432.075 79.4488 432.075C81.7528 432.075 83.2568 433.531 83.3208 435.947C83.3208 436.123 83.3048 436.315 83.2888 436.507H76.9528V436.619C77.0008 438.171 77.9768 439.259 79.5288 439.259C80.6808 439.259 81.5768 438.651 81.8488 437.595H83.1768C82.8568 439.227 81.5128 440.427 79.6248 440.427ZM77.0328 435.419H81.9128C81.7848 434.011 80.8248 433.227 79.4648 433.227C78.2648 433.227 77.1608 434.091 77.0328 435.419ZM88.4614 440.331V439.195L92.8134 435.419C93.8534 434.523 94.7174 433.659 94.7174 432.443C94.7174 431.035 93.7574 430.235 92.2694 430.235C90.8294 430.235 89.8694 431.195 89.8694 432.731V432.939H88.5254V432.651C88.5254 430.539 90.0134 429.035 92.2694 429.035C94.6854 429.035 96.0934 430.363 96.0934 432.379C96.0934 434.059 95.0054 435.115 93.6774 436.251L90.3174 439.099H96.1734V440.331H88.4614Z" fill="#424242"/>
<path d="M9.384 458.507C10.408 458.699 11.48 459.515 11.48 461.227C11.48 463.131 9.88 464.427 7.448 464.427C5.016 464.427 3.448 463.099 3.448 460.875H4.776C4.792 462.347 5.944 463.227 7.528 463.227C8.984 463.227 10.104 462.411 10.104 461.131C10.104 459.963 9.144 459.211 7.4 459.211H6.44V458.043H7.32C8.984 458.043 9.816 457.211 9.816 456.075C9.816 454.939 8.792 454.235 7.448 454.235C6.04 454.235 5.016 455.083 5 456.363H3.672C3.688 454.395 5.224 453.035 7.432 453.035C9.736 453.035 11.192 454.235 11.192 455.995C11.192 457.403 10.456 458.219 9.384 458.507ZM12.989 455.755C12.989 454.171 14.189 453.035 15.805 453.035C17.421 453.035 18.621 454.171 18.621 455.755C18.621 457.307 17.421 458.443 15.805 458.443C14.189 458.443 12.989 457.307 12.989 455.755ZM16.173 464.331H14.877L22.509 453.131H23.805L16.173 464.331ZM17.437 455.755C17.437 454.795 16.749 454.091 15.805 454.091C14.861 454.091 14.173 454.795 14.173 455.755C14.173 456.699 14.861 457.387 15.805 457.387C16.749 457.387 17.437 456.699 17.437 455.755ZM20.029 461.739C20.029 460.155 21.229 459.019 22.845 459.019C24.461 459.019 25.661 460.155 25.661 461.739C25.661 463.291 24.461 464.427 22.845 464.427C21.229 464.427 20.029 463.291 20.029 461.739ZM24.477 461.739C24.477 460.779 23.789 460.075 22.845 460.075C21.901 460.075 21.213 460.779 21.213 461.739C21.213 462.683 21.901 463.371 22.845 463.371C23.789 463.371 24.477 462.683 24.477 461.739Z" fill="#408A5E"/>
<path d="M4.088 497.661V486.461H8.392C10.632 486.461 12.104 487.805 12.104 489.901C12.104 491.997 10.632 493.357 8.392 493.357H5.48V497.661H4.088ZM8.28 487.741H5.48V492.077H8.264C9.736 492.077 10.68 491.229 10.68 489.901C10.68 488.573 9.752 487.741 8.28 487.741ZM19.108 493.581V489.501H20.42V497.661H19.284L19.108 496.573C18.628 497.181 17.844 497.757 16.5 497.757C14.708 497.757 13.284 496.749 13.284 494.045V489.501H14.596V493.965C14.596 495.661 15.364 496.557 16.724 496.557C18.212 496.557 19.108 495.421 19.108 493.581ZM26.3205 489.405C28.5765 489.405 30.2405 490.925 30.2405 493.581C30.2405 496.077 28.5765 497.757 26.3205 497.757C24.9445 497.757 24.0165 497.197 23.5205 496.413L23.3445 497.661H22.2085V486.461H23.5205V490.813C24.0645 490.061 24.9445 489.405 26.3205 489.405ZM26.1925 496.589C27.8085 496.589 28.8965 495.357 28.8965 493.581C28.8965 491.805 27.8085 490.573 26.1925 490.573C24.5925 490.573 23.5045 491.805 23.5045 493.549C23.5045 495.341 24.5925 496.589 26.1925 496.589ZM31.7398 497.661V486.461H33.0518V497.661H31.7398ZM35.5211 488.125C35.0411 488.125 34.6731 487.773 34.6731 487.277C34.6731 486.781 35.0411 486.429 35.5211 486.429C36.0011 486.429 36.3691 486.781 36.3691 487.277C36.3691 487.773 36.0011 488.125 35.5211 488.125ZM34.8491 497.661V489.501H36.1611V497.661H34.8491ZM41.6225 497.757C39.2385 497.757 37.6705 496.141 37.6705 493.597C37.6705 491.101 39.2865 489.405 41.6545 489.405C43.6545 489.405 44.9185 490.525 45.2545 492.317H43.8785C43.6385 491.229 42.8385 490.573 41.6385 490.573C40.0705 490.573 39.0145 491.821 39.0145 493.597C39.0145 495.373 40.0705 496.589 41.6385 496.589C42.8065 496.589 43.6065 495.917 43.8625 494.877H45.2545C44.9345 496.637 43.6065 497.757 41.6225 497.757ZM50.5444 494.973H51.8884C51.9364 495.933 52.7844 496.637 54.1444 496.637C55.2964 496.637 56.1124 496.141 56.1124 495.389C56.1124 494.365 55.2164 494.285 54.0004 494.141C52.1764 493.917 50.7204 493.549 50.7204 491.853C50.7204 490.365 52.0804 489.389 53.9204 489.405C55.7764 489.421 57.1204 490.285 57.2484 491.981H55.9044C55.8084 491.149 55.0404 490.525 53.9204 490.525C52.7844 490.525 52.0164 491.005 52.0164 491.757C52.0164 492.653 52.8804 492.765 54.0644 492.909C55.9204 493.133 57.4084 493.485 57.4084 495.293C57.4084 496.813 55.9524 497.757 54.1444 497.757C52.0324 497.757 50.5764 496.765 50.5444 494.973ZM66.0808 496.461H66.4968V497.661H65.7768C64.6888 497.661 64.3208 497.197 64.3048 496.397C63.7928 497.133 62.9768 497.757 61.5688 497.757C59.7768 497.757 58.5608 496.861 58.5608 495.373C58.5608 493.741 59.6968 492.829 61.8408 492.829H64.2408V492.269C64.2408 491.213 63.4888 490.573 62.2088 490.573C61.0568 490.573 60.2888 491.117 60.1288 491.949H58.8168C59.0088 490.349 60.3048 489.405 62.2728 489.405C64.3528 489.405 65.5528 490.445 65.5528 492.349V495.917C65.5528 496.349 65.7128 496.461 66.0808 496.461ZM64.2408 494.333V493.933H61.7128C60.5448 493.933 59.8888 494.365 59.8888 495.293C59.8888 496.093 60.5768 496.637 61.6648 496.637C63.2968 496.637 64.2408 495.693 64.2408 494.333ZM67.5054 497.661V486.461H68.8174V497.661H67.5054ZM74.3748 497.757C71.9268 497.757 70.3268 496.077 70.3268 493.581C70.3268 491.101 71.8948 489.405 74.1988 489.405C76.5028 489.405 78.0068 490.861 78.0708 493.277C78.0708 493.453 78.0548 493.645 78.0388 493.837H71.7028V493.949C71.7508 495.501 72.7268 496.589 74.2788 496.589C75.4308 496.589 76.3268 495.981 76.5988 494.925H77.9268C77.6068 496.557 76.2628 497.757 74.3748 497.757ZM71.7828 492.749H76.6628C76.5348 491.341 75.5748 490.557 74.2148 490.557C73.0148 490.557 71.9108 491.421 71.7828 492.749ZM79.2006 494.973H80.5446C80.5926 495.933 81.4406 496.637 82.8006 496.637C83.9526 496.637 84.7686 496.141 84.7686 495.389C84.7686 494.365 83.8726 494.285 82.6566 494.141C80.8326 493.917 79.3766 493.549 79.3766 491.853C79.3766 490.365 80.7366 489.389 82.5766 489.405C84.4326 489.421 85.7766 490.285 85.9046 491.981H84.5606C84.4646 491.149 83.6966 490.525 82.5766 490.525C81.4406 490.525 80.6726 491.005 80.6726 491.757C80.6726 492.653 81.5366 492.765 82.7206 492.909C84.5766 493.133 86.0646 493.485 86.0646 495.293C86.0646 496.813 84.6086 497.757 82.8006 497.757C80.6886 497.757 79.2326 496.765 79.2006 494.973Z" fill="#424242"/>
<path d="M4.568 519.901C4.008 518.925 3.688 517.581 3.688 516.109C3.688 512.589 5.272 510.365 7.944 510.365C9.976 510.365 11.368 511.581 11.64 513.453H10.296C10.04 512.317 9.24 511.549 7.88 511.549C5.928 511.549 4.856 513.325 4.856 515.853C4.856 516.013 4.856 516.125 4.872 516.397C4.888 516.333 4.904 516.237 4.968 516.093C5.464 514.989 6.584 514.253 8.088 514.253C10.296 514.253 11.848 515.709 11.848 517.997C11.848 520.157 10.264 521.757 7.96 521.757C6.408 521.757 5.272 521.053 4.568 519.901ZM10.504 517.997C10.504 516.509 9.544 515.437 7.992 515.437C6.44 515.437 5.384 516.493 5.384 518.029C5.384 519.533 6.408 520.573 7.944 520.573C9.496 520.573 10.504 519.501 10.504 517.997ZM13.3328 513.085C13.3328 511.501 14.5328 510.365 16.1488 510.365C17.7648 510.365 18.9648 511.501 18.9648 513.085C18.9648 514.637 17.7648 515.773 16.1488 515.773C14.5328 515.773 13.3328 514.637 13.3328 513.085ZM16.5168 521.661H15.2208L22.8528 510.461H24.1488L16.5168 521.661ZM17.7808 513.085C17.7808 512.125 17.0928 511.421 16.1488 511.421C15.2048 511.421 14.5168 512.125 14.5168 513.085C14.5168 514.029 15.2048 514.717 16.1488 514.717C17.0928 514.717 17.7808 514.029 17.7808 513.085ZM20.3728 519.069C20.3728 517.485 21.5728 516.349 23.1888 516.349C24.8048 516.349 26.0048 517.485 26.0048 519.069C26.0048 520.621 24.8048 521.757 23.1888 521.757C21.5728 521.757 20.3728 520.621 20.3728 519.069ZM24.8208 519.069C24.8208 518.109 24.1328 517.405 23.1888 517.405C22.2448 517.405 21.5568 518.109 21.5568 519.069C21.5568 520.013 22.2448 520.701 23.1888 520.701C24.1328 520.701 24.8208 520.013 24.8208 519.069Z" fill="#408A5E"/>
<path d="M4.088 554.992V543.792H11.224V545.072H5.48V548.656H10.264V549.936H5.48V553.712H11.432V554.992H4.088ZM19.7839 553.792H20.1999V554.992H19.4799C18.3919 554.992 18.0239 554.528 18.0079 553.728C17.4959 554.464 16.6799 555.088 15.2719 555.088C13.4799 555.088 12.2639 554.192 12.2639 552.704C12.2639 551.072 13.3999 550.16 15.5439 550.16H17.9439V549.6C17.9439 548.544 17.1919 547.904 15.9119 547.904C14.7599 547.904 13.9919 548.448 13.8319 549.28H12.5199C12.7119 547.68 14.0079 546.736 15.9759 546.736C18.0559 546.736 19.2559 547.776 19.2559 549.68V553.248C19.2559 553.68 19.4159 553.792 19.7839 553.792ZM17.9439 551.664V551.264H15.4159C14.2479 551.264 13.5919 551.696 13.5919 552.624C13.5919 553.424 14.2799 553.968 15.3679 553.968C16.9999 553.968 17.9439 553.024 17.9439 551.664ZM24.9845 546.832H25.3525V548.112H24.6965C22.9845 548.112 22.5205 549.536 22.5205 550.832V554.992H21.2085V546.832H22.3445L22.5205 548.064C22.9045 547.44 23.5285 546.832 24.9845 546.832ZM30.4898 546.736C32.3298 546.736 33.7858 547.744 33.7858 550.448V554.992H32.4738V550.528C32.4738 548.832 31.6898 547.936 30.2658 547.936C28.7298 547.936 27.8018 549.072 27.8018 550.912V554.992H26.4898V546.832H27.6258L27.8018 547.936C28.2818 547.312 29.1138 546.736 30.4898 546.736Z" fill="#424242"/>
<path d="M9.384 573.168C10.408 573.36 11.48 574.176 11.48 575.888C11.48 577.792 9.88 579.088 7.448 579.088C5.016 579.088 3.448 577.76 3.448 575.536H4.776C4.792 577.008 5.944 577.888 7.528 577.888C8.984 577.888 10.104 577.072 10.104 575.792C10.104 574.624 9.144 573.872 7.4 573.872H6.44V572.704H7.32C8.984 572.704 9.816 571.872 9.816 570.736C9.816 569.6 8.792 568.896 7.448 568.896C6.04 568.896 5.016 569.744 5 571.024H3.672C3.688 569.056 5.224 567.696 7.432 567.696C9.736 567.696 11.192 568.896 11.192 570.656C11.192 572.064 10.456 572.88 9.384 573.168ZM12.333 576.256V575.056L18.045 567.792H19.549V575.024H21.357V576.256H19.549V578.992H18.205V576.256H12.333ZM18.205 569.44L13.837 575.024H18.205V569.44ZM22.3796 570.416C22.3796 568.832 23.5796 567.696 25.1956 567.696C26.8116 567.696 28.0116 568.832 28.0116 570.416C28.0116 571.968 26.8116 573.104 25.1956 573.104C23.5796 573.104 22.3796 571.968 22.3796 570.416ZM25.5636 578.992H24.2676L31.8996 567.792H33.1956L25.5636 578.992ZM26.8276 570.416C26.8276 569.456 26.1396 568.752 25.1956 568.752C24.2516 568.752 23.5636 569.456 23.5636 570.416C23.5636 571.36 24.2516 572.048 25.1956 572.048C26.1396 572.048 26.8276 571.36 26.8276 570.416ZM29.4196 576.4C29.4196 574.816 30.6196 573.68 32.2356 573.68C33.8516 573.68 35.0516 574.816 35.0516 576.4C35.0516 577.952 33.8516 579.088 32.2356 579.088C30.6196 579.088 29.4196 577.952 29.4196 576.4ZM33.8676 576.4C33.8676 575.44 33.1796 574.736 32.2356 574.736C31.2916 574.736 30.6036 575.44 30.6036 576.4C30.6036 577.344 31.2916 578.032 32.2356 578.032C33.1796 578.032 33.8676 577.344 33.8676 576.4Z" fill="#408A5E"/>
<path d="M180.64 379.336H182.08C182.192 380.84 183.36 381.832 185.072 381.832C186.576 381.832 187.648 381.144 187.648 379.928C187.648 378.536 186.272 378.248 184.576 377.96C182.768 377.656 180.912 377.064 180.912 374.888C180.912 372.984 182.464 371.704 184.736 371.704C187.232 371.704 188.768 373.096 188.896 375.112H187.456C187.296 373.816 186.256 372.968 184.736 372.968C183.28 372.968 182.304 373.608 182.304 374.808C182.304 376.152 183.664 376.424 185.344 376.712C187.168 377.016 189.04 377.624 189.04 379.8C189.04 381.736 187.408 383.096 185.056 383.096C182.32 383.096 180.72 381.544 180.64 379.336ZM191.223 380.872V376.04H189.751V374.84H191.223V372.552H192.535V374.84H194.647V376.04H192.535V380.856C192.535 381.544 192.775 381.8 193.479 381.8H194.775V383H193.351C191.783 383 191.223 382.312 191.223 380.872ZM199.688 374.84H200.056V376.12H199.4C197.688 376.12 197.224 377.544 197.224 378.84V383H195.912V374.84H197.048L197.224 376.072C197.608 375.448 198.232 374.84 199.688 374.84ZM208.128 381.8H208.544V383H207.824C206.736 383 206.368 382.536 206.352 381.736C205.84 382.472 205.024 383.096 203.616 383.096C201.824 383.096 200.608 382.2 200.608 380.712C200.608 379.08 201.744 378.168 203.888 378.168H206.288V377.608C206.288 376.552 205.536 375.912 204.256 375.912C203.104 375.912 202.336 376.456 202.176 377.288H200.864C201.056 375.688 202.352 374.744 204.32 374.744C206.4 374.744 207.6 375.784 207.6 377.688V381.256C207.6 381.688 207.76 381.8 208.128 381.8ZM206.288 379.672V379.272H203.76C202.592 379.272 201.936 379.704 201.936 380.632C201.936 381.432 202.624 381.976 203.712 381.976C205.344 381.976 206.288 381.032 206.288 379.672ZM210.16 380.872V376.04H208.688V374.84H210.16V372.552H211.472V374.84H213.584V376.04H211.472V380.856C211.472 381.544 211.712 381.8 212.416 381.8H213.712V383H212.288C210.72 383 210.16 382.312 210.16 380.872ZM218.406 383.096C215.958 383.096 214.358 381.416 214.358 378.92C214.358 376.44 215.926 374.744 218.23 374.744C220.534 374.744 222.038 376.2 222.102 378.616C222.102 378.792 222.086 378.984 222.07 379.176H215.734V379.288C215.782 380.84 216.758 381.928 218.31 381.928C219.462 381.928 220.358 381.32 220.63 380.264H221.958C221.638 381.896 220.294 383.096 218.406 383.096ZM215.814 378.088H220.694C220.566 376.68 219.606 375.896 218.246 375.896C217.046 375.896 215.942 376.76 215.814 378.088ZM230.031 376.248L230.207 374.84H231.343V382.6C231.343 384.952 230.095 386.296 227.295 386.296C225.215 386.296 223.759 385.32 223.551 383.528H224.895C225.119 384.552 226.031 385.128 227.391 385.128C229.103 385.128 230.031 384.328 230.031 382.552V381.592C229.487 382.52 228.607 383.096 227.231 383.096C224.975 383.096 223.311 381.576 223.311 378.92C223.311 376.424 224.975 374.744 227.231 374.744C228.607 374.744 229.519 375.336 230.031 376.248ZM227.359 381.928C228.959 381.928 230.047 380.696 230.047 378.952C230.047 377.16 228.959 375.912 227.359 375.912C225.743 375.912 224.655 377.144 224.655 378.92C224.655 380.696 225.743 381.928 227.359 381.928ZM233.802 373.464C233.322 373.464 232.954 373.112 232.954 372.616C232.954 372.12 233.322 371.768 233.802 371.768C234.282 371.768 234.65 372.12 234.65 372.616C234.65 373.112 234.282 373.464 233.802 373.464ZM233.13 383V374.84H234.442V383H233.13ZM239.904 383.096C237.52 383.096 235.952 381.48 235.952 378.936C235.952 376.44 237.568 374.744 239.936 374.744C241.936 374.744 243.2 375.864 243.536 377.656H242.16C241.92 376.568 241.12 375.912 239.92 375.912C238.352 375.912 237.296 377.16 237.296 378.936C237.296 380.712 238.352 381.928 239.92 381.928C241.088 381.928 241.888 381.256 242.144 380.216H243.536C243.216 381.976 241.888 383.096 239.904 383.096ZM249.354 383V371.8H253.658C255.898 371.8 257.37 373.144 257.37 375.24C257.37 377.336 255.898 378.696 253.658 378.696H250.746V383H249.354ZM253.546 373.08H250.746V377.416H253.53C255.002 377.416 255.946 376.568 255.946 375.24C255.946 373.912 255.018 373.08 253.546 373.08ZM265.393 381.8H265.809V383H265.089C264.001 383 263.633 382.536 263.617 381.736C263.105 382.472 262.289 383.096 260.881 383.096C259.089 383.096 257.873 382.2 257.873 380.712C257.873 379.08 259.009 378.168 261.153 378.168H263.553V377.608C263.553 376.552 262.801 375.912 261.521 375.912C260.369 375.912 259.601 376.456 259.441 377.288H258.129C258.321 375.688 259.617 374.744 261.585 374.744C263.665 374.744 264.865 375.784 264.865 377.688V381.256C264.865 381.688 265.025 381.8 265.393 381.8ZM263.553 379.672V379.272H261.025C259.857 379.272 259.201 379.704 259.201 380.632C259.201 381.432 259.889 381.976 260.977 381.976C262.609 381.976 263.553 381.032 263.553 379.672ZM270.594 374.84H270.962V376.12H270.306C268.594 376.12 268.13 377.544 268.13 378.84V383H266.818V374.84H267.954L268.13 376.072C268.514 375.448 269.138 374.84 270.594 374.84ZM272.973 380.872V376.04H271.501V374.84H272.973V372.552H274.285V374.84H276.397V376.04H274.285V380.856C274.285 381.544 274.525 381.8 275.229 381.8H276.525V383H275.101C273.533 383 272.973 382.312 272.973 380.872ZM281.662 374.744C283.502 374.744 284.958 375.752 284.958 378.456V383H283.646V378.536C283.646 376.84 282.862 375.944 281.438 375.944C279.902 375.944 278.974 377.08 278.974 378.92V383H277.662V374.84H278.798L278.974 375.944C279.454 375.32 280.286 374.744 281.662 374.744ZM290.297 383.096C287.849 383.096 286.249 381.416 286.249 378.92C286.249 376.44 287.817 374.744 290.121 374.744C292.425 374.744 293.929 376.2 293.993 378.616C293.993 378.792 293.977 378.984 293.961 379.176H287.625V379.288C287.673 380.84 288.649 381.928 290.201 381.928C291.353 381.928 292.249 381.32 292.521 380.264H293.849C293.529 381.896 292.185 383.096 290.297 383.096ZM287.705 378.088H292.585C292.457 376.68 291.497 375.896 290.137 375.896C288.937 375.896 287.833 376.76 287.705 378.088ZM299.266 374.84H299.634V376.12H298.978C297.266 376.12 296.802 377.544 296.802 378.84V383H295.49V374.84H296.626L296.802 376.072C297.186 375.448 297.81 374.84 299.266 374.84ZM300.263 380.312H301.607C301.655 381.272 302.503 381.976 303.863 381.976C305.015 381.976 305.831 381.48 305.831 380.728C305.831 379.704 304.935 379.624 303.719 379.48C301.895 379.256 300.439 378.888 300.439 377.192C300.439 375.704 301.799 374.728 303.639 374.744C305.495 374.76 306.839 375.624 306.967 377.32H305.623C305.527 376.488 304.759 375.864 303.639 375.864C302.503 375.864 301.735 376.344 301.735 377.096C301.735 377.992 302.599 378.104 303.783 378.248C305.639 378.472 307.127 378.824 307.127 380.632C307.127 382.152 305.671 383.096 303.863 383.096C301.751 383.096 300.295 382.104 300.263 380.312ZM312.584 374.744C314.408 374.744 315.896 375.752 315.896 378.456V383H314.584V378.536C314.584 376.84 313.768 375.944 312.36 375.944C310.84 375.944 309.896 377.08 309.896 378.92V383H308.584V371.8H309.896V376.184C310.376 375.416 311.208 374.744 312.584 374.744ZM318.24 373.464C317.76 373.464 317.392 373.112 317.392 372.616C317.392 372.12 317.76 371.768 318.24 371.768C318.72 371.768 319.088 372.12 319.088 372.616C319.088 373.112 318.72 373.464 318.24 373.464ZM317.568 383V374.84H318.88V383H317.568ZM324.789 374.744C327.045 374.744 328.709 376.264 328.709 378.92C328.709 381.416 327.045 383.096 324.789 383.096C323.413 383.096 322.485 382.536 321.989 381.752V386.2H320.677V374.84H321.813L321.989 376.152C322.533 375.4 323.413 374.744 324.789 374.744ZM324.661 381.928C326.277 381.928 327.365 380.696 327.365 378.92C327.365 377.144 326.277 375.912 324.661 375.912C323.061 375.912 321.973 377.144 321.973 378.888C321.973 380.68 323.061 381.928 324.661 381.928Z" fill="#424242"/>
<path d="M180.208 404.264V403.064L185.92 395.8H187.424V403.032H189.232V404.264H187.424V407H186.08V404.264H180.208ZM186.08 397.448L181.712 403.032H186.08V397.448ZM190.255 398.424C190.255 396.84 191.455 395.704 193.071 395.704C194.687 395.704 195.887 396.84 195.887 398.424C195.887 399.976 194.687 401.112 193.071 401.112C191.455 401.112 190.255 399.976 190.255 398.424ZM193.439 407H192.143L199.775 395.8H201.071L193.439 407ZM194.703 398.424C194.703 397.464 194.015 396.76 193.071 396.76C192.127 396.76 191.439 397.464 191.439 398.424C191.439 399.368 192.127 400.056 193.071 400.056C194.015 400.056 194.703 399.368 194.703 398.424ZM197.295 404.408C197.295 402.824 198.495 401.688 200.111 401.688C201.727 401.688 202.927 402.824 202.927 404.408C202.927 405.96 201.727 407.096 200.111 407.096C198.495 407.096 197.295 405.96 197.295 404.408ZM201.743 404.408C201.743 403.448 201.055 402.744 200.111 402.744C199.167 402.744 198.479 403.448 198.479 404.408C198.479 405.352 199.167 406.04 200.111 406.04C201.055 406.04 201.743 405.352 201.743 404.408Z" fill="#408A5E"/>
<path d="M181.616 440.331H180.176L184.448 429.131H186.096L190.352 440.331H188.864L187.68 437.307H182.8L181.616 440.331ZM185.232 430.651L183.216 436.043H187.264L185.232 430.651ZM197.5 433.419V429.131H198.812V440.331H197.676L197.5 439.019C196.956 439.771 196.076 440.427 194.7 440.427C192.444 440.427 190.78 438.907 190.78 436.251C190.78 433.755 192.444 432.075 194.7 432.075C196.076 432.075 197.004 432.635 197.5 433.419ZM194.828 439.259C196.428 439.259 197.516 438.027 197.516 436.283C197.516 434.491 196.428 433.243 194.828 433.243C193.212 433.243 192.124 434.475 192.124 436.251C192.124 438.027 193.212 439.259 194.828 439.259ZM202.839 440.331L199.783 432.171H201.191L203.655 438.843L206.103 432.171H207.479L204.423 440.331H202.839ZM209.131 430.795C208.651 430.795 208.283 430.443 208.283 429.947C208.283 429.451 208.651 429.099 209.131 429.099C209.611 429.099 209.979 429.451 209.979 429.947C209.979 430.443 209.611 430.795 209.131 430.795ZM208.459 440.331V432.171H209.771V440.331H208.459ZM211.232 437.643H212.576C212.624 438.603 213.472 439.307 214.832 439.307C215.984 439.307 216.8 438.811 216.8 438.059C216.8 437.035 215.904 436.955 214.688 436.811C212.864 436.587 211.408 436.219 211.408 434.523C211.408 433.035 212.768 432.059 214.608 432.075C216.464 432.091 217.808 432.955 217.936 434.651H216.592C216.496 433.819 215.728 433.195 214.608 433.195C213.472 433.195 212.704 433.675 212.704 434.427C212.704 435.323 213.568 435.435 214.752 435.579C216.608 435.803 218.096 436.155 218.096 437.963C218.096 439.483 216.64 440.427 214.832 440.427C212.72 440.427 211.264 439.435 211.232 437.643ZM223.312 440.427C220.928 440.427 219.264 438.731 219.264 436.251C219.264 433.771 220.928 432.075 223.312 432.075C225.696 432.075 227.36 433.771 227.36 436.251C227.36 438.731 225.696 440.427 223.312 440.427ZM223.312 439.259C224.928 439.259 226.016 437.995 226.016 436.251C226.016 434.507 224.928 433.243 223.312 433.243C221.696 433.243 220.608 434.507 220.608 436.251C220.608 437.995 221.696 439.259 223.312 439.259ZM232.641 432.171H233.009V433.451H232.353C230.641 433.451 230.177 434.875 230.177 436.171V440.331H228.865V432.171H230.001L230.177 433.403C230.561 432.779 231.185 432.171 232.641 432.171Z" fill="#424242"/>
<path d="M180.208 461.595V460.395L185.92 453.131H187.424V460.363H189.232V461.595H187.424V464.331H186.08V461.595H180.208ZM186.08 454.779L181.712 460.363H186.08V454.779ZM190.255 455.755C190.255 454.171 191.455 453.035 193.071 453.035C194.687 453.035 195.887 454.171 195.887 455.755C195.887 457.307 194.687 458.443 193.071 458.443C191.455 458.443 190.255 457.307 190.255 455.755ZM193.439 464.331H192.143L199.775 453.131H201.071L193.439 464.331ZM194.703 455.755C194.703 454.795 194.015 454.091 193.071 454.091C192.127 454.091 191.439 454.795 191.439 455.755C191.439 456.699 192.127 457.387 193.071 457.387C194.015 457.387 194.703 456.699 194.703 455.755ZM197.295 461.739C197.295 460.155 198.495 459.019 200.111 459.019C201.727 459.019 202.927 460.155 202.927 461.739C202.927 463.291 201.727 464.427 200.111 464.427C198.495 464.427 197.295 463.291 197.295 461.739ZM201.743 461.739C201.743 460.779 201.055 460.075 200.111 460.075C199.167 460.075 198.479 460.779 198.479 461.739C198.479 462.683 199.167 463.371 200.111 463.371C201.055 463.371 201.743 462.683 201.743 461.739Z" fill="#408A5E"/>
<path d="M180.32 487.741V486.461H188.976V487.741H185.344V497.661H183.952V487.741H180.32ZM193.156 489.501H193.524V490.781H192.868C191.156 490.781 190.692 492.205 190.692 493.501V497.661H189.38V489.501H190.516L190.692 490.733C191.076 490.109 191.7 489.501 193.156 489.501ZM197.953 497.757C195.505 497.757 193.905 496.077 193.905 493.581C193.905 491.101 195.473 489.405 197.777 489.405C200.081 489.405 201.585 490.861 201.649 493.277C201.649 493.453 201.633 493.645 201.617 493.837H195.281V493.949C195.329 495.501 196.305 496.589 197.857 496.589C199.009 496.589 199.905 495.981 200.177 494.925H201.505C201.185 496.557 199.841 497.757 197.953 497.757ZM195.361 492.749H200.241C200.113 491.341 199.153 490.557 197.793 490.557C196.593 490.557 195.489 491.421 195.361 492.749ZM210.362 496.461H210.778V497.661H210.058C208.97 497.661 208.602 497.197 208.586 496.397C208.074 497.133 207.258 497.757 205.85 497.757C204.058 497.757 202.842 496.861 202.842 495.373C202.842 493.741 203.978 492.829 206.122 492.829H208.522V492.269C208.522 491.213 207.77 490.573 206.49 490.573C205.338 490.573 204.57 491.117 204.41 491.949H203.098C203.29 490.349 204.586 489.405 206.554 489.405C208.634 489.405 209.834 490.445 209.834 492.349V495.917C209.834 496.349 209.994 496.461 210.362 496.461ZM208.522 494.333V493.933H205.994C204.826 493.933 204.17 494.365 204.17 495.293C204.17 496.093 204.858 496.637 205.946 496.637C207.578 496.637 208.522 495.693 208.522 494.333ZM211.451 494.973H212.795C212.843 495.933 213.691 496.637 215.051 496.637C216.203 496.637 217.019 496.141 217.019 495.389C217.019 494.365 216.123 494.285 214.907 494.141C213.083 493.917 211.627 493.549 211.627 491.853C211.627 490.365 212.987 489.389 214.827 489.405C216.683 489.421 218.027 490.285 218.155 491.981H216.811C216.715 491.149 215.947 490.525 214.827 490.525C213.691 490.525 212.923 491.005 212.923 491.757C212.923 492.653 213.787 492.765 214.971 492.909C216.827 493.133 218.315 493.485 218.315 495.293C218.315 496.813 216.859 497.757 215.051 497.757C212.939 497.757 211.483 496.765 211.451 494.973ZM225.483 493.581V489.501H226.795V497.661H225.659L225.483 496.573C225.003 497.181 224.219 497.757 222.875 497.757C221.083 497.757 219.659 496.749 219.659 494.045V489.501H220.971V493.965C220.971 495.661 221.739 496.557 223.099 496.557C224.587 496.557 225.483 495.421 225.483 493.581ZM232.36 489.501H232.728V490.781H232.072C230.36 490.781 229.896 492.205 229.896 493.501V497.661H228.584V489.501H229.72L229.896 490.733C230.28 490.109 230.904 489.501 232.36 489.501ZM236.295 497.709L233.111 489.501H234.503L237.015 496.013L239.447 489.501H240.839L237.079 499.037C236.567 500.349 236.263 500.861 235.111 500.861H233.543V499.661H234.711C235.463 499.661 235.591 499.469 235.895 498.701L236.295 497.709Z" fill="#424242"/>
<path d="M182.672 511.677V510.461H183.984V521.661H182.64V513.629C182.48 513.773 182.224 513.837 181.872 513.837H180.064V512.637H181.888C182.416 512.637 182.672 512.237 182.672 511.677ZM185.782 516.317V515.805C185.782 512.621 187.51 510.365 190.038 510.365C192.55 510.365 194.278 512.621 194.278 515.805V516.317C194.278 519.661 192.55 521.757 190.038 521.757C187.51 521.757 185.782 519.661 185.782 516.317ZM192.918 516.269V515.853C192.918 513.197 191.766 511.597 190.038 511.597C188.294 511.597 187.142 513.197 187.142 515.853V516.269C187.142 518.925 188.294 520.525 190.038 520.525C191.766 520.525 192.918 518.925 192.918 516.269ZM195.833 513.085C195.833 511.501 197.033 510.365 198.649 510.365C200.265 510.365 201.465 511.501 201.465 513.085C201.465 514.637 200.265 515.773 198.649 515.773C197.033 515.773 195.833 514.637 195.833 513.085ZM199.017 521.661H197.721L205.353 510.461H206.649L199.017 521.661ZM200.281 513.085C200.281 512.125 199.593 511.421 198.649 511.421C197.705 511.421 197.017 512.125 197.017 513.085C197.017 514.029 197.705 514.717 198.649 514.717C199.593 514.717 200.281 514.029 200.281 513.085ZM202.873 519.069C202.873 517.485 204.073 516.349 205.689 516.349C207.305 516.349 208.505 517.485 208.505 519.069C208.505 520.621 207.305 521.757 205.689 521.757C204.073 521.757 202.873 520.621 202.873 519.069ZM207.321 519.069C207.321 518.109 206.633 517.405 205.689 517.405C204.745 517.405 204.057 518.109 204.057 519.069C204.057 520.013 204.745 520.701 205.689 520.701C206.633 520.701 207.321 520.013 207.321 519.069Z" fill="#408A5E"/>
<path d="M180.32 545.072V543.792H188.976V545.072H185.344V554.992H183.952V545.072H180.32ZM192.515 555.088C190.067 555.088 188.467 553.408 188.467 550.912C188.467 548.432 190.035 546.736 192.339 546.736C194.643 546.736 196.147 548.192 196.211 550.608C196.211 550.784 196.195 550.976 196.179 551.168H189.843V551.28C189.891 552.832 190.867 553.92 192.419 553.92C193.571 553.92 194.467 553.312 194.739 552.256H196.067C195.747 553.888 194.403 555.088 192.515 555.088ZM189.923 550.08H194.803C194.675 548.672 193.715 547.888 192.355 547.888C191.155 547.888 190.051 548.752 189.923 550.08ZM204.925 553.792H205.341V554.992H204.621C203.533 554.992 203.165 554.528 203.149 553.728C202.637 554.464 201.821 555.088 200.413 555.088C198.621 555.088 197.405 554.192 197.405 552.704C197.405 551.072 198.541 550.16 200.685 550.16H203.085V549.6C203.085 548.544 202.333 547.904 201.053 547.904C199.901 547.904 199.133 548.448 198.973 549.28H197.661C197.853 547.68 199.149 546.736 201.117 546.736C203.197 546.736 204.397 547.776 204.397 549.68V553.248C204.397 553.68 204.557 553.792 204.925 553.792ZM203.085 551.664V551.264H200.557C199.389 551.264 198.733 551.696 198.733 552.624C198.733 553.424 199.421 553.968 200.509 553.968C202.141 553.968 203.085 553.024 203.085 551.664ZM215.453 546.736C217.149 546.736 218.541 547.712 218.541 550.288V554.992H217.229V550.368C217.229 548.768 216.525 547.936 215.293 547.936C213.933 547.936 213.101 548.96 213.101 550.624V554.992H211.789V550.368C211.789 548.768 211.069 547.936 209.821 547.936C208.477 547.936 207.661 549.056 207.661 550.688V554.992H206.349V546.832H207.485L207.661 547.952C208.093 547.36 208.781 546.736 210.045 546.736C211.181 546.736 212.157 547.248 212.621 548.288C213.117 547.408 213.997 546.736 215.453 546.736Z" fill="#424242"/>
<path d="M182.672 569.008V567.792H183.984V578.992H182.64V570.96C182.48 571.104 182.224 571.168 181.872 571.168H180.064V569.968H181.888C182.416 569.968 182.672 569.568 182.672 569.008ZM185.782 573.648V573.136C185.782 569.952 187.51 567.696 190.038 567.696C192.55 567.696 194.278 569.952 194.278 573.136V573.648C194.278 576.992 192.55 579.088 190.038 579.088C187.51 579.088 185.782 576.992 185.782 573.648ZM192.918 573.6V573.184C192.918 570.528 191.766 568.928 190.038 568.928C188.294 568.928 187.142 570.528 187.142 573.184V573.6C187.142 576.256 188.294 577.856 190.038 577.856C191.766 577.856 192.918 576.256 192.918 573.6ZM195.833 570.416C195.833 568.832 197.033 567.696 198.649 567.696C200.265 567.696 201.465 568.832 201.465 570.416C201.465 571.968 200.265 573.104 198.649 573.104C197.033 573.104 195.833 571.968 195.833 570.416ZM199.017 578.992H197.721L205.353 567.792H206.649L199.017 578.992ZM200.281 570.416C200.281 569.456 199.593 568.752 198.649 568.752C197.705 568.752 197.017 569.456 197.017 570.416C197.017 571.36 197.705 572.048 198.649 572.048C199.593 572.048 200.281 571.36 200.281 570.416ZM202.873 576.4C202.873 574.816 204.073 573.68 205.689 573.68C207.305 573.68 208.505 574.816 208.505 576.4C208.505 577.952 207.305 579.088 205.689 579.088C204.073 579.088 202.873 577.952 202.873 576.4ZM207.321 576.4C207.321 575.44 206.633 574.736 205.689 574.736C204.745 574.736 204.057 575.44 204.057 576.4C204.057 577.344 204.745 578.032 205.689 578.032C206.633 578.032 207.321 577.344 207.321 576.4Z" fill="#408A5E"/>
<path d="M180.64 608.659H182.08C182.192 610.163 183.36 611.155 185.072 611.155C186.576 611.155 187.648 610.467 187.648 609.251C187.648 607.859 186.272 607.571 184.576 607.283C182.768 606.979 180.912 606.387 180.912 604.211C180.912 602.307 182.464 601.027 184.736 601.027C187.232 601.027 188.768 602.419 188.896 604.435H187.456C187.296 603.139 186.256 602.291 184.736 602.291C183.28 602.291 182.304 602.931 182.304 604.131C182.304 605.475 183.664 605.747 185.344 606.035C187.168 606.339 189.04 606.947 189.04 609.123C189.04 611.059 187.408 612.419 185.056 612.419C182.32 612.419 180.72 610.867 180.64 608.659ZM191.223 610.195V605.363H189.751V604.163H191.223V601.875H192.535V604.163H194.647V605.363H192.535V610.179C192.535 610.867 192.775 611.123 193.479 611.123H194.775V612.323H193.351C191.783 612.323 191.223 611.635 191.223 610.195ZM203.003 611.123H203.419V612.323H202.699C201.611 612.323 201.243 611.859 201.227 611.059C200.715 611.795 199.899 612.419 198.491 612.419C196.699 612.419 195.483 611.523 195.483 610.035C195.483 608.403 196.619 607.491 198.763 607.491H201.163V606.931C201.163 605.875 200.411 605.235 199.131 605.235C197.979 605.235 197.211 605.779 197.051 606.611H195.739C195.931 605.011 197.227 604.067 199.195 604.067C201.275 604.067 202.475 605.107 202.475 607.011V610.579C202.475 611.011 202.635 611.123 203.003 611.123ZM201.163 608.995V608.595H198.635C197.467 608.595 196.811 609.027 196.811 609.955C196.811 610.755 197.499 611.299 198.587 611.299C200.219 611.299 201.163 610.355 201.163 608.995ZM204.427 612.323V601.123H205.739V608.499L209.835 604.163H211.451L208.267 607.539L211.675 612.323H210.091L207.387 608.483L205.739 610.179V612.323H204.427ZM213.271 602.787C212.791 602.787 212.423 602.435 212.423 601.939C212.423 601.443 212.791 601.091 213.271 601.091C213.751 601.091 214.119 601.443 214.119 601.939C214.119 602.435 213.751 602.787 213.271 602.787ZM212.599 612.323V604.163H213.911V612.323H212.599ZM219.709 604.067C221.549 604.067 223.005 605.075 223.005 607.779V612.323H221.693V607.859C221.693 606.163 220.909 605.267 219.485 605.267C217.949 605.267 217.021 606.403 217.021 608.243V612.323H215.709V604.163H216.845L217.021 605.267C217.501 604.643 218.333 604.067 219.709 604.067ZM231.109 605.571L231.285 604.163H232.421V611.923C232.421 614.275 231.173 615.619 228.373 615.619C226.293 615.619 224.837 614.643 224.629 612.851H225.973C226.197 613.875 227.109 614.451 228.469 614.451C230.181 614.451 231.109 613.651 231.109 611.875V610.915C230.565 611.843 229.685 612.419 228.309 612.419C226.053 612.419 224.389 610.899 224.389 608.243C224.389 605.747 226.053 604.067 228.309 604.067C229.685 604.067 230.597 604.659 231.109 605.571ZM228.437 611.251C230.037 611.251 231.125 610.019 231.125 608.275C231.125 606.483 230.037 605.235 228.437 605.235C226.821 605.235 225.733 606.467 225.733 608.243C225.733 610.019 226.821 611.251 228.437 611.251ZM242.172 604.163H242.54V605.443H241.884C240.172 605.443 239.708 606.867 239.708 608.163V612.323H238.396V604.163H239.532L239.708 605.395C240.092 604.771 240.716 604.163 242.172 604.163ZM246.969 612.419C244.521 612.419 242.921 610.739 242.921 608.243C242.921 605.763 244.489 604.067 246.793 604.067C249.097 604.067 250.601 605.523 250.665 607.939C250.665 608.115 250.649 608.307 250.633 608.499H244.297V608.611C244.345 610.163 245.321 611.251 246.873 611.251C248.025 611.251 248.921 610.643 249.193 609.587H250.521C250.201 611.219 248.857 612.419 246.969 612.419ZM244.377 607.411H249.257C249.129 606.003 248.169 605.219 246.809 605.219C245.609 605.219 244.505 606.083 244.377 607.411ZM253.768 612.323L251.128 604.163H252.504L254.536 610.803L256.68 604.163H257.896L259.928 610.803L262.056 604.163H263.384L260.664 612.323H259.224L257.256 606.259L255.208 612.323H253.768ZM271.331 611.123H271.747V612.323H271.027C269.939 612.323 269.571 611.859 269.555 611.059C269.043 611.795 268.227 612.419 266.819 612.419C265.027 612.419 263.811 611.523 263.811 610.035C263.811 608.403 264.947 607.491 267.091 607.491H269.491V606.931C269.491 605.875 268.739 605.235 267.459 605.235C266.307 605.235 265.539 605.779 265.379 606.611H264.067C264.259 605.011 265.555 604.067 267.523 604.067C269.603 604.067 270.803 605.107 270.803 607.011V610.579C270.803 611.011 270.963 611.123 271.331 611.123ZM269.491 608.995V608.595H266.963C265.795 608.595 265.139 609.027 265.139 609.955C265.139 610.755 265.827 611.299 266.915 611.299C268.547 611.299 269.491 610.355 269.491 608.995ZM276.531 604.163H276.899V605.443H276.243C274.531 605.443 274.067 606.867 274.067 608.163V612.323H272.755V604.163H273.891L274.067 605.395C274.451 604.771 275.075 604.163 276.531 604.163ZM284 605.411V601.123H285.312V612.323H284.176L284 611.011C283.456 611.763 282.576 612.419 281.2 612.419C278.944 612.419 277.28 610.899 277.28 608.243C277.28 605.747 278.944 604.067 281.2 604.067C282.576 604.067 283.504 604.627 284 605.411ZM281.328 611.251C282.928 611.251 284.016 610.019 284.016 608.275C284.016 606.483 282.928 605.235 281.328 605.235C279.712 605.235 278.624 606.467 278.624 608.243C278.624 610.019 279.712 611.251 281.328 611.251Z" fill="#424242"/>
<path d="M182.672 626.339V625.123H183.984V636.323H182.64V628.291C182.48 628.435 182.224 628.499 181.872 628.499H180.064V627.299H181.888C182.416 627.299 182.672 626.899 182.672 626.339ZM185.782 630.979V630.467C185.782 627.283 187.51 625.027 190.038 625.027C192.55 625.027 194.278 627.283 194.278 630.467V630.979C194.278 634.323 192.55 636.419 190.038 636.419C187.51 636.419 185.782 634.323 185.782 630.979ZM192.918 630.931V630.515C192.918 627.859 191.766 626.259 190.038 626.259C188.294 626.259 187.142 627.859 187.142 630.515V630.931C187.142 633.587 188.294 635.187 190.038 635.187C191.766 635.187 192.918 633.587 192.918 630.931ZM195.833 627.747C195.833 626.163 197.033 625.027 198.649 625.027C200.265 625.027 201.465 626.163 201.465 627.747C201.465 629.299 200.265 630.435 198.649 630.435C197.033 630.435 195.833 629.299 195.833 627.747ZM199.017 636.323H197.721L205.353 625.123H206.649L199.017 636.323ZM200.281 627.747C200.281 626.787 199.593 626.083 198.649 626.083C197.705 626.083 197.017 626.787 197.017 627.747C197.017 628.691 197.705 629.379 198.649 629.379C199.593 629.379 200.281 628.691 200.281 627.747ZM202.873 633.731C202.873 632.147 204.073 631.011 205.689 631.011C207.305 631.011 208.505 632.147 208.505 633.731C208.505 635.283 207.305 636.419 205.689 636.419C204.073 636.419 202.873 635.283 202.873 633.731ZM207.321 633.731C207.321 632.771 206.633 632.067 205.689 632.067C204.745 632.067 204.057 632.771 204.057 633.731C204.057 634.675 204.745 635.363 205.689 635.363C206.633 635.363 207.321 634.675 207.321 633.731Z" fill="#408A5E"/>
<mask id="mask0_23_2368" style="mask-type:alpha" maskUnits="userSpaceOnUse" x="0" y="0" width="343" height="343">
<circle cx="171.5" cy="171.5" r="171.5" fill="#EDF2E8"/>
</mask>
<g mask="url(#mask0_23_2368)">
<circle cx="171.5" cy="171.5" r="171.5" fill="#043F32"/>
<path d="M171.929 -6.4314V172.357L231.525 -6.4314H171.929Z" fill="#736CA9"/>
<path d="M171.929 -6.4314V172.357L231.525 -6.4314H171.929Z" fill="#CFF2D4"/>
<path d="M228.952 0.428558L172.357 172.27L270.541 15.435L228.952 0.428558Z" fill="#736CA9"/>
<path d="M228.952 0.428558L172.357 172.27L270.541 15.435L228.952 0.428558Z" fill="#AEEBB4"/>
<path d="M314.274 33.4426L172.357 172.27L270.541 15.4351L314.274 33.4426Z" fill="#736CA9"/>
<path d="M314.274 33.4426L172.357 172.27L270.541 15.4351L314.274 33.4426Z" fill="#77CE7E"/>
<path d="M314.274 33.4425L172.357 172.27L324.564 69.029L314.274 33.4425Z" fill="#736CA9"/>
<path d="M314.274 33.4425L172.357 172.27L324.564 69.029L314.274 33.4425Z" fill="#5FB266"/>
<path d="M350.717 112.761L172.357 172.27L324.564 69.0284L350.717 112.761Z" fill="#736CA9"/>
<path d="M350.717 112.761L172.357 172.27L324.564 69.0284L350.717 112.761Z" fill="#559E66"/>
<path d="M350.717 112.761L172.357 172.27L355.434 172.27L350.717 112.761Z" fill="#418A52"/>
<path d="M355.434 213.089L172.357 172.27L355.434 172.27L355.434 213.089Z" fill="#2D7648"/>
<path d="M355.434 213.089L172.357 172.27L308.7 301.411L355.434 213.089Z" fill="#2D6C48"/>
<path d="M196.367 360.579L172.357 172.27L308.7 301.411L196.367 360.579Z" fill="#19623E"/>
<path d="M196.367 360.579L172.357 172.27L-15.8638 294.551L196.367 360.579Z" fill="#0F4E3E"/>
</g>
<circle cx="175.864" cy="171.888" r="83.953" fill="white"/>
</svg>
