<svg width="23" height="23" viewBox="0 0 23 23" fill="none" xmlns="http://www.w3.org/2000/svg">
<path d="M3.81456 7.00992C3.8007 7.03302 3.78914 7.05613 3.77759 7.07923H3.77528C3.78914 7.05613 3.8007 7.03302 3.81456 7.00992Z" fill="white"/>
<path d="M3.87232 7.24096H3.49803L3.67593 6.92905L3.77528 6.9845L3.9555 7.08847L3.87232 7.24096Z" fill="white"/>
<path d="M11.848 2.82106C11.6239 2.80258 11.3998 2.79565 11.171 2.79565H11.0393C10.7297 2.79565 10.4248 2.81182 10.1244 2.84417C10.263 2.82337 10.9331 2.74251 11.848 2.82106Z" fill="white"/>
<path d="M10.1429 3.00359L10.1036 2.68244C10.2307 2.66395 10.9123 2.57847 11.8642 2.65933L11.8388 2.98049C11.617 2.96431 11.3952 2.95507 11.1734 2.95507H11.0417C10.7413 2.95507 10.4386 2.97124 10.1429 3.00359Z" fill="white"/>
<path d="M3.3594 14.17C3.29471 14.0198 3.23695 13.865 3.18381 13.7033C3.17687 13.6848 3.17225 13.6663 3.16532 13.6455C3.16532 13.6455 3.16532 13.6432 3.16532 13.6409C3.15839 13.6201 3.15146 13.597 3.14453 13.5762C3.13991 13.5624 3.13529 13.5462 3.13066 13.5323C3.12604 13.5185 3.12142 13.5023 3.1168 13.4884C3.10987 13.4676 3.10294 13.4445 3.09832 13.4237C3.09832 13.4168 3.0937 13.4099 3.09139 13.4006C3.06366 13.3036 3.03825 13.2042 3.01514 13.1026C3.10756 13.4676 3.22308 13.8234 3.36171 14.17H3.3594Z" fill="white"/>
<path d="M3.21153 14.2324C3.14453 14.0753 3.08446 13.9159 3.03132 13.7588L3.00821 13.6871C3.00128 13.6663 2.99435 13.6455 2.98742 13.6247L2.97124 13.5762L2.95276 13.5577V13.5138C2.94814 13.4977 2.94352 13.4838 2.9389 13.4676L2.93197 13.4445C2.90424 13.3452 2.87883 13.2435 2.85341 13.1419L3.16763 13.0656C3.25543 13.4191 3.37095 13.7726 3.50727 14.1123L3.20922 14.2347L3.21153 14.2324Z" fill="white"/>
<path d="M5.42957 9.66694V12.3217L2.88345 12.317C2.88345 12.317 2.88345 12.317 2.88345 12.3147L5.42726 12.3193V9.66694H5.42957Z" fill="white"/>
<path d="M5.58899 12.4834L2.7194 12.4788V12.153L5.26552 12.1576V9.50752H5.58668L5.58899 9.66694V12.4834Z" fill="white"/>
<path d="M10.9885 9.19792H10.9862V9.19561L10.9885 9.19792Z" fill="white"/>
<path d="M10.9978 9.4382L10.7644 9.20485L10.9931 8.94839L11.1133 9.09395L11.2288 9.20716L10.9978 9.4382Z" fill="white"/>
<path d="M10.9885 9.19792H10.9862L8.90911 7.10234L7.08154 8.92759L7.03995 8.97149L7.86016 9.7917L7.03764 8.97149L8.90911 7.10003L10.9862 9.19561L10.9885 9.19792Z" fill="white"/>
<path d="M7.74695 9.90723L6.80891 8.97149L8.90911 6.87129L11.2149 9.19561L10.9862 9.42665L10.873 9.31344L8.90911 7.33107L7.26869 8.97149L7.97569 9.67849L7.74695 9.90723Z" fill="white"/>
<path d="M4.10799 6.53627C4.02481 6.66104 3.94395 6.79042 3.86539 6.92212C3.94164 6.79042 4.0225 6.66104 4.10799 6.53627Z" fill="white"/>
<path d="M4.00402 7.0053L3.72676 6.84125C3.80532 6.70725 3.88849 6.57324 3.97398 6.44617L4.24199 6.62407C4.16113 6.74653 4.08257 6.8736 4.00402 7.0053Z" fill="white"/>
<path d="M10.1244 2.84186C10.1105 2.84186 10.1036 2.84417 10.099 2.84648C10.099 2.84648 10.0967 2.84648 10.0944 2.84648C10.1036 2.84648 10.1129 2.84648 10.1221 2.84417L10.1244 2.84186Z" fill="white"/>
<path d="M10.0828 3.0059L8.58796 2.85803L10.1059 2.68244L10.1082 2.71478L10.1129 2.68475L10.1105 2.71709L10.1475 3.00128L10.0828 3.0059Z" fill="white"/>
<path d="M10.9515 0.161732H10.9354C10.9354 0.161732 10.9446 0.161732 10.9492 0.161732H10.9515Z" fill="white"/>
<path d="M11.483 0.323463H10.9331V0.237977L10.91 0.318842L10.8822 0.311912L10.8591 0.295738L10.9308 0.189457L10.9238 0H10.9793L11.0024 0.00693178C11.0162 0.0115527 11.0301 0.0184841 11.0417 0.0254154L11.4853 0.321153L11.483 0.323463Z" fill="white"/>
<path d="M21.85 10.4271C21.5681 4.75029 16.827 0.226425 11.0417 0.161732C11.0116 0.161732 10.9816 0.161732 10.9515 0.161732H10.9331C9.13553 0.180216 7.44197 0.637686 5.95635 1.43248C3.65283 2.63854 1.91537 4.62784 0.970392 7.07923H3.77528C3.78914 7.05613 3.8007 7.03302 3.81456 7.00992C3.83073 6.97988 3.84922 6.95216 3.86539 6.92212C3.94164 6.79042 4.0225 6.66104 4.10799 6.53627C5.43419 4.54466 7.68457 3.16763 10.1013 2.84648C10.1013 2.84648 10.099 2.84648 10.0967 2.84648C10.1059 2.84648 10.1152 2.84648 10.1244 2.84417C10.263 2.82337 10.9331 2.74251 11.848 2.82106C11.8665 2.82106 11.8827 2.82337 11.9011 2.82569C11.9335 2.828 11.9658 2.83262 11.9982 2.83493C12.421 2.87883 12.89 2.95507 13.3798 3.08908C13.3845 3.08908 13.3868 3.08908 13.3914 3.09139C13.4029 3.0937 13.4145 3.09832 13.426 3.10063C13.4468 3.10756 13.4676 3.11218 13.4884 3.11911C13.5092 3.12373 13.5277 3.13066 13.5485 3.1376C13.5762 3.14684 13.604 3.15377 13.634 3.16301C14.1677 3.32936 14.6783 3.55117 15.1589 3.8238C15.1635 3.82611 15.1704 3.83073 15.1751 3.83304C15.4153 3.97398 15.6556 4.1334 15.889 4.31362L15.279 4.90509L10.9862 9.19792L10.9978 9.21178L10.9862 9.20023L8.90911 7.10465L7.03995 8.9738L7.86016 9.79401L7.03764 8.9738L9.12398 11.0601L7.03764 13.1465L8.86521 14.9948L10.9562 12.9039L15.755 17.6888C15.755 17.6888 15.755 17.6888 15.7527 17.6888C15.2559 18.0493 14.7176 18.3381 14.1215 18.6061C13.1419 18.9966 12.056 19.3015 10.8591 19.3015C8.9068 19.3015 7.13468 18.6176 5.75072 17.4763C5.74841 17.474 5.74379 17.4717 5.74148 17.4693C5.5243 17.2868 5.31867 17.0927 5.12228 16.8894C4.45918 16.0669 3.8007 15.219 3.36171 14.1769C3.36171 14.1769 3.36171 14.1769 3.36171 14.1723C3.29702 14.0221 3.23926 13.8673 3.18612 13.7056C3.17918 13.6871 3.17456 13.6686 3.16763 13.6479C3.16763 13.6479 3.16763 13.6455 3.16763 13.6432C3.1607 13.6224 3.15377 13.5993 3.14684 13.5785C3.14222 13.5647 3.1376 13.5485 3.13298 13.5346C3.12836 13.5208 3.12373 13.5046 3.11911 13.4907C3.11218 13.4699 3.10525 13.4468 3.10063 13.426C3.10063 13.4191 3.09601 13.4122 3.0937 13.4029C3.06597 13.3059 3.04056 13.2066 3.01745 13.1049C2.95969 12.8554 2.91579 12.592 2.88576 12.3193C2.88576 12.3193 2.88576 12.3193 2.88576 12.317L5.42957 12.3217V9.66694H0.233356C0.168664 10.0574 0.168663 10.5149 0.168663 10.9723C0.196388 13.2759 0.901078 15.3946 2.09096 17.1413C2.09096 17.1413 2.09096 17.1436 2.09327 17.1459C4.02019 20.0155 7.29872 21.9123 11.0463 21.9123C16.8317 21.9123 21.5288 17.3284 21.8546 11.6077C21.8615 11.4367 21.8638 11.2496 21.8638 11.074C21.8638 10.7251 21.8546 10.4271 21.8546 10.4271H21.85ZM18.9342 13.4746C18.7516 14.0753 18.4975 14.6437 18.1763 15.1751C18.0308 15.4177 17.8714 15.6533 17.6981 15.8821L12.8669 11.037L17.6958 6.1874C18.7193 7.55518 19.29 9.1725 19.29 11.0209C19.29 11.885 19.1698 12.7052 18.9365 13.4746H18.9342Z" fill="white"/>
<path d="M11.0393 22.0718C7.3819 22.0718 3.98553 20.2627 1.95234 17.2337C0.70238 15.3992 0.0300359 13.2366 0 10.9723C0 10.5149 8.9407e-08 10.0435 0.0670033 9.6369L0.090107 9.5029H5.58437V12.4811L3.06135 12.4764C3.08908 12.6775 3.12373 12.8762 3.16994 13.0679C3.19305 13.1673 3.21846 13.2643 3.24388 13.359L3.25081 13.3822C3.25081 13.3822 3.25543 13.3983 3.25774 13.4053L3.34785 13.6848V13.6917C3.39406 13.8304 3.4472 13.9713 3.50496 14.1099L3.5142 14.1307C3.9347 15.1196 4.54466 15.9167 5.2378 16.7785C5.42726 16.9749 5.63058 17.1667 5.84314 17.3446C7.271 18.5206 9.00153 19.1398 10.8568 19.1398C11.8757 19.1398 12.8946 18.9226 14.0591 18.4559C14.6321 18.1994 15.0965 17.9453 15.5031 17.6657L10.9539 13.1303L8.8629 15.2213L8.74738 15.1081L6.8066 13.1465L8.89294 11.0601L6.8066 8.9738L8.90449 6.87591L10.9816 8.97149L15.1612 4.79188L15.6371 4.32979C15.4616 4.20272 15.279 4.08257 15.0896 3.97398L15.0734 3.96474C14.6021 3.69904 14.1007 3.47954 13.5808 3.31781L13.3475 3.25081C12.8993 3.13067 12.4441 3.04518 11.9774 2.99897L11.8295 2.98511C10.9608 2.91117 10.3162 2.98511 10.1683 3.00359L10.1591 3.00821H10.1198L10.1129 2.92041L10.1198 3.01052C7.73771 3.32705 5.53816 4.67867 4.23968 6.62869C4.15882 6.75115 4.07795 6.87822 4.00402 7.00761C3.98553 7.03764 3.96936 7.06537 3.95319 7.0954L3.8677 7.24558H0.732414L0.817902 7.02609C1.77905 4.53773 3.57658 2.50222 5.88011 1.29616C7.42349 0.471333 9.17019 0.0254154 10.9308 0.00693178H10.9515C10.9793 0.00693178 11.0093 0.00693178 11.0417 0.00693178C16.9056 0.0739349 21.7229 4.65094 22.0117 10.4271C22.0117 10.4271 22.0209 10.7344 22.0209 11.0809C22.0209 11.2866 22.0186 11.4691 22.0117 11.6216C21.6767 17.4878 16.8594 22.0787 11.0417 22.0787L11.0393 22.0718ZM0.367363 9.82636C0.323464 10.1752 0.323463 10.5796 0.323463 10.97C0.351189 13.1673 1.00505 15.2698 2.21803 17.0488C4.19578 19.9947 7.49049 21.7506 11.0393 21.7506C16.6861 21.7506 21.3625 17.2914 21.6882 11.5985C21.6952 11.4529 21.6975 11.275 21.6975 11.074C21.6975 10.7436 21.6882 10.4548 21.6882 10.434C21.4087 4.82885 16.73 0.388156 11.0393 0.323463C11.0116 0.323463 10.9839 0.323463 10.9562 0.323463H10.9354C9.22795 0.339637 7.53208 0.774002 6.03491 1.57573C3.83535 2.72865 2.17183 4.57239 1.21068 6.9175H3.68517C3.70135 6.89208 3.71521 6.86436 3.73138 6.83894C3.80763 6.70725 3.8908 6.57324 3.97629 6.44617C5.16155 4.66712 7.06768 3.36633 9.18867 2.85341L8.95994 2.81413L10.1036 2.68244C10.2307 2.66395 10.9123 2.57847 11.8642 2.65933L12.0167 2.6732C12.4996 2.72403 12.9732 2.80951 13.4237 2.93197L13.6848 3.0059C14.2278 3.17456 14.7499 3.40099 15.2421 3.68055L15.2582 3.6898C15.5147 3.83997 15.7619 4.00402 15.9907 4.18192L16.1385 4.29513L15.3946 5.016L11.2173 9.1933L11.2311 9.20716L11.0001 9.4382L10.8753 9.31344L8.91142 7.33107L7.271 8.97149L9.35734 11.0578L7.26869 13.1465L8.87214 14.7661L10.9631 12.6751L16.0114 17.7073L15.8566 17.8182C15.3946 18.1555 14.8655 18.4513 14.1954 18.7516C12.9824 19.2368 11.9289 19.461 10.8661 19.461C8.93453 19.461 7.13237 18.8163 5.65368 17.5987C5.42957 17.4093 5.22394 17.2175 5.02986 17.0165H5.02293L4.99982 16.9865C4.31131 16.1316 3.65745 15.279 3.22077 14.2463L3.20691 14.2139C3.14453 14.0637 3.08677 13.9089 3.03594 13.7588L3.01283 13.6871C3.0059 13.6663 2.99897 13.6455 2.99204 13.6247L2.97817 13.5808C2.97817 13.5808 2.97817 13.5785 2.97817 13.5762L2.95969 13.5577V13.5138C2.95507 13.4977 2.95045 13.4838 2.94583 13.4676L2.9389 13.4445C2.91117 13.3452 2.88576 13.2435 2.86034 13.1419C2.80027 12.8831 2.75406 12.6151 2.72634 12.3424V12.1553L5.27015 12.1599V9.82867H0.374294L0.367363 9.82636ZM17.7119 16.127L12.6359 11.037L17.7096 5.94249L17.8205 6.09267C18.8995 7.5367 19.4471 9.19561 19.4471 11.0232C19.4471 11.8965 19.3246 12.7375 19.0843 13.5231C18.8972 14.133 18.6361 14.7176 18.3103 15.2605C18.1625 15.5055 17.9984 15.7481 17.8205 15.9814L17.7096 16.1293L17.7119 16.127ZM13.0933 11.037L17.6796 15.6372C17.8067 15.4616 17.9268 15.279 18.0377 15.0942C18.3496 14.5743 18.5992 14.0129 18.7794 13.4284C19.0104 12.6728 19.1259 11.8619 19.1259 11.0209C19.1259 9.3273 18.6384 7.78623 17.675 6.43461L13.0933 11.0347V11.037Z" fill="white"/>
<path d="M18.9365 13.4607C18.9365 13.4607 18.9365 13.4699 18.9319 13.4746C18.7493 14.0753 18.4952 14.6437 18.174 15.1751C18.4929 14.6367 18.754 14.0522 18.9342 13.4584L18.9365 13.4607Z" fill="white"/>
<path d="M18.315 15.2605L18.0377 15.0942C18.3542 14.5628 18.6038 13.9967 18.784 13.4145L19.0936 13.5023L18.9665 13.4699L19.0936 13.5046L19.089 13.5208C18.9018 14.1307 18.6407 14.7153 18.315 15.2582V15.2605Z" fill="white"/>
<path d="M10.9885 9.19792H10.9862L8.90911 7.10234L7.08154 8.92759L7.03995 8.97149L7.86016 9.7917L7.03764 8.97149L8.90911 7.10003L10.9862 9.19561L10.9885 9.19792Z" fill="white"/>
<path d="M7.74695 9.90723L6.80891 8.97149L8.90911 6.87129L11.2288 9.20716L10.9978 9.4382L10.873 9.31344L8.90911 7.33107L7.26869 8.97149L7.97569 9.67849L7.74695 9.90723Z" fill="white"/>
<path d="M15.7573 17.6865C15.7573 17.6865 15.7573 17.6865 15.755 17.6865L14.2162 16.1478L15.7573 17.6842V17.6865Z" fill="white"/>
<path d="M15.7388 17.8968L15.6418 17.802L14.103 16.2656L14.3317 16.0369L16.0068 17.7073L15.7388 17.8968Z" fill="white"/>
<path d="M3.86539 6.92212C3.83535 6.97526 3.80532 7.02609 3.77528 7.07923H3.77297C3.78683 7.05613 3.79839 7.03302 3.81225 7.00992C3.82842 6.97988 3.84691 6.95216 3.86308 6.92212H3.86539Z" fill="white"/>
<path d="M3.87232 7.24096H3.49803L3.67362 6.92905C3.6898 6.89902 3.70828 6.86898 3.72676 6.83894L4.00402 7.0053C3.97398 7.05613 3.94626 7.10696 3.91622 7.15779L3.87001 7.24096H3.87232Z" fill="white"/>
<path d="M10.9978 9.4382L10.7436 9.17943L11.0024 8.98536L11.2288 9.20716L10.9978 9.4382Z" fill="white"/>
</svg>
