<svg width="16" height="16" viewBox="0 0 16 16" fill="none" xmlns="http://www.w3.org/2000/svg">
<path d="M8.05115 1.99902C8.05684 1.99904 8.06298 1.99905 8.06955 1.99907L8.14035 1.99929C8.96214 2.00231 13.1273 2.0325 14.2503 2.33441C14.9387 2.51905 15.4808 3.06321 15.6648 3.75394C15.7661 4.13344 15.8367 4.63783 15.8859 5.15659L15.8954 5.2605C15.9032 5.34719 15.9103 5.43408 15.9169 5.52066L15.9246 5.62436C15.9904 6.53846 15.998 7.39387 15.9989 7.58102L15.999 7.60627C15.999 7.60833 15.999 7.61171 15.999 7.61171V7.62589C15.999 7.62589 15.999 7.62927 15.999 7.63133L15.9989 7.65658C15.998 7.8508 15.9898 8.7647 15.9169 9.717L15.9087 9.82101L15.9 9.92512C15.8505 10.4977 15.7762 11.0663 15.6648 11.4837C15.4808 12.1744 14.9387 12.7187 14.2503 12.9032C13.0898 13.2153 8.68109 13.2371 8.06955 13.2387L8.02246 13.2388C8.0186 13.2388 8.0152 13.2388 8.01228 13.2388L7.99307 13.2388C7.99307 13.2388 7.98866 13.2388 7.98573 13.2388L7.92846 13.2387C7.61941 13.2379 6.34057 13.2319 5.0013 13.1859L4.83007 13.1798C4.8015 13.1788 4.77292 13.1777 4.74434 13.1766L4.57291 13.1699L4.40188 13.1626C3.29238 13.1139 2.23452 13.0341 1.74789 12.9032C1.05947 12.7187 0.517371 12.1744 0.333379 11.4837C0.221913 11.0663 0.147602 10.4977 0.0980616 9.92512L0.0893244 9.82101L0.0811165 9.717C0.0109033 8.79933 0.000711116 7.91732 -0.000768403 7.68059L-0.000945201 7.64671C-0.000957608 7.64365 -0.000967947 7.64084 -0.000976562 7.63828V7.59932C-0.000967947 7.59676 -0.000957608 7.59395 -0.000945201 7.5909L-0.000768403 7.55701C0.000571538 7.34262 0.00905783 6.59899 0.0628044 5.77891L0.0697612 5.67603C0.0709608 5.65883 0.0721808 5.6416 0.0734215 5.62436L0.0811165 5.52066C0.0877404 5.43408 0.0948985 5.34719 0.102634 5.2605L0.112196 5.15659C0.16142 4.63783 0.232046 4.13344 0.333379 3.75394C0.517371 3.06321 1.05947 2.51905 1.74789 2.33441C2.23452 2.20358 3.29238 2.12377 4.40188 2.07509L4.57291 2.06785L4.74434 2.06107C4.77292 2.05998 4.8015 2.05891 4.83007 2.05786L5.0013 2.05177C6.25508 2.00873 7.45591 2.00076 7.85767 1.99929L7.92846 1.99907C7.93504 1.99905 7.94117 1.99904 7.94686 1.99902H8.05115ZM6.39905 5.21022V10.0274L10.5558 7.61893L6.39905 5.21022Z" fill="white"/>
</svg>
